{"asset": {"version": "2.0", "generator": "EMERGENT tools/make_lods.py"}, "scene": 0, "scenes": [{"name": "Scene", "nodes": [0, 1, 2, 3]}], "nodes": [{"mesh": 0, "name": "potted_plant_01_stem"}, {"mesh": 1, "name": "potted_plant_01_pebbles", "scale": [1.0021867752075195, 1.0021867752075195, 1.0021867752075195], "translation": [0, -0.013706685975193977, 0]}, {"mesh": 2, "name": "potted_plant_01_pot"}, {"mesh": 3, "name": "potted_plant_01_leaves"}], "meshes": [{"primitives": [{"attributes": {"POSITION": 0, "NORMAL": 1, "TEXCOORD_0": 2}, "indices": 3, "mode": 4, "material": 0}]}, {"primitives": [{"attributes": {"POSITION": 4, "NORMAL": 5, "TEXCOORD_0": 6}, "indices": 7, "mode": 4, "material": 0}]}, {"primitives": [{"attributes": {"POSITION": 8, "NORMAL": 9, "TEXCOORD_0": 10}, "indices": 11, "mode": 4, "material": 0}]}, {"primitives": [{"attributes": {"POSITION": 12, "NORMAL": 13, "TEXCOORD_0": 14}, "indices": 15, "mode": 4, "material": 1}]}], "accessors": [{"bufferView": 0, "componentType": 5126, "count": 325, "type": "VEC3", "min": [-0.2286513014918282, 0.41700179129838943, -0.2143186596599785], "max": [0.13347274972044904, 1.266984224319458, 0.1748929086484407]}, {"bufferView": 1, "componentType": 5126, "count": 325, "type": "VEC3", "min": null, "max": null}, {"bufferView": 2, "componentType": 5126, "count": 325, "type": "VEC2", "min": null, "max": null}, {"bufferView": 3, "componentType": 5123, "count": 1404, "type": "SCALAR"}, {"bufferView": 4, "componentType": 5126, "count": 2051, "type": "VEC3", "min": [-0.21218077838420868, 6.146728992462158e-08, -0.21120022122676557], "max": [0.20838353037834167, 0.5428022146224976, 0.2088041976094246]}, {"bufferView": 5, "componentType": 5126, "count": 2051, "type": "VEC3", "min": null, "max": null}, {"bufferView": 6, "componentType": 5126, "count": 2051, "type": "VEC2", "min": null, "max": null}, {"bufferView": 7, "componentType": 5123, "count": 39390, "type": "SCALAR"}, {"bufferView": 8, "componentType": 5126, "count": 1366, "type": "VEC3", "min": [-0.23027478158473969, 0.0, -0.23027480244636536], "max": [0.230544313788414, 0.53143310546875, 0.23054424673318863]}, {"bufferView": 9, "componentType": 5126, "count": 1366, "type": "VEC3", "min": null, "max": null}, {"bufferView": 10, "componentType": 5126, "count": 1366, "type": "VEC2", "min": null, "max": null}, {"bufferView": 11, "componentType": 5123, "count": 8454, "type": "SCALAR"}, {"bufferView": 12, "componentType": 5126, "count": 2722, "type": "VEC3", "min": [-0.33734647432963055, 0.5871716652597699, -0.35249371563687043], "max": [0.24879038333892822, 1.336457371711731, 0.268095962703228]}, {"bufferView": 13, "componentType": 5126, "count": 2722, "type": "VEC3", "min": null, "max": null}, {"bufferView": 14, "componentType": 5126, "count": 2722, "type": "VEC2", "min": null, "max": null}, {"bufferView": 15, "componentType": 5123, "count": 10047, "type": "SCALAR"}], "bufferViews": [{"buffer": 0, "byteOffset": 0, "byteLength": 3900, "target": 34962}, {"buffer": 0, "byteOffset": 3900, "byteLength": 3900, "target": 34962}, {"buffer": 0, "byteOffset": 7800, "byteLength": 2600, "target": 34962}, {"buffer": 0, "byteOffset": 10400, "byteLength": 2808, "target": 34963}, {"buffer": 0, "byteOffset": 13208, "byteLength": 24612, "target": 34962}, {"buffer": 0, "byteOffset": 37820, "byteLength": 24612, "target": 34962}, {"buffer": 0, "byteOffset": 62432, "byteLength": 16408, "target": 34962}, {"buffer": 0, "byteOffset": 78840, "byteLength": 78780, "target": 34963}, {"buffer": 0, "byteOffset": 157620, "byteLength": 16392, "target": 34962}, {"buffer": 0, "byteOffset": 174012, "byteLength": 16392, "target": 34962}, {"buffer": 0, "byteOffset": 190404, "byteLength": 10928, "target": 34962}, {"buffer": 0, "byteOffset": 201332, "byteLength": 16908, "target": 34963}, {"buffer": 0, "byteOffset": 218240, "byteLength": 32664, "target": 34962}, {"buffer": 0, "byteOffset": 250904, "byteLength": 32664, "target": 34962}, {"buffer": 0, "byteOffset": 283568, "byteLength": 21776, "target": 34962}, {"buffer": 0, "byteOffset": 305344, "byteLength": 20094, "target": 34963}], "buffers": [{"byteLength": 325438, "uri": "lod0.bin"}], "images": [{"mimeType": "image/jpeg", "name": "potted_plant_01_pot_nor_gl", "uri": "potted_plant_01_pot_nor_gl_1k.jpg"}, {"mimeType": "image/jpeg", "name": "potted_plant_01_pot_diff", "uri": "potted_plant_01_pot_diff_1k.jpg"}, {"mimeType": "image/jpeg", "name": "potted_plant_01_pot_rough", "uri": "potted_plant_01_pot_rough_1k.jpg"}, {"mimeType": "image/jpeg", "name": "potted_plant_01_leaves_nor_gl.png", "uri": "potted_plant_01_leaves_nor_gl_1k.jpg"}, {"mimeType": "image/jpeg", "name": "potted_plant_01_leaves_diff.png", "uri": "potted_plant_01_leaves_diff_1k.jpg"}, {"mimeType": "image/jpeg", "name": "potted_plant_01_leaves_rough.png", "uri": "potted_plant_01_leaves_rough_1k.jpg"}], "samplers": [{"magFilter": 9729, "minFilter": 9987}], "textures": [{"sampler": 0, "source": 0}, {"sampler": 0, "source": 1}, {"sampler": 0, "source": 2}, {"sampler": 0, "source": 3}, {"sampler": 0, "source": 4}, {"sampler": 0, "source": 5}], "materials": [{"doubleSided": true, "name": "potted_plant_01_pot", "normalTexture": {"index": 0}, "pbrMetallicRoughness": {"baseColorTexture": {"index": 1}, "metallicFactor": 0, "metallicRoughnessTexture": {"index": 2}}}, {"alphaCutoff": 0.5, "alphaMode": "MASK", "doubleSided": true, "name": "potted_plant_01_leaves", "normalTexture": {"index": 3}, "pbrMetallicRoughness": {"baseColorTexture": {"index": 4}, "metallicFactor": 0, "metallicRoughnessTexture": {"index": 5}}}]}