{"asset": {"version": "2.0", "generator": "EMERGENT tools/make_lods.py"}, "scene": 0, "scenes": [{"name": "Scene", "nodes": [0, 1, 2, 3]}], "nodes": [{"mesh": 0, "name": "potted_plant_01_stem"}, {"mesh": 1, "name": "potted_plant_01_pebbles", "scale": [1.0021867752075195, 1.0021867752075195, 1.0021867752075195], "translation": [0, -0.013706685975193977, 0]}, {"mesh": 2, "name": "potted_plant_01_pot"}, {"mesh": 3, "name": "potted_plant_01_leaves"}], "meshes": [{"primitives": [{"attributes": {"POSITION": 0, "NORMAL": 1, "TEXCOORD_0": 2}, "indices": 3, "mode": 4, "material": 0}]}, {"primitives": [{"attributes": {"POSITION": 4, "NORMAL": 5, "TEXCOORD_0": 6}, "indices": 7, "mode": 4, "material": 0}]}, {"primitives": [{"attributes": {"POSITION": 8, "NORMAL": 9, "TEXCOORD_0": 10}, "indices": 11, "mode": 4, "material": 0}]}, {"primitives": [{"attributes": {"POSITION": 12, "NORMAL": 13, "TEXCOORD_0": 14}, "indices": 15, "mode": 4, "material": 1}]}], "accessors": [{"bufferView": 0, "componentType": 5126, "count": 165, "type": "VEC3", "min": [-0.21773690233627954, 0.4321665043632189, -0.2092124967961698], "max": [0.1255334408045906, 1.266984224319458, 0.1747166530866372]}, {"bufferView": 1, "componentType": 5126, "count": 165, "type": "VEC3", "min": null, "max": null}, {"bufferView": 2, "componentType": 5126, "count": 165, "type": "VEC2", "min": null, "max": null}, {"bufferView": 3, "componentType": 5123, "count": 378, "type": "SCALAR"}, {"bufferView": 4, "componentType": 5126, "count": 833, "type": "VEC3", "min": [-0.20444846153259277, 6.146728992462158e-08, -0.2091163545846939], "max": [0.20549312233924866, 0.5428022146224976, 0.20546213537454605]}, {"bufferView": 5, "componentType": 5126, "count": 833, "type": "VEC3", "min": null, "max": null}, {"bufferView": 6, "componentType": 5126, "count": 833, "type": "VEC2", "min": null, "max": null}, {"bufferView": 7, "componentType": 5123, "count": 15552, "type": "SCALAR"}, {"bufferView": 8, "componentType": 5126, "count": 1108, "type": "VEC3", "min": [-0.2290263452700206, 0.0, -0.22902635591370718], "max": [0.230544313788414, 0.53143310546875, 0.23054424673318863]}, {"bufferView": 9, "componentType": 5126, "count": 1108, "type": "VEC3", "min": null, "max": null}, {"bufferView": 10, "componentType": 5126, "count": 1108, "type": "VEC2", "min": null, "max": null}, {"bufferView": 11, "componentType": 5123, "count": 6906, "type": "SCALAR"}, {"bufferView": 12, "componentType": 5126, "count": 1307, "type": "VEC3", "min": [-0.33424385213384444, 0.5871716652597699, -0.3423788706628548], "max": [0.24826914072036743, 1.336457371711731, 0.266062892973423]}, {"bufferView": 13, "componentType": 5126, "count": 1307, "type": "VEC3", "min": null, "max": null}, {"bufferView": 14, "componentType": 5126, "count": 1307, "type": "VEC2", "min": null, "max": null}, {"bufferView": 15, "componentType": 5123, "count": 3696, "type": "SCALAR"}], "bufferViews": [{"buffer": 0, "byteOffset": 0, "byteLength": 1980, "target": 34962}, {"buffer": 0, "byteOffset": 1980, "byteLength": 1980, "target": 34962}, {"buffer": 0, "byteOffset": 3960, "byteLength": 1320, "target": 34962}, {"buffer": 0, "byteOffset": 5280, "byteLength": 756, "target": 34963}, {"buffer": 0, "byteOffset": 6036, "byteLength": 9996, "target": 34962}, {"buffer": 0, "byteOffset": 16032, "byteLength": 9996, "target": 34962}, {"buffer": 0, "byteOffset": 26028, "byteLength": 6664, "target": 34962}, {"buffer": 0, "byteOffset": 32692, "byteLength": 31104, "target": 34963}, {"buffer": 0, "byteOffset": 63796, "byteLength": 13296, "target": 34962}, {"buffer": 0, "byteOffset": 77092, "byteLength": 13296, "target": 34962}, {"buffer": 0, "byteOffset": 90388, "byteLength": 8864, "target": 34962}, {"buffer": 0, "byteOffset": 99252, "byteLength": 13812, "target": 34963}, {"buffer": 0, "byteOffset": 113064, "byteLength": 15684, "target": 34962}, {"buffer": 0, "byteOffset": 128748, "byteLength": 15684, "target": 34962}, {"buffer": 0, "byteOffset": 144432, "byteLength": 10456, "target": 34962}, {"buffer": 0, "byteOffset": 154888, "byteLength": 7392, "target": 34963}], "buffers": [{"byteLength": 162280, "uri": "lod1.bin"}], "images": [{"mimeType": "image/jpeg", "name": "potted_plant_01_pot_nor_gl", "uri": "potted_plant_01_pot_nor_gl_1k.jpg"}, {"mimeType": "image/jpeg", "name": "potted_plant_01_pot_diff", "uri": "potted_plant_01_pot_diff_1k.jpg"}, {"mimeType": "image/jpeg", "name": "potted_plant_01_pot_rough", "uri": "potted_plant_01_pot_rough_1k.jpg"}, {"mimeType": "image/jpeg", "name": "potted_plant_01_leaves_nor_gl.png", "uri": "potted_plant_01_leaves_nor_gl_1k.jpg"}, {"mimeType": "image/jpeg", "name": "potted_plant_01_leaves_diff.png", "uri": "potted_plant_01_leaves_diff_1k.jpg"}, {"mimeType": "image/jpeg", "name": "potted_plant_01_leaves_rough.png", "uri": "potted_plant_01_leaves_rough_1k.jpg"}], "samplers": [{"magFilter": 9729, "minFilter": 9987}], "textures": [{"sampler": 0, "source": 0}, {"sampler": 0, "source": 1}, {"sampler": 0, "source": 2}, {"sampler": 0, "source": 3}, {"sampler": 0, "source": 4}, {"sampler": 0, "source": 5}], "materials": [{"doubleSided": true, "name": "potted_plant_01_pot", "normalTexture": {"index": 0}, "pbrMetallicRoughness": {"baseColorTexture": {"index": 1}, "metallicFactor": 0, "metallicRoughnessTexture": {"index": 2}}}, {"alphaCutoff": 0.5, "alphaMode": "MASK", "doubleSided": true, "name": "potted_plant_01_leaves", "normalTexture": {"index": 3}, "pbrMetallicRoughness": {"baseColorTexture": {"index": 4}, "metallicFactor": 0, "metallicRoughnessTexture": {"index": 5}}}]}