{"asset": {"version": "2.0", "generator": "EMERGENT tools/make_lods.py"}, "scene": 0, "scenes": [{"name": "Scene", "nodes": [0, 1, 2, 3]}], "nodes": [{"mesh": 0, "name": "potted_plant_01_stem"}, {"mesh": 1, "name": "potted_plant_01_pebbles", "scale": [1.0021867752075195, 1.0021867752075195, 1.0021867752075195], "translation": [0, -0.013706685975193977, 0]}, {"mesh": 2, "name": "potted_plant_01_pot"}, {"mesh": 3, "name": "potted_plant_01_leaves"}], "meshes": [{"primitives": [{"attributes": {"POSITION": 0, "NORMAL": 1, "TEXCOORD_0": 2}, "indices": 3, "mode": 4, "material": 0}]}, {"primitives": [{"attributes": {"POSITION": 4, "NORMAL": 5, "TEXCOORD_0": 6}, "indices": 7, "mode": 4, "material": 0}]}, {"primitives": [{"attributes": {"POSITION": 8, "NORMAL": 9, "TEXCOORD_0": 10}, "indices": 11, "mode": 4, "material": 0}]}, {"primitives": [{"attributes": {"POSITION": 12, "NORMAL": 13, "TEXCOORD_0": 14}, "indices": 15, "mode": 4, "material": 1}]}], "accessors": [{"bufferView": 0, "componentType": 5126, "count": 39, "type": "VEC3", "min": [-0.21443139218507454, 0.46260578860011364, -0.17017201841229707], "max": [0.11751346593863796, 1.266984224319458, 0.17426608668433297]}, {"bufferView": 1, "componentType": 5126, "count": 39, "type": "VEC3", "min": null, "max": null}, {"bufferView": 2, "componentType": 5126, "count": 39, "type": "VEC2", "min": null, "max": null}, {"bufferView": 3, "componentType": 5123, "count": 24, "type": "SCALAR"}, {"bufferView": 4, "componentType": 5126, "count": 42, "type": "VEC3", "min": [-0.1774262940222322, 6.146728992462158e-08, -0.1759998792447211], "max": [0.20549312233924866, 0.5428022146224976, 0.20317016678821279]}, {"bufferView": 5, "componentType": 5126, "count": 42, "type": "VEC3", "min": null, "max": null}, {"bufferView": 6, "componentType": 5126, "count": 42, "type": "VEC2", "min": null, "max": null}, {"bufferView": 7, "componentType": 5123, "count": 1002, "type": "SCALAR"}, {"bufferView": 8, "componentType": 5126, "count": 219, "type": "VEC3", "min": [-0.22050116170375117, 0.011167687224557693, -0.22050118535047486], "max": [0.22217880256828806, 0.53143310546875, 0.2221787500653475]}, {"bufferView": 9, "componentType": 5126, "count": 219, "type": "VEC3", "min": null, "max": null}, {"bufferView": 10, "componentType": 5126, "count": 219, "type": "VEC2", "min": null, "max": null}, {"bufferView": 11, "componentType": 5123, "count": 1860, "type": "SCALAR"}, {"bufferView": 12, "componentType": 5126, "count": 151, "type": "VEC3", "min": [-0.3045380907463108, 0.6092967101653722, -0.30207346474023006], "max": [0.24007321894168854, 1.336457371711731, 0.2551331080895718]}, {"bufferView": 13, "componentType": 5126, "count": 151, "type": "VEC3", "min": null, "max": null}, {"bufferView": 14, "componentType": 5126, "count": 151, "type": "VEC2", "min": null, "max": null}, {"bufferView": 15, "componentType": 5123, "count": 273, "type": "SCALAR"}], "bufferViews": [{"buffer": 0, "byteOffset": 0, "byteLength": 468, "target": 34962}, {"buffer": 0, "byteOffset": 468, "byteLength": 468, "target": 34962}, {"buffer": 0, "byteOffset": 936, "byteLength": 312, "target": 34962}, {"buffer": 0, "byteOffset": 1248, "byteLength": 48, "target": 34963}, {"buffer": 0, "byteOffset": 1296, "byteLength": 504, "target": 34962}, {"buffer": 0, "byteOffset": 1800, "byteLength": 504, "target": 34962}, {"buffer": 0, "byteOffset": 2304, "byteLength": 336, "target": 34962}, {"buffer": 0, "byteOffset": 2640, "byteLength": 2004, "target": 34963}, {"buffer": 0, "byteOffset": 4644, "byteLength": 2628, "target": 34962}, {"buffer": 0, "byteOffset": 7272, "byteLength": 2628, "target": 34962}, {"buffer": 0, "byteOffset": 9900, "byteLength": 1752, "target": 34962}, {"buffer": 0, "byteOffset": 11652, "byteLength": 3720, "target": 34963}, {"buffer": 0, "byteOffset": 15372, "byteLength": 1812, "target": 34962}, {"buffer": 0, "byteOffset": 17184, "byteLength": 1812, "target": 34962}, {"buffer": 0, "byteOffset": 18996, "byteLength": 1208, "target": 34962}, {"buffer": 0, "byteOffset": 20204, "byteLength": 546, "target": 34963}], "buffers": [{"byteLength": 20750, "uri": "lod2.bin"}], "images": [{"mimeType": "image/jpeg", "name": "potted_plant_01_pot_nor_gl", "uri": "potted_plant_01_pot_nor_gl_1k.jpg"}, {"mimeType": "image/jpeg", "name": "potted_plant_01_pot_diff", "uri": "potted_plant_01_pot_diff_1k.jpg"}, {"mimeType": "image/jpeg", "name": "potted_plant_01_pot_rough", "uri": "potted_plant_01_pot_rough_1k.jpg"}, {"mimeType": "image/jpeg", "name": "potted_plant_01_leaves_nor_gl.png", "uri": "potted_plant_01_leaves_nor_gl_1k.jpg"}, {"mimeType": "image/jpeg", "name": "potted_plant_01_leaves_diff.png", "uri": "potted_plant_01_leaves_diff_1k.jpg"}, {"mimeType": "image/jpeg", "name": "potted_plant_01_leaves_rough.png", "uri": "potted_plant_01_leaves_rough_1k.jpg"}], "samplers": [{"magFilter": 9729, "minFilter": 9987}], "textures": [{"sampler": 0, "source": 0}, {"sampler": 0, "source": 1}, {"sampler": 0, "source": 2}, {"sampler": 0, "source": 3}, {"sampler": 0, "source": 4}, {"sampler": 0, "source": 5}], "materials": [{"doubleSided": true, "name": "potted_plant_01_pot", "normalTexture": {"index": 0}, "pbrMetallicRoughness": {"baseColorTexture": {"index": 1}, "metallicFactor": 0, "metallicRoughnessTexture": {"index": 2}}}, {"alphaCutoff": 0.5, "alphaMode": "MASK", "doubleSided": true, "name": "potted_plant_01_leaves", "normalTexture": {"index": 3}, "pbrMetallicRoughness": {"baseColorTexture": {"index": 4}, "metallicFactor": 0, "metallicRoughnessTexture": {"index": 5}}}]}