{"asset": {"version": "2.0", "generator": "EMERGENT tools/make_lods.py"}, "scene": 0, "scenes": [{"name": "Scene", "nodes": [0, 1]}], "nodes": [{"mesh": 0, "name": "Lantern_01"}, {"mesh": 1, "name": "Lantern_01_glass"}], "meshes": [{"primitives": [{"attributes": {"POSITION": 0, "NORMAL": 1, "TEXCOORD_0": 2}, "indices": 3, "mode": 4, "material": 0}]}, {"primitives": [{"attributes": {"POSITION": 4, "NORMAL": 5, "TEXCOORD_0": 6}, "indices": 7, "mode": 4, "material": 1}]}], "accessors": [{"bufferView": 0, "componentType": 5126, "count": 7388, "type": "VEC3", "min": [-0.10366989521398431, 0.0, -0.08216521696371286], "max": [0.10377114328245324, 0.5004194115294891, 0.08216517895054656]}, {"bufferView": 1, "componentType": 5126, "count": 7388, "type": "VEC3", "min": null, "max": null}, {"bufferView": 2, "componentType": 5126, "count": 7388, "type": "VEC2", "min": null, "max": null}, {"bufferView": 3, "componentType": 5123, "count": 49770, "type": "SCALAR"}, {"bufferView": 4, "componentType": 5126, "count": 1536, "type": "VEC3", "min": [-0.05993947107978419, 0.10439354394163405, -0.060017835222133976], "max": [0.060040624115337324, 0.22051739348035282, 0.059962272644042976]}, {"bufferView": 5, "componentType": 5126, "count": 1536, "type": "VEC3", "min": null, "max": null}, {"bufferView": 6, "componentType": 5126, "count": 1536, "type": "VEC2", "min": null, "max": null}, {"bufferView": 7, "componentType": 5123, "count": 9216, "type": "SCALAR"}], "bufferViews": [{"buffer": 0, "byteOffset": 0, "byteLength": 88656, "target": 34962}, {"buffer": 0, "byteOffset": 88656, "byteLength": 88656, "target": 34962}, {"buffer": 0, "byteOffset": 177312, "byteLength": 59104, "target": 34962}, {"buffer": 0, "byteOffset": 236416, "byteLength": 99540, "target": 34963}, {"buffer": 0, "byteOffset": 335956, "byteLength": 18432, "target": 34962}, {"buffer": 0, "byteOffset": 354388, "byteLength": 18432, "target": 34962}, {"buffer": 0, "byteOffset": 372820, "byteLength": 12288, "target": 34962}, {"buffer": 0, "byteOffset": 385108, "byteLength": 18432, "target": 34963}], "buffers": [{"byteLength": 403540, "uri": "lod0.bin"}], "images": [{"mimeType": "image/jpeg", "name": "Lantern_01_brass_nor_gl", "uri": "Lantern_01_brass_nor_gl_1k.jpg"}, {"mimeType": "image/jpeg", "name": "Lantern_01_brass_diff", "uri": "Lantern_01_brass_diff_1k.jpg"}, {"mimeType": "image/jpeg", "name": "Lantern_01_brass_metallic-Lantern_01_brass_roughness", "uri": "Lantern_01_brass_arm_1k.jpg"}, {"mimeType": "image/jpeg", "name": "Lantern_01_brass_diff-Lantern_01_brass_opacity", "uri": "Lantern_01_brass_diff_1k.jpg"}], "samplers": [{"magFilter": 9729, "minFilter": 9987}], "textures": [{"sampler": 0, "source": 0}, {"sampler": 0, "source": 1}, {"sampler": 0, "source": 2}, {"sampler": 0, "source": 0}, {"sampler": 0, "source": 3}, {"sampler": 0, "source": 2}], "materials": [{"alphaMode": "OPAQUE", "doubleSided": true, "extensions": {"KHR_materials_transmission": {"transmissionFactor": 1}}, "name": "Lantern_01_brass", "normalTexture": {"index": 0}, "pbrMetallicRoughness": {"baseColorTexture": {"index": 1}, "metallicRoughnessTexture": {"index": 2}}}, {"alphaMode": "BLEND", "doubleSided": true, "name": "Lantern_01_glass", "normalTexture": {"index": 3}, "pbrMetallicRoughness": {"baseColorTexture": {"index": 4}, "metallicRoughnessTexture": {"index": 5}}}]}