{"asset": {"version": "2.0", "generator": "EMERGENT tools/make_lods.py"}, "scene": 0, "scenes": [{"name": "Scene", "nodes": [0, 1]}], "nodes": [{"mesh": 0, "name": "Lantern_01"}, {"mesh": 1, "name": "Lantern_01_glass"}], "meshes": [{"primitives": [{"attributes": {"POSITION": 0, "NORMAL": 1, "TEXCOORD_0": 2}, "indices": 3, "mode": 4, "material": 0}]}, {"primitives": [{"attributes": {"POSITION": 4, "NORMAL": 5, "TEXCOORD_0": 6}, "indices": 7, "mode": 4, "material": 1}]}], "accessors": [{"bufferView": 0, "componentType": 5126, "count": 72, "type": "VEC3", "min": [-0.08531919873138584, 0.0, -0.07187830946361194], "max": [0.08568344541409323, 0.5004194115294891, 0.07153957877526357]}, {"bufferView": 1, "componentType": 5126, "count": 72, "type": "VEC3", "min": null, "max": null}, {"bufferView": 2, "componentType": 5126, "count": 72, "type": "VEC2", "min": null, "max": null}, {"bufferView": 3, "componentType": 5123, "count": 624, "type": "SCALAR"}, {"bufferView": 4, "componentType": 5126, "count": 297, "type": "VEC3", "min": [-0.058720236783530444, 0.10931501777466733, -0.05879859775811637], "max": [0.05882138665131971, 0.21611165061018636, 0.059962272644042976]}, {"bufferView": 5, "componentType": 5126, "count": 297, "type": "VEC3", "min": null, "max": null}, {"bufferView": 6, "componentType": 5126, "count": 297, "type": "VEC2", "min": null, "max": null}, {"bufferView": 7, "componentType": 5123, "count": 2958, "type": "SCALAR"}], "bufferViews": [{"buffer": 0, "byteOffset": 0, "byteLength": 864, "target": 34962}, {"buffer": 0, "byteOffset": 864, "byteLength": 864, "target": 34962}, {"buffer": 0, "byteOffset": 1728, "byteLength": 576, "target": 34962}, {"buffer": 0, "byteOffset": 2304, "byteLength": 1248, "target": 34963}, {"buffer": 0, "byteOffset": 3552, "byteLength": 3564, "target": 34962}, {"buffer": 0, "byteOffset": 7116, "byteLength": 3564, "target": 34962}, {"buffer": 0, "byteOffset": 10680, "byteLength": 2376, "target": 34962}, {"buffer": 0, "byteOffset": 13056, "byteLength": 5916, "target": 34963}], "buffers": [{"byteLength": 18972, "uri": "lod2.bin"}], "images": [{"mimeType": "image/jpeg", "name": "Lantern_01_brass_nor_gl", "uri": "Lantern_01_brass_nor_gl_1k.jpg"}, {"mimeType": "image/jpeg", "name": "Lantern_01_brass_diff", "uri": "Lantern_01_brass_diff_1k.jpg"}, {"mimeType": "image/jpeg", "name": "Lantern_01_brass_metallic-Lantern_01_brass_roughness", "uri": "Lantern_01_brass_arm_1k.jpg"}, {"mimeType": "image/jpeg", "name": "Lantern_01_brass_diff-Lantern_01_brass_opacity", "uri": "Lantern_01_brass_diff_1k.jpg"}], "samplers": [{"magFilter": 9729, "minFilter": 9987}], "textures": [{"sampler": 0, "source": 0}, {"sampler": 0, "source": 1}, {"sampler": 0, "source": 2}, {"sampler": 0, "source": 0}, {"sampler": 0, "source": 3}, {"sampler": 0, "source": 2}], "materials": [{"alphaMode": "OPAQUE", "doubleSided": true, "extensions": {"KHR_materials_transmission": {"transmissionFactor": 1}}, "name": "Lantern_01_brass", "normalTexture": {"index": 0}, "pbrMetallicRoughness": {"baseColorTexture": {"index": 1}, "metallicRoughnessTexture": {"index": 2}}}, {"alphaMode": "BLEND", "doubleSided": true, "name": "Lantern_01_glass", "normalTexture": {"index": 3}, "pbrMetallicRoughness": {"baseColorTexture": {"index": 4}, "metallicRoughnessTexture": {"index": 5}}}]}