{"asset": {"version": "2.0", "generator": "EMERGENT tools/make_lods.py"}, "scene": 0, "scenes": [{"name": "Scene", "nodes": [0, 1, 2, 3, 4, 5, 6]}], "nodes": [{"mesh": 0, "name": "metal_tool_chest_chest", "translation": [-0.026742221787571907, 0.19080910086631775, 0.02674218639731407]}, {"mesh": 1, "name": "metal_tool_chest_hinge_chest", "translation": [-0.026742219924926758, 0.32267966866493225, 0.009747087955474854]}, {"mesh": 2, "name": "metal_tool_chest_lid", "translation": [-0.026742205023765564, 0.3450417220592499, -0.12888431549072266]}, {"mesh": 3, "name": "metal_tool_chest_handle_left", "translation": [-0.3631300628185272, 0.21811121702194214, 0.026742160320281982]}, {"mesh": 4, "name": "metal_tool_chest_lock", "translation": [-0.02674223482608795, 0.3034884035587311, 0.1832839399576187]}, {"mesh": 5, "name": "metal_tool_chest_hinge_lid", "translation": [-0.02674219012260437, 0.47680288553237915, -0.14437337219715118]}, {"mesh": 6, "name": "metal_tool_chest_handle_right", "translation": [0.3096456825733185, 0.21811112761497498, 0.02674219012260437]}], "meshes": [{"primitives": [{"attributes": {"POSITION": 0, "NORMAL": 1, "TEXCOORD_0": 2}, "indices": 3, "mode": 4, "material": 0}]}, {"primitives": [{"attributes": {"POSITION": 4, "NORMAL": 5, "TEXCOORD_0": 6}, "indices": 7, "mode": 4, "material": 0}]}, {"primitives": [{"attributes": {"POSITION": 8, "NORMAL": 9, "TEXCOORD_0": 10}, "indices": 11, "mode": 4, "material": 0}]}, {"primitives": [{"attributes": {"POSITION": 12, "NORMAL": 13, "TEXCOORD_0": 14}, "indices": 15, "mode": 4, "material": 0}]}, {"primitives": [{"attributes": {"POSITION": 16, "NORMAL": 17, "TEXCOORD_0": 18}, "indices": 19, "mode": 4, "material": 0}]}, {"primitives": [{"attributes": {"POSITION": 20, "NORMAL": 21, "TEXCOORD_0": 22}, "indices": 23, "mode": 4, "material": 0}]}, {"primitives": [{"attributes": {"POSITION": 24, "NORMAL": 25, "TEXCOORD_0": 26}, "indices": 27, "mode": 4, "material": 0}]}], "accessors": [{"bufferView": 0, "componentType": 5126, "count": 5568, "type": "VEC3", "min": [-0.3426942229270935, -0.19000005722045898, -0.16089928150177002], "max": [0.3426941931247711, 0.15791602432727814, 0.1547558605670929]}, {"bufferView": 1, "componentType": 5126, "count": 5568, "type": "VEC3", "min": null, "max": null}, {"bufferView": 2, "componentType": 5126, "count": 5568, "type": "VEC2", "min": null, "max": null}, {"bufferView": 3, "componentType": 5123, "count": 17730, "type": "SCALAR"}, {"bufferView": 4, "componentType": 5126, "count": 915, "type": "VEC3", "min": [-0.3323494493961334, -0.007084783632308245, -0.08315195143222809], "max": [0.3323494493961334, 0.09029656648635864, 0.007086077239364386]}, {"bufferView": 5, "componentType": 5126, "count": 915, "type": "VEC3", "min": null, "max": null}, {"bufferView": 6, "componentType": 5126, "count": 915, "type": "VEC2", "min": null, "max": null}, {"bufferView": 7, "componentType": 5123, "count": 3654, "type": "SCALAR"}, {"bufferView": 8, "componentType": 5126, "count": 1844, "type": "VEC3", "min": [-0.33009499311447144, -0.005073436535894871, -0.06853816658258438], "max": [0.33018815517425537, 0.3076028823852539, 0.009295083582401276]}, {"bufferView": 9, "componentType": 5126, "count": 1844, "type": "VEC3", "min": null, "max": null}, {"bufferView": 10, "componentType": 5126, "count": 1844, "type": "VEC2", "min": null, "max": null}, {"bufferView": 11, "componentType": 5123, "count": 7428, "type": "SCALAR"}, {"bufferView": 12, "componentType": 5126, "count": 333, "type": "VEC3", "min": [-0.004378555342555046, -0.06238005310297012, -0.06537967175245285], "max": [0.004384596832096577, 0.004022359848022461, 0.06537967175245285]}, {"bufferView": 13, "componentType": 5126, "count": 333, "type": "VEC3", "min": null, "max": null}, {"bufferView": 14, "componentType": 5126, "count": 333, "type": "VEC2", "min": null, "max": null}, {"bufferView": 15, "componentType": 5123, "count": 1728, "type": "SCALAR"}, {"bufferView": 16, "componentType": 5126, "count": 900, "type": "VEC3", "min": [-0.013598690740764141, -0.013598690740764141, -0.028757482767105103], "max": [0.04164601489901543, 0.013598690740764141, 0.026446837931871414]}, {"bufferView": 17, "componentType": 5126, "count": 900, "type": "VEC3", "min": null, "max": null}, {"bufferView": 18, "componentType": 5126, "count": 900, "type": "VEC2", "min": null, "max": null}, {"bufferView": 19, "componentType": 5123, "count": 3048, "type": "SCALAR"}, {"bufferView": 20, "componentType": 5126, "count": 1180, "type": "VEC3", "min": [-0.3321230113506317, -0.10094894468784332, -0.007086094934493303], "max": [0.3321229815483093, 0.0070847016759216785, 0.10094752162694931]}, {"bufferView": 21, "componentType": 5126, "count": 1180, "type": "VEC3", "min": null, "max": null}, {"bufferView": 22, "componentType": 5126, "count": 1180, "type": "VEC2", "min": null, "max": null}, {"bufferView": 23, "componentType": 5123, "count": 4764, "type": "SCALAR"}, {"bufferView": 24, "componentType": 5126, "count": 333, "type": "VEC3", "min": [-0.004384639672935009, -0.06238005310297012, -0.06537967175245285], "max": [0.0043784319423139095, 0.004022359848022461, 0.06537967175245285]}, {"bufferView": 25, "componentType": 5126, "count": 333, "type": "VEC3", "min": null, "max": null}, {"bufferView": 26, "componentType": 5126, "count": 333, "type": "VEC2", "min": null, "max": null}, {"bufferView": 27, "componentType": 5123, "count": 1728, "type": "SCALAR"}], "bufferViews": [{"buffer": 0, "byteOffset": 0, "byteLength": 66816, "target": 34962}, {"buffer": 0, "byteOffset": 66816, "byteLength": 66816, "target": 34962}, {"buffer": 0, "byteOffset": 133632, "byteLength": 44544, "target": 34962}, {"buffer": 0, "byteOffset": 178176, "byteLength": 35460, "target": 34963}, {"buffer": 0, "byteOffset": 213636, "byteLength": 10980, "target": 34962}, {"buffer": 0, "byteOffset": 224616, "byteLength": 10980, "target": 34962}, {"buffer": 0, "byteOffset": 235596, "byteLength": 7320, "target": 34962}, {"buffer": 0, "byteOffset": 242916, "byteLength": 7308, "target": 34963}, {"buffer": 0, "byteOffset": 250224, "byteLength": 22128, "target": 34962}, {"buffer": 0, "byteOffset": 272352, "byteLength": 22128, "target": 34962}, {"buffer": 0, "byteOffset": 294480, "byteLength": 14752, "target": 34962}, {"buffer": 0, "byteOffset": 309232, "byteLength": 14856, "target": 34963}, {"buffer": 0, "byteOffset": 324088, "byteLength": 3996, "target": 34962}, {"buffer": 0, "byteOffset": 328084, "byteLength": 3996, "target": 34962}, {"buffer": 0, "byteOffset": 332080, "byteLength": 2664, "target": 34962}, {"buffer": 0, "byteOffset": 334744, "byteLength": 3456, "target": 34963}, {"buffer": 0, "byteOffset": 338200, "byteLength": 10800, "target": 34962}, {"buffer": 0, "byteOffset": 349000, "byteLength": 10800, "target": 34962}, {"buffer": 0, "byteOffset": 359800, "byteLength": 7200, "target": 34962}, {"buffer": 0, "byteOffset": 367000, "byteLength": 6096, "target": 34963}, {"buffer": 0, "byteOffset": 373096, "byteLength": 14160, "target": 34962}, {"buffer": 0, "byteOffset": 387256, "byteLength": 14160, "target": 34962}, {"buffer": 0, "byteOffset": 401416, "byteLength": 9440, "target": 34962}, {"buffer": 0, "byteOffset": 410856, "byteLength": 9528, "target": 34963}, {"buffer": 0, "byteOffset": 420384, "byteLength": 3996, "target": 34962}, {"buffer": 0, "byteOffset": 424380, "byteLength": 3996, "target": 34962}, {"buffer": 0, "byteOffset": 428376, "byteLength": 2664, "target": 34962}, {"buffer": 0, "byteOffset": 431040, "byteLength": 3456, "target": 34963}], "buffers": [{"byteLength": 434496, "uri": "lod0.bin"}], "images": [{"mimeType": "image/jpeg", "name": "metal_tool_chest_nor_gl", "uri": "metal_tool_chest_nor_gl_1k.jpg"}, {"mimeType": "image/jpeg", "name": "metal_tool_chest_diff", "uri": "metal_tool_chest_diff_1k.jpg"}, {"mimeType": "image/jpeg", "name": "metal_tool_chest_metal-metal_tool_chest_rough", "uri": "metal_tool_chest_arm_1k.jpg"}], "samplers": [{"magFilter": 9729, "minFilter": 9987}], "textures": [{"sampler": 0, "source": 0}, {"sampler": 0, "source": 1}, {"sampler": 0, "source": 2}], "materials": [{"doubleSided": true, "name": "metal_tool_chest", "normalTexture": {"index": 0}, "pbrMetallicRoughness": {"baseColorTexture": {"index": 1}, "metallicRoughnessTexture": {"index": 2}}}]}