{"asset": {"version": "2.0", "generator": "EMERGENT tools/make_lods.py"}, "scene": 0, "scenes": [{"name": "Scene", "nodes": [0, 1, 2, 3, 4, 5, 6]}], "nodes": [{"mesh": 0, "name": "metal_tool_chest_chest", "translation": [-0.026742221787571907, 0.19080910086631775, 0.02674218639731407]}, {"mesh": 1, "name": "metal_tool_chest_hinge_chest", "translation": [-0.026742219924926758, 0.32267966866493225, 0.009747087955474854]}, {"mesh": 2, "name": "metal_tool_chest_lid", "translation": [-0.026742205023765564, 0.3450417220592499, -0.12888431549072266]}, {"mesh": 3, "name": "metal_tool_chest_handle_left", "translation": [-0.3631300628185272, 0.21811121702194214, 0.026742160320281982]}, {"mesh": 4, "name": "metal_tool_chest_lock", "translation": [-0.02674223482608795, 0.3034884035587311, 0.1832839399576187]}, {"mesh": 5, "name": "metal_tool_chest_hinge_lid", "translation": [-0.02674219012260437, 0.47680288553237915, -0.14437337219715118]}, {"mesh": 6, "name": "metal_tool_chest_handle_right", "translation": [0.3096456825733185, 0.21811112761497498, 0.02674219012260437]}], "meshes": [{"primitives": [{"attributes": {"POSITION": 0, "NORMAL": 1, "TEXCOORD_0": 2}, "indices": 3, "mode": 4, "material": 0}]}, {"primitives": [{"attributes": {"POSITION": 4, "NORMAL": 5, "TEXCOORD_0": 6}, "indices": 7, "mode": 4, "material": 0}]}, {"primitives": [{"attributes": {"POSITION": 8, "NORMAL": 9, "TEXCOORD_0": 10}, "indices": 11, "mode": 4, "material": 0}]}, {"primitives": [{"attributes": {"POSITION": 12, "NORMAL": 13, "TEXCOORD_0": 14}, "indices": 15, "mode": 4, "material": 0}]}, {"primitives": [{"attributes": {"POSITION": 16, "NORMAL": 17, "TEXCOORD_0": 18}, "indices": 19, "mode": 4, "material": 0}]}, {"primitives": [{"attributes": {"POSITION": 20, "NORMAL": 21, "TEXCOORD_0": 22}, "indices": 23, "mode": 4, "material": 0}]}, {"primitives": [{"attributes": {"POSITION": 24, "NORMAL": 25, "TEXCOORD_0": 26}, "indices": 27, "mode": 4, "material": 0}]}], "accessors": [{"bufferView": 0, "componentType": 5126, "count": 954, "type": "VEC3", "min": [-0.34111244479815167, -0.1900000423192978, -0.16089874505996704], "max": [0.3426941931247711, 0.15791602432727814, 0.1547558605670929]}, {"bufferView": 1, "componentType": 5126, "count": 954, "type": "VEC3", "min": null, "max": null}, {"bufferView": 2, "componentType": 5126, "count": 954, "type": "VEC2", "min": null, "max": null}, {"bufferView": 3, "componentType": 5123, "count": 6198, "type": "SCALAR"}, {"bufferView": 4, "componentType": 5126, "count": 174, "type": "VEC3", "min": [-0.3323494493961334, -0.005092577077448368, -0.08127896201152068], "max": [0.3323494493961334, 0.08982028296360603, 0.007086077239364386]}, {"bufferView": 5, "componentType": 5126, "count": 174, "type": "VEC3", "min": null, "max": null}, {"bufferView": 6, "componentType": 5126, "count": 174, "type": "VEC2", "min": null, "max": null}, {"bufferView": 7, "componentType": 5123, "count": 1224, "type": "SCALAR"}, {"bufferView": 8, "componentType": 5126, "count": 355, "type": "VEC3", "min": [-0.32959499955177307, -0.005073436535894871, -0.0673875833551089], "max": [0.33018815517425537, 0.3064522941907247, 0.008359020210004278]}, {"bufferView": 9, "componentType": 5126, "count": 355, "type": "VEC3", "min": null, "max": null}, {"bufferView": 10, "componentType": 5126, "count": 355, "type": "VEC2", "min": null, "max": null}, {"bufferView": 11, "componentType": 5123, "count": 2445, "type": "SCALAR"}, {"bufferView": 12, "componentType": 5126, "count": 296, "type": "VEC3", "min": [-0.004378555342555046, -0.06238005310297012, -0.06537967175245285], "max": [0.004384596832096577, 0.004022359848022461, 0.06537967175245285]}, {"bufferView": 13, "componentType": 5126, "count": 296, "type": "VEC3", "min": null, "max": null}, {"bufferView": 14, "componentType": 5126, "count": 296, "type": "VEC2", "min": null, "max": null}, {"bufferView": 15, "componentType": 5123, "count": 1728, "type": "SCALAR"}, {"bufferView": 16, "componentType": 5126, "count": 499, "type": "VEC3", "min": [-0.013598690740764141, -0.013598690740764141, -0.028757482767105103], "max": [0.04164601489901543, 0.013598690740764141, 0.026446837931871414]}, {"bufferView": 17, "componentType": 5126, "count": 499, "type": "VEC3", "min": null, "max": null}, {"bufferView": 18, "componentType": 5126, "count": 499, "type": "VEC2", "min": null, "max": null}, {"bufferView": 19, "componentType": 5123, "count": 3000, "type": "SCALAR"}, {"bufferView": 20, "componentType": 5126, "count": 223, "type": "VEC3", "min": [-0.3321230113506317, -0.10024158358573913, -0.00512884184718132], "max": [0.3321229815483093, 0.0070847016759216785, 0.0999365583062172]}, {"bufferView": 21, "componentType": 5126, "count": 223, "type": "VEC3", "min": null, "max": null}, {"bufferView": 22, "componentType": 5126, "count": 223, "type": "VEC2", "min": null, "max": null}, {"bufferView": 23, "componentType": 5123, "count": 1410, "type": "SCALAR"}, {"bufferView": 24, "componentType": 5126, "count": 296, "type": "VEC3", "min": [-0.004384639672935009, -0.06238005310297012, -0.06537967175245285], "max": [0.0043784319423139095, 0.004022359848022461, 0.06537967175245285]}, {"bufferView": 25, "componentType": 5126, "count": 296, "type": "VEC3", "min": null, "max": null}, {"bufferView": 26, "componentType": 5126, "count": 296, "type": "VEC2", "min": null, "max": null}, {"bufferView": 27, "componentType": 5123, "count": 1728, "type": "SCALAR"}], "bufferViews": [{"buffer": 0, "byteOffset": 0, "byteLength": 11448, "target": 34962}, {"buffer": 0, "byteOffset": 11448, "byteLength": 11448, "target": 34962}, {"buffer": 0, "byteOffset": 22896, "byteLength": 7632, "target": 34962}, {"buffer": 0, "byteOffset": 30528, "byteLength": 12396, "target": 34963}, {"buffer": 0, "byteOffset": 42924, "byteLength": 2088, "target": 34962}, {"buffer": 0, "byteOffset": 45012, "byteLength": 2088, "target": 34962}, {"buffer": 0, "byteOffset": 47100, "byteLength": 1392, "target": 34962}, {"buffer": 0, "byteOffset": 48492, "byteLength": 2448, "target": 34963}, {"buffer": 0, "byteOffset": 50940, "byteLength": 4260, "target": 34962}, {"buffer": 0, "byteOffset": 55200, "byteLength": 4260, "target": 34962}, {"buffer": 0, "byteOffset": 59460, "byteLength": 2840, "target": 34962}, {"buffer": 0, "byteOffset": 62300, "byteLength": 4890, "target": 34963}, {"buffer": 0, "byteOffset": 67192, "byteLength": 3552, "target": 34962}, {"buffer": 0, "byteOffset": 70744, "byteLength": 3552, "target": 34962}, {"buffer": 0, "byteOffset": 74296, "byteLength": 2368, "target": 34962}, {"buffer": 0, "byteOffset": 76664, "byteLength": 3456, "target": 34963}, {"buffer": 0, "byteOffset": 80120, "byteLength": 5988, "target": 34962}, {"buffer": 0, "byteOffset": 86108, "byteLength": 5988, "target": 34962}, {"buffer": 0, "byteOffset": 92096, "byteLength": 3992, "target": 34962}, {"buffer": 0, "byteOffset": 96088, "byteLength": 6000, "target": 34963}, {"buffer": 0, "byteOffset": 102088, "byteLength": 2676, "target": 34962}, {"buffer": 0, "byteOffset": 104764, "byteLength": 2676, "target": 34962}, {"buffer": 0, "byteOffset": 107440, "byteLength": 1784, "target": 34962}, {"buffer": 0, "byteOffset": 109224, "byteLength": 2820, "target": 34963}, {"buffer": 0, "byteOffset": 112044, "byteLength": 3552, "target": 34962}, {"buffer": 0, "byteOffset": 115596, "byteLength": 3552, "target": 34962}, {"buffer": 0, "byteOffset": 119148, "byteLength": 2368, "target": 34962}, {"buffer": 0, "byteOffset": 121516, "byteLength": 3456, "target": 34963}], "buffers": [{"byteLength": 124972, "uri": "lod1.bin"}], "images": [{"mimeType": "image/jpeg", "name": "metal_tool_chest_nor_gl", "uri": "metal_tool_chest_nor_gl_1k.jpg"}, {"mimeType": "image/jpeg", "name": "metal_tool_chest_diff", "uri": "metal_tool_chest_diff_1k.jpg"}, {"mimeType": "image/jpeg", "name": "metal_tool_chest_metal-metal_tool_chest_rough", "uri": "metal_tool_chest_arm_1k.jpg"}], "samplers": [{"magFilter": 9729, "minFilter": 9987}], "textures": [{"sampler": 0, "source": 0}, {"sampler": 0, "source": 1}, {"sampler": 0, "source": 2}], "materials": [{"doubleSided": true, "name": "metal_tool_chest", "normalTexture": {"index": 0}, "pbrMetallicRoughness": {"baseColorTexture": {"index": 1}, "metallicRoughnessTexture": {"index": 2}}}]}