{"asset": {"version": "2.0", "generator": "EMERGENT tools/make_lods.py"}, "scene": 0, "scenes": [{"name": "Scene", "nodes": [0, 1, 2, 3, 4, 5, 6]}], "nodes": [{"mesh": 0, "name": "metal_tool_chest_chest", "translation": [-0.026742221787571907, 0.19080910086631775, 0.02674218639731407]}, {"mesh": 1, "name": "metal_tool_chest_hinge_chest", "translation": [-0.026742219924926758, 0.32267966866493225, 0.009747087955474854]}, {"mesh": 2, "name": "metal_tool_chest_lid", "translation": [-0.026742205023765564, 0.3450417220592499, -0.12888431549072266]}, {"mesh": 3, "name": "metal_tool_chest_handle_left", "translation": [-0.3631300628185272, 0.21811121702194214, 0.026742160320281982]}, {"mesh": 4, "name": "metal_tool_chest_lock", "translation": [-0.02674223482608795, 0.3034884035587311, 0.1832839399576187]}, {"mesh": 5, "name": "metal_tool_chest_hinge_lid", "translation": [-0.02674219012260437, 0.47680288553237915, -0.14437337219715118]}, {"name": "metal_tool_chest_handle_right", "translation": [0.3096456825733185, 0.21811112761497498, 0.02674219012260437]}], "meshes": [{"primitives": [{"attributes": {"POSITION": 0, "NORMAL": 1, "TEXCOORD_0": 2}, "indices": 3, "mode": 4, "material": 0}]}, {"primitives": [{"attributes": {"POSITION": 4, "NORMAL": 5, "TEXCOORD_0": 6}, "indices": 7, "mode": 4, "material": 0}]}, {"primitives": [{"attributes": {"POSITION": 8, "NORMAL": 9, "TEXCOORD_0": 10}, "indices": 11, "mode": 4, "material": 0}]}, {"primitives": [{"attributes": {"POSITION": 12, "NORMAL": 13, "TEXCOORD_0": 14}, "indices": 15, "mode": 4, "material": 0}]}, {"primitives": [{"attributes": {"POSITION": 16, "NORMAL": 17, "TEXCOORD_0": 18}, "indices": 19, "mode": 4, "material": 0}]}, {"primitives": [{"attributes": {"POSITION": 20, "NORMAL": 21, "TEXCOORD_0": 22}, "indices": 23, "mode": 4, "material": 0}]}], "accessors": [{"bufferView": 0, "componentType": 5126, "count": 71, "type": "VEC3", "min": [-0.33484646346833974, -0.18029544844671533, -0.15527083197609798], "max": [0.3426941931247711, 0.15608945861458778, 0.15400723109040595]}, {"bufferView": 1, "componentType": 5126, "count": 71, "type": "VEC3", "min": null, "max": null}, {"bufferView": 2, "componentType": 5126, "count": 71, "type": "VEC2", "min": null, "max": null}, {"bufferView": 3, "componentType": 5123, "count": 390, "type": "SCALAR"}, {"bufferView": 4, "componentType": 5126, "count": 30, "type": "VEC3", "min": [-0.32959499955177307, 0.00037098482015329357, -0.052163895851734914], "max": [0.33018815517425537, 0.30645228922367096, 0.0014008113648742437]}, {"bufferView": 5, "componentType": 5126, "count": 30, "type": "VEC3", "min": null, "max": null}, {"bufferView": 6, "componentType": 5126, "count": 30, "type": "VEC2", "min": null, "max": null}, {"bufferView": 7, "componentType": 5123, "count": 180, "type": "SCALAR"}, {"bufferView": 8, "componentType": 5126, "count": 42, "type": "VEC3", "min": [-0.00043910311069339514, -0.058383106254041195, -0.06233259662985802], "max": [0.004374631447717547, 0.0019425511351077508, 0.06537967175245285]}, {"bufferView": 9, "componentType": 5126, "count": 42, "type": "VEC3", "min": null, "max": null}, {"bufferView": 10, "componentType": 5126, "count": 42, "type": "VEC2", "min": null, "max": null}, {"bufferView": 11, "componentType": 5123, "count": 204, "type": "SCALAR"}, {"bufferView": 12, "componentType": 5126, "count": 189, "type": "VEC3", "min": [-0.013598690740764141, -0.013598690740764141, -0.028157189798851807], "max": [0.04164601489901543, 0.013598690740764141, 0.02546721075971921]}, {"bufferView": 13, "componentType": 5126, "count": 189, "type": "VEC3", "min": null, "max": null}, {"bufferView": 14, "componentType": 5126, "count": 189, "type": "VEC2", "min": null, "max": null}, {"bufferView": 15, "componentType": 5123, "count": 1200, "type": "SCALAR"}, {"bufferView": 16, "componentType": 5126, "count": 9, "type": "VEC3", "min": [-0.3261839271964283, -0.09149076831152385, 1.1878237563703716e-06], "max": [0.3321229815483093, -0.00047928286934860253, 0.09170562326444234]}, {"bufferView": 17, "componentType": 5126, "count": 9, "type": "VEC3", "min": null, "max": null}, {"bufferView": 18, "componentType": 5126, "count": 9, "type": "VEC2", "min": null, "max": null}, {"bufferView": 19, "componentType": 5123, "count": 12, "type": "SCALAR"}, {"bufferView": 20, "componentType": 5126, "count": 44, "type": "VEC3", "min": [-0.0003978233047140141, -0.058383106254041195, -0.06233259662985802], "max": [0.0043784319423139095, 0.0019425511369282945, 0.06537967175245285]}, {"bufferView": 21, "componentType": 5126, "count": 44, "type": "VEC3", "min": null, "max": null}, {"bufferView": 22, "componentType": 5126, "count": 44, "type": "VEC2", "min": null, "max": null}, {"bufferView": 23, "componentType": 5123, "count": 228, "type": "SCALAR"}], "bufferViews": [{"buffer": 0, "byteOffset": 0, "byteLength": 852, "target": 34962}, {"buffer": 0, "byteOffset": 852, "byteLength": 852, "target": 34962}, {"buffer": 0, "byteOffset": 1704, "byteLength": 568, "target": 34962}, {"buffer": 0, "byteOffset": 2272, "byteLength": 780, "target": 34963}, {"buffer": 0, "byteOffset": 3052, "byteLength": 360, "target": 34962}, {"buffer": 0, "byteOffset": 3412, "byteLength": 360, "target": 34962}, {"buffer": 0, "byteOffset": 3772, "byteLength": 240, "target": 34962}, {"buffer": 0, "byteOffset": 4012, "byteLength": 360, "target": 34963}, {"buffer": 0, "byteOffset": 4372, "byteLength": 504, "target": 34962}, {"buffer": 0, "byteOffset": 4876, "byteLength": 504, "target": 34962}, {"buffer": 0, "byteOffset": 5380, "byteLength": 336, "target": 34962}, {"buffer": 0, "byteOffset": 5716, "byteLength": 408, "target": 34963}, {"buffer": 0, "byteOffset": 6124, "byteLength": 2268, "target": 34962}, {"buffer": 0, "byteOffset": 8392, "byteLength": 2268, "target": 34962}, {"buffer": 0, "byteOffset": 10660, "byteLength": 1512, "target": 34962}, {"buffer": 0, "byteOffset": 12172, "byteLength": 2400, "target": 34963}, {"buffer": 0, "byteOffset": 14572, "byteLength": 108, "target": 34962}, {"buffer": 0, "byteOffset": 14680, "byteLength": 108, "target": 34962}, {"buffer": 0, "byteOffset": 14788, "byteLength": 72, "target": 34962}, {"buffer": 0, "byteOffset": 14860, "byteLength": 24, "target": 34963}, {"buffer": 0, "byteOffset": 14884, "byteLength": 528, "target": 34962}, {"buffer": 0, "byteOffset": 15412, "byteLength": 528, "target": 34962}, {"buffer": 0, "byteOffset": 15940, "byteLength": 352, "target": 34962}, {"buffer": 0, "byteOffset": 16292, "byteLength": 456, "target": 34963}], "buffers": [{"byteLength": 16748, "uri": "lod2.bin"}], "images": [{"mimeType": "image/jpeg", "name": "metal_tool_chest_nor_gl", "uri": "metal_tool_chest_nor_gl_1k.jpg"}, {"mimeType": "image/jpeg", "name": "metal_tool_chest_diff", "uri": "metal_tool_chest_diff_1k.jpg"}, {"mimeType": "image/jpeg", "name": "metal_tool_chest_metal-metal_tool_chest_rough", "uri": "metal_tool_chest_arm_1k.jpg"}], "samplers": [{"magFilter": 9729, "minFilter": 9987}], "textures": [{"sampler": 0, "source": 0}, {"sampler": 0, "source": 1}, {"sampler": 0, "source": 2}], "materials": [{"doubleSided": true, "name": "metal_tool_chest", "normalTexture": {"index": 0}, "pbrMetallicRoughness": {"baseColorTexture": {"index": 1}, "metallicRoughnessTexture": {"index": 2}}}]}