{"asset": {"version": "2.0", "generator": "EMERGENT tools/make_lods.py"}, "scene": 0, "scenes": [{"name": "Scene", "nodes": [0, 1, 2, 3]}], "nodes": [{"mesh": 0, "name": "wine_barrel_01_Lid"}, {"mesh": 1, "name": "wine_barrel_01_bung"}, {"mesh": 2, "name": "wine_barrel_01"}, {"mesh": 3, "name": "wine_barrel_01_base"}], "meshes": [{"primitives": [{"attributes": {"POSITION": 0, "NORMAL": 1, "TEXCOORD_0": 2}, "indices": 3, "mode": 4, "material": 0}]}, {"primitives": [{"attributes": {"POSITION": 4, "NORMAL": 5, "TEXCOORD_0": 6}, "indices": 7, "mode": 4, "material": 0}]}, {"primitives": [{"attributes": {"POSITION": 8, "NORMAL": 9, "TEXCOORD_0": 10}, "indices": 11, "mode": 4, "material": 0}]}, {"primitives": [{"attributes": {"POSITION": 12, "NORMAL": 13, "TEXCOORD_0": 14}, "indices": 15, "mode": 4, "material": 0}]}], "accessors": [{"bufferView": 0, "componentType": 5126, "count": 56, "type": "VEC3", "min": [-0.2879868969321251, 0.8220306038856506, -0.2880779355764389], "max": [0.28799187391996384, 0.8373162150382996, 0.2894185185432434]}, {"bufferView": 1, "componentType": 5126, "count": 56, "type": "VEC3", "min": null, "max": null}, {"bufferView": 2, "componentType": 5126, "count": 56, "type": "VEC2", "min": null, "max": null}, {"bufferView": 3, "componentType": 5123, "count": 318, "type": "SCALAR"}, {"bufferView": 4, "componentType": 5126, "count": 86, "type": "VEC3", "min": [-0.02382810413837433, 0.41005033254623413, 0.3429100811481476], "max": [0.028619397431612015, 0.46249890327453613, 0.38508278131484985]}, {"bufferView": 5, "componentType": 5126, "count": 86, "type": "VEC3", "min": null, "max": null}, {"bufferView": 6, "componentType": 5126, "count": 86, "type": "VEC2", "min": null, "max": null}, {"bufferView": 7, "componentType": 5123, "count": 504, "type": "SCALAR"}, {"bufferView": 8, "componentType": 5126, "count": 1586, "type": "VEC3", "min": [-0.3709139823913574, 0.0018278757731119792, -0.3709176778793335], "max": [0.37091706693172455, 0.8719475269317627, 0.37084804972012836]}, {"bufferView": 9, "componentType": 5126, "count": 1586, "type": "VEC3", "min": null, "max": null}, {"bufferView": 10, "componentType": 5126, "count": 1586, "type": "VEC2", "min": null, "max": null}, {"bufferView": 11, "componentType": 5123, "count": 12942, "type": "SCALAR"}, {"bufferView": 12, "componentType": 5126, "count": 56, "type": "VEC3", "min": [-0.2879869192838669, 0.03523290157318115, -0.2880779951810837], "max": [0.2879918962717056, 0.05051851272583008, 0.2894185185432434]}, {"bufferView": 13, "componentType": 5126, "count": 56, "type": "VEC3", "min": null, "max": null}, {"bufferView": 14, "componentType": 5126, "count": 56, "type": "VEC2", "min": null, "max": null}, {"bufferView": 15, "componentType": 5123, "count": 318, "type": "SCALAR"}], "bufferViews": [{"buffer": 0, "byteOffset": 0, "byteLength": 672, "target": 34962}, {"buffer": 0, "byteOffset": 672, "byteLength": 672, "target": 34962}, {"buffer": 0, "byteOffset": 1344, "byteLength": 448, "target": 34962}, {"buffer": 0, "byteOffset": 1792, "byteLength": 636, "target": 34963}, {"buffer": 0, "byteOffset": 2428, "byteLength": 1032, "target": 34962}, {"buffer": 0, "byteOffset": 3460, "byteLength": 1032, "target": 34962}, {"buffer": 0, "byteOffset": 4492, "byteLength": 688, "target": 34962}, {"buffer": 0, "byteOffset": 5180, "byteLength": 1008, "target": 34963}, {"buffer": 0, "byteOffset": 6188, "byteLength": 19032, "target": 34962}, {"buffer": 0, "byteOffset": 25220, "byteLength": 19032, "target": 34962}, {"buffer": 0, "byteOffset": 44252, "byteLength": 12688, "target": 34962}, {"buffer": 0, "byteOffset": 56940, "byteLength": 25884, "target": 34963}, {"buffer": 0, "byteOffset": 82824, "byteLength": 672, "target": 34962}, {"buffer": 0, "byteOffset": 83496, "byteLength": 672, "target": 34962}, {"buffer": 0, "byteOffset": 84168, "byteLength": 448, "target": 34962}, {"buffer": 0, "byteOffset": 84616, "byteLength": 636, "target": 34963}], "buffers": [{"byteLength": 85252, "uri": "lod1.bin"}], "images": [{"mimeType": "image/jpeg", "name": "wine_barrel_01_nor_gl", "uri": "wine_barrel_01_nor_gl_1k.jpg"}, {"mimeType": "image/jpeg", "name": "wine_barrel_01_diff", "uri": "wine_barrel_01_diff_1k.jpg"}, {"mimeType": "image/jpeg", "name": "wine_barrel_01_metal-wine_barrel_01_rough", "uri": "wine_barrel_01_arm_1k.jpg"}], "samplers": [{"magFilter": 9729, "minFilter": 9987}], "textures": [{"sampler": 0, "source": 0}, {"sampler": 0, "source": 1}, {"sampler": 0, "source": 2}], "materials": [{"doubleSided": true, "name": "wine_barrel_01", "normalTexture": {"index": 0}, "pbrMetallicRoughness": {"baseColorTexture": {"index": 1}, "metallicRoughnessTexture": {"index": 2}}}]}