{"asset": {"version": "2.0", "generator": "EMERGENT tools/make_lods.py"}, "scene": 0, "scenes": [{"name": "Scene", "nodes": [0, 1, 2, 3]}], "nodes": [{"mesh": 0, "name": "wine_barrel_01_Lid"}, {"mesh": 1, "name": "wine_barrel_01_bung"}, {"mesh": 2, "name": "wine_barrel_01"}, {"mesh": 3, "name": "wine_barrel_01_base"}], "meshes": [{"primitives": [{"attributes": {"POSITION": 0, "NORMAL": 1, "TEXCOORD_0": 2}, "indices": 3, "mode": 4, "material": 0}]}, {"primitives": [{"attributes": {"POSITION": 4, "NORMAL": 5, "TEXCOORD_0": 6}, "indices": 7, "mode": 4, "material": 0}]}, {"primitives": [{"attributes": {"POSITION": 8, "NORMAL": 9, "TEXCOORD_0": 10}, "indices": 11, "mode": 4, "material": 0}]}, {"primitives": [{"attributes": {"POSITION": 12, "NORMAL": 13, "TEXCOORD_0": 14}, "indices": 15, "mode": 4, "material": 0}]}], "accessors": [{"bufferView": 0, "componentType": 5126, "count": 21, "type": "VEC3", "min": [-0.28362341970205307, 0.8220306038856506, -0.283834641178449], "max": [0.2838043545683225, 0.8322210113207499, 0.2894185185432434]}, {"bufferView": 1, "componentType": 5126, "count": 21, "type": "VEC3", "min": null, "max": null}, {"bufferView": 2, "componentType": 5126, "count": 21, "type": "VEC2", "min": null, "max": null}, {"bufferView": 3, "componentType": 5123, "count": 114, "type": "SCALAR"}, {"bufferView": 4, "componentType": 5126, "count": 48, "type": "VEC3", "min": [-0.022751483600586653, 0.41005033254623413, 0.3429168611764908], "max": [0.02757113380357623, 0.46249890327453613, 0.38493624329566956]}, {"bufferView": 5, "componentType": 5126, "count": 48, "type": "VEC3", "min": null, "max": null}, {"bufferView": 6, "componentType": 5126, "count": 48, "type": "VEC2", "min": null, "max": null}, {"bufferView": 7, "componentType": 5123, "count": 276, "type": "SCALAR"}, {"bufferView": 8, "componentType": 5126, "count": 111, "type": "VEC3", "min": [-0.3511279573043187, 0.025508224907698055, -0.3508996064464251], "max": [0.36353821903467176, 0.8719475269317627, 0.36463667276832795]}, {"bufferView": 9, "componentType": 5126, "count": 111, "type": "VEC3", "min": null, "max": null}, {"bufferView": 10, "componentType": 5126, "count": 111, "type": "VEC2", "min": null, "max": null}, {"bufferView": 11, "componentType": 5123, "count": 1524, "type": "SCALAR"}, {"bufferView": 12, "componentType": 5126, "count": 21, "type": "VEC3", "min": [-0.2836234321196874, 0.040328135093053184, -0.28383468091487885], "max": [0.2838043620189031, 0.05051851272583008, 0.2894185185432434]}, {"bufferView": 13, "componentType": 5126, "count": 21, "type": "VEC3", "min": null, "max": null}, {"bufferView": 14, "componentType": 5126, "count": 21, "type": "VEC2", "min": null, "max": null}, {"bufferView": 15, "componentType": 5123, "count": 114, "type": "SCALAR"}], "bufferViews": [{"buffer": 0, "byteOffset": 0, "byteLength": 252, "target": 34962}, {"buffer": 0, "byteOffset": 252, "byteLength": 252, "target": 34962}, {"buffer": 0, "byteOffset": 504, "byteLength": 168, "target": 34962}, {"buffer": 0, "byteOffset": 672, "byteLength": 228, "target": 34963}, {"buffer": 0, "byteOffset": 900, "byteLength": 576, "target": 34962}, {"buffer": 0, "byteOffset": 1476, "byteLength": 576, "target": 34962}, {"buffer": 0, "byteOffset": 2052, "byteLength": 384, "target": 34962}, {"buffer": 0, "byteOffset": 2436, "byteLength": 552, "target": 34963}, {"buffer": 0, "byteOffset": 2988, "byteLength": 1332, "target": 34962}, {"buffer": 0, "byteOffset": 4320, "byteLength": 1332, "target": 34962}, {"buffer": 0, "byteOffset": 5652, "byteLength": 888, "target": 34962}, {"buffer": 0, "byteOffset": 6540, "byteLength": 3048, "target": 34963}, {"buffer": 0, "byteOffset": 9588, "byteLength": 252, "target": 34962}, {"buffer": 0, "byteOffset": 9840, "byteLength": 252, "target": 34962}, {"buffer": 0, "byteOffset": 10092, "byteLength": 168, "target": 34962}, {"buffer": 0, "byteOffset": 10260, "byteLength": 228, "target": 34963}], "buffers": [{"byteLength": 10488, "uri": "lod2.bin"}], "images": [{"mimeType": "image/jpeg", "name": "wine_barrel_01_nor_gl", "uri": "wine_barrel_01_nor_gl_1k.jpg"}, {"mimeType": "image/jpeg", "name": "wine_barrel_01_diff", "uri": "wine_barrel_01_diff_1k.jpg"}, {"mimeType": "image/jpeg", "name": "wine_barrel_01_metal-wine_barrel_01_rough", "uri": "wine_barrel_01_arm_1k.jpg"}], "samplers": [{"magFilter": 9729, "minFilter": 9987}], "textures": [{"sampler": 0, "source": 0}, {"sampler": 0, "source": 1}, {"sampler": 0, "source": 2}], "materials": [{"doubleSided": true, "name": "wine_barrel_01", "normalTexture": {"index": 0}, "pbrMetallicRoughness": {"baseColorTexture": {"index": 1}, "metallicRoughnessTexture": {"index": 2}}}]}