{"asset": {"version": "2.0", "generator": "EMERGENT tools/make_lods.py"}, "scene": 0, "scenes": [{"name": "Scene", "nodes": [0]}], "nodes": [{"mesh": 0, "name": "Barrel_01"}], "meshes": [{"primitives": [{"attributes": {"POSITION": 0, "NORMAL": 1, "TEXCOORD_0": 2}, "indices": 3, "mode": 4, "material": 0}]}], "accessors": [{"bufferView": 0, "componentType": 5126, "count": 586, "type": "VEC3", "min": [-0.2813747525215149, -0.006614276207983494, -0.28137466311454773], "max": [0.28151753544807434, 0.8733857274055481, 0.28151771426200867]}, {"bufferView": 1, "componentType": 5126, "count": 586, "type": "VEC3", "min": null, "max": null}, {"bufferView": 2, "componentType": 5126, "count": 586, "type": "VEC2", "min": null, "max": null}, {"bufferView": 3, "componentType": 5123, "count": 3561, "type": "SCALAR"}], "bufferViews": [{"buffer": 0, "byteOffset": 0, "byteLength": 7032, "target": 34962}, {"buffer": 0, "byteOffset": 7032, "byteLength": 7032, "target": 34962}, {"buffer": 0, "byteOffset": 14064, "byteLength": 4688, "target": 34962}, {"buffer": 0, "byteOffset": 18752, "byteLength": 7122, "target": 34963}], "buffers": [{"byteLength": 25874, "uri": "lod1.bin"}], "images": [{"mimeType": "image/jpeg", "name": "Barrel_01_explosive_nor_gl", "uri": "Barrel_01_explosive_nor_gl_1k.jpg"}, {"mimeType": "image/jpeg", "name": "Barrel_01_explosive_diff", "uri": "Barrel_01_explosive_diff_1k.jpg"}, {"mimeType": "image/jpeg", "name": "Barrel_01_explosive_metallic-Barrel_01_explosive_roughness", "uri": "Barrel_01_explosive_arm_1k.jpg"}], "samplers": [{"magFilter": 9729, "minFilter": 9987}], "textures": [{"sampler": 0, "source": 0}, {"sampler": 0, "source": 1}, {"sampler": 0, "source": 2}], "materials": [{"doubleSided": true, "name": "Barrel_01", "normalTexture": {"index": 0}, "pbrMetallicRoughness": {"baseColorTexture": {"index": 1}, "metallicRoughnessTexture": {"index": 2}}}]}