{"asset": {"version": "2.0", "generator": "EMERGENT tools/make_lods.py"}, "scene": 0, "scenes": [{"name": "Scene", "nodes": [0, 1, 2]}], "nodes": [{"mesh": 0, "name": "wooden_crate_01_lid"}, {"mesh": 1, "name": "wooden_crate_01"}, {"mesh": 2, "name": "wooden_crate_01_latch"}], "meshes": [{"primitives": [{"attributes": {"POSITION": 0, "NORMAL": 1, "TEXCOORD_0": 2}, "indices": 3, "mode": 4, "material": 0}]}, {"primitives": [{"attributes": {"POSITION": 4, "NORMAL": 5, "TEXCOORD_0": 6}, "indices": 7, "mode": 4, "material": 0}]}, {"primitives": [{"attributes": {"POSITION": 8, "NORMAL": 9, "TEXCOORD_0": 10}, "indices": 11, "mode": 4, "material": 0}]}], "accessors": [{"bufferView": 0, "componentType": 5126, "count": 596, "type": "VEC3", "min": [-0.3539096713066101, 0.29946234822273254, -0.1961396187543869], "max": [0.3539096713066101, 0.3416849374771118, 0.1961396187543869]}, {"bufferView": 1, "componentType": 5126, "count": 596, "type": "VEC3", "min": null, "max": null}, {"bufferView": 2, "componentType": 5126, "count": 596, "type": "VEC2", "min": null, "max": null}, {"bufferView": 3, "componentType": 5123, "count": 2076, "type": "SCALAR"}, {"bufferView": 4, "componentType": 5126, "count": 3706, "type": "VEC3", "min": [-0.4126364588737488, -0.00793334562331438, -0.19549614191055298], "max": [0.4126364588737488, 0.3139750361442566, 0.2128141224384308]}, {"bufferView": 5, "componentType": 5126, "count": 3706, "type": "VEC3", "min": null, "max": null}, {"bufferView": 6, "componentType": 5126, "count": 3706, "type": "VEC2", "min": null, "max": null}, {"bufferView": 7, "componentType": 5123, "count": 16524, "type": "SCALAR"}, {"bufferView": 8, "componentType": 5126, "count": 384, "type": "VEC3", "min": [-0.016070956364274025, 0.2390938252210617, 0.1312473714351654], "max": [0.009643923491239548, 0.3357900381088257, 0.2071036398410797]}, {"bufferView": 9, "componentType": 5126, "count": 384, "type": "VEC3", "min": null, "max": null}, {"bufferView": 10, "componentType": 5126, "count": 384, "type": "VEC2", "min": null, "max": null}, {"bufferView": 11, "componentType": 5123, "count": 1128, "type": "SCALAR"}], "bufferViews": [{"buffer": 0, "byteOffset": 0, "byteLength": 7152, "target": 34962}, {"buffer": 0, "byteOffset": 7152, "byteLength": 7152, "target": 34962}, {"buffer": 0, "byteOffset": 14304, "byteLength": 4768, "target": 34962}, {"buffer": 0, "byteOffset": 19072, "byteLength": 4152, "target": 34963}, {"buffer": 0, "byteOffset": 23224, "byteLength": 44472, "target": 34962}, {"buffer": 0, "byteOffset": 67696, "byteLength": 44472, "target": 34962}, {"buffer": 0, "byteOffset": 112168, "byteLength": 29648, "target": 34962}, {"buffer": 0, "byteOffset": 141816, "byteLength": 33048, "target": 34963}, {"buffer": 0, "byteOffset": 174864, "byteLength": 4608, "target": 34962}, {"buffer": 0, "byteOffset": 179472, "byteLength": 4608, "target": 34962}, {"buffer": 0, "byteOffset": 184080, "byteLength": 3072, "target": 34962}, {"buffer": 0, "byteOffset": 187152, "byteLength": 2256, "target": 34963}], "buffers": [{"byteLength": 189408, "uri": "lod0.bin"}], "images": [{"mimeType": "image/jpeg", "name": "wooden_crate_01_nor_gl", "uri": "wooden_crate_01_nor_gl_1k.jpg"}, {"mimeType": "image/jpeg", "name": "wooden_crate_01_diff", "uri": "wooden_crate_01_diff_1k.jpg"}, {"mimeType": "image/jpeg", "name": "wooden_crate_01_metal-wooden_crate_01_rough", "uri": "wooden_crate_01_arm_1k.jpg"}], "samplers": [{"magFilter": 9729, "minFilter": 9987}], "textures": [{"sampler": 0, "source": 0}, {"sampler": 0, "source": 1}, {"sampler": 0, "source": 2}], "materials": [{"doubleSided": true, "name": "wooden_crate_01", "normalTexture": {"index": 0}, "pbrMetallicRoughness": {"baseColorTexture": {"index": 1}, "metallicRoughnessTexture": {"index": 2}}}]}