{"asset": {"version": "2.0", "generator": "EMERGENT tools/make_lods.py"}, "scene": 0, "scenes": [{"name": "Scene", "nodes": [0, 1, 2]}], "nodes": [{"mesh": 0, "name": "wooden_crate_01_lid"}, {"mesh": 1, "name": "wooden_crate_01"}, {"mesh": 2, "name": "wooden_crate_01_latch"}], "meshes": [{"primitives": [{"attributes": {"POSITION": 0, "NORMAL": 1, "TEXCOORD_0": 2}, "indices": 3, "mode": 4, "material": 0}]}, {"primitives": [{"attributes": {"POSITION": 4, "NORMAL": 5, "TEXCOORD_0": 6}, "indices": 7, "mode": 4, "material": 0}]}, {"primitives": [{"attributes": {"POSITION": 8, "NORMAL": 9, "TEXCOORD_0": 10}, "indices": 11, "mode": 4, "material": 0}]}], "accessors": [{"bufferView": 0, "componentType": 5126, "count": 16, "type": "VEC3", "min": [-0.3347468695943318, 0.3146292451591719, -0.18363608419895172], "max": [0.3539096713066101, 0.3334001522097323, 0.1854869685081578]}, {"bufferView": 1, "componentType": 5126, "count": 16, "type": "VEC3", "min": null, "max": null}, {"bufferView": 2, "componentType": 5126, "count": 16, "type": "VEC2", "min": null, "max": null}, {"bufferView": 3, "componentType": 5123, "count": 66, "type": "SCALAR"}, {"bufferView": 4, "componentType": 5126, "count": 97, "type": "VEC3", "min": [-0.39998740355173745, -0.005949826445430517, -0.18538217643896737], "max": [0.4126364588737488, 0.31315655410289767, 0.20518205176587356]}, {"bufferView": 5, "componentType": 5126, "count": 97, "type": "VEC3", "min": null, "max": null}, {"bufferView": 6, "componentType": 5126, "count": 97, "type": "VEC2", "min": null, "max": null}, {"bufferView": 7, "componentType": 5123, "count": 654, "type": "SCALAR"}, {"bufferView": 8, "componentType": 5126, "count": 57, "type": "VEC3", "min": [-0.013763200026005507, 0.23944403231143951, 0.13458168506622314], "max": [0.009498505387455225, 0.3357900381088257, 0.2070799171924591]}, {"bufferView": 9, "componentType": 5126, "count": 57, "type": "VEC3", "min": null, "max": null}, {"bufferView": 10, "componentType": 5126, "count": 57, "type": "VEC2", "min": null, "max": null}, {"bufferView": 11, "componentType": 5123, "count": 324, "type": "SCALAR"}], "bufferViews": [{"buffer": 0, "byteOffset": 0, "byteLength": 192, "target": 34962}, {"buffer": 0, "byteOffset": 192, "byteLength": 192, "target": 34962}, {"buffer": 0, "byteOffset": 384, "byteLength": 128, "target": 34962}, {"buffer": 0, "byteOffset": 512, "byteLength": 132, "target": 34963}, {"buffer": 0, "byteOffset": 644, "byteLength": 1164, "target": 34962}, {"buffer": 0, "byteOffset": 1808, "byteLength": 1164, "target": 34962}, {"buffer": 0, "byteOffset": 2972, "byteLength": 776, "target": 34962}, {"buffer": 0, "byteOffset": 3748, "byteLength": 1308, "target": 34963}, {"buffer": 0, "byteOffset": 5056, "byteLength": 684, "target": 34962}, {"buffer": 0, "byteOffset": 5740, "byteLength": 684, "target": 34962}, {"buffer": 0, "byteOffset": 6424, "byteLength": 456, "target": 34962}, {"buffer": 0, "byteOffset": 6880, "byteLength": 648, "target": 34963}], "buffers": [{"byteLength": 7528, "uri": "lod2.bin"}], "images": [{"mimeType": "image/jpeg", "name": "wooden_crate_01_nor_gl", "uri": "wooden_crate_01_nor_gl_1k.jpg"}, {"mimeType": "image/jpeg", "name": "wooden_crate_01_diff", "uri": "wooden_crate_01_diff_1k.jpg"}, {"mimeType": "image/jpeg", "name": "wooden_crate_01_metal-wooden_crate_01_rough", "uri": "wooden_crate_01_arm_1k.jpg"}], "samplers": [{"magFilter": 9729, "minFilter": 9987}], "textures": [{"sampler": 0, "source": 0}, {"sampler": 0, "source": 1}, {"sampler": 0, "source": 2}], "materials": [{"doubleSided": true, "name": "wooden_crate_01", "normalTexture": {"index": 0}, "pbrMetallicRoughness": {"baseColorTexture": {"index": 1}, "metallicRoughnessTexture": {"index": 2}}}]}