{"asset": {"version": "2.0", "generator": "EMERGENT tools/make_lods.py"}, "scene": 0, "scenes": [{"name": "Scene", "nodes": [0]}], "nodes": [{"mesh": 0, "name": "painted_wooden_stool"}], "meshes": [{"primitives": [{"attributes": {"POSITION": 0, "NORMAL": 1, "TEXCOORD_0": 2}, "indices": 3, "mode": 4, "material": 0}]}], "accessors": [{"bufferView": 0, "componentType": 5126, "count": 189, "type": "VEC3", "min": [-0.18724338710308075, -0.000989402993582189, -0.18933597952127457], "max": [0.19712168723344803, 0.5779256820678711, 0.21579977869987488]}, {"bufferView": 1, "componentType": 5126, "count": 189, "type": "VEC3", "min": null, "max": null}, {"bufferView": 2, "componentType": 5126, "count": 189, "type": "VEC2", "min": null, "max": null}, {"bufferView": 3, "componentType": 5123, "count": 906, "type": "SCALAR"}], "bufferViews": [{"buffer": 0, "byteOffset": 0, "byteLength": 2268, "target": 34962}, {"buffer": 0, "byteOffset": 2268, "byteLength": 2268, "target": 34962}, {"buffer": 0, "byteOffset": 4536, "byteLength": 1512, "target": 34962}, {"buffer": 0, "byteOffset": 6048, "byteLength": 1812, "target": 34963}], "buffers": [{"byteLength": 7860, "uri": "lod1.bin"}], "images": [{"mimeType": "image/jpeg", "name": "painted_wooden_stool_nor_gl.png", "uri": "painted_wooden_stool_nor_gl_1k.jpg"}, {"mimeType": "image/jpeg", "name": "painted_wooden_stool_diff.png", "uri": "painted_wooden_stool_diff_1k.jpg"}, {"mimeType": "image/jpeg", "name": "painted_wooden_stool_rough.png", "uri": "painted_wooden_stool_arm_1k.jpg"}], "samplers": [{"magFilter": 9729, "minFilter": 9987}], "textures": [{"sampler": 0, "source": 0}, {"sampler": 0, "source": 1}, {"sampler": 0, "source": 2}], "materials": [{"doubleSided": true, "name": "painted_wooden_stool", "normalTexture": {"index": 0}, "pbrMetallicRoughness": {"baseColorTexture": {"index": 1}, "metallicFactor": 0, "metallicRoughnessTexture": {"index": 2}}}]}