{"asset": {"version": "2.0", "generator": "EMERGENT tools/make_lods.py"}, "scene": 0, "scenes": [{"name": "Scene", "nodes": [0]}], "nodes": [{"mesh": 0, "name": "planter_pot_clay"}], "meshes": [{"primitives": [{"attributes": {"POSITION": 0, "NORMAL": 1, "TEXCOORD_0": 2}, "indices": 3, "mode": 4, "material": 0}]}], "accessors": [{"bufferView": 0, "componentType": 5126, "count": 1863, "type": "VEC3", "min": [-0.13400615751743317, 0.00040199398063123226, -0.12028281390666962], "max": [0.13199056684970856, 0.2222723364830017, 0.1431802362203598]}, {"bufferView": 1, "componentType": 5126, "count": 1863, "type": "VEC3", "min": null, "max": null}, {"bufferView": 2, "componentType": 5126, "count": 1863, "type": "VEC2", "min": null, "max": null}, {"bufferView": 3, "componentType": 5123, "count": 9240, "type": "SCALAR"}], "bufferViews": [{"buffer": 0, "byteOffset": 0, "byteLength": 22356, "target": 34962}, {"buffer": 0, "byteOffset": 22356, "byteLength": 22356, "target": 34962}, {"buffer": 0, "byteOffset": 44712, "byteLength": 14904, "target": 34962}, {"buffer": 0, "byteOffset": 59616, "byteLength": 18480, "target": 34963}], "buffers": [{"byteLength": 78096, "uri": "lod0.bin"}], "images": [{"mimeType": "image/jpeg", "name": "planter_pot_clay_nor_gl", "uri": "planter_pot_clay_nor_gl_1k.jpg"}, {"mimeType": "image/jpeg", "name": "planter_pot_clay_diff", "uri": "planter_pot_clay_diff_1k.jpg"}, {"mimeType": "image/jpeg", "name": "planter_pot_clay_rough", "uri": "planter_pot_clay_arm_1k.jpg"}], "samplers": [{"magFilter": 9729, "minFilter": 9987}], "textures": [{"sampler": 0, "source": 0}, {"sampler": 0, "source": 1}, {"sampler": 0, "source": 2}], "materials": [{"doubleSided": true, "name": "planter_pot_clay", "normalTexture": {"index": 0}, "pbrMetallicRoughness": {"baseColorTexture": {"index": 1}, "metallicFactor": 0, "metallicRoughnessTexture": {"index": 2}}}]}