{"asset": {"version": "2.0", "generator": "EMERGENT tools/make_lods.py"}, "scene": 0, "scenes": [{"name": "Scene", "nodes": [0]}], "nodes": [{"mesh": 0, "name": "planter_pot_clay"}], "meshes": [{"primitives": [{"attributes": {"POSITION": 0, "NORMAL": 1, "TEXCOORD_0": 2}, "indices": 3, "mode": 4, "material": 0}]}], "accessors": [{"bufferView": 0, "componentType": 5126, "count": 49, "type": "VEC3", "min": [-0.12304213538445068, 0.01606742522602654, -0.1093162080456902], "max": [0.13199056684970856, 0.2124346618098442, 0.13202739867071311]}, {"bufferView": 1, "componentType": 5126, "count": 49, "type": "VEC3", "min": null, "max": null}, {"bufferView": 2, "componentType": 5126, "count": 49, "type": "VEC2", "min": null, "max": null}, {"bufferView": 3, "componentType": 5123, "count": 480, "type": "SCALAR"}], "bufferViews": [{"buffer": 0, "byteOffset": 0, "byteLength": 588, "target": 34962}, {"buffer": 0, "byteOffset": 588, "byteLength": 588, "target": 34962}, {"buffer": 0, "byteOffset": 1176, "byteLength": 392, "target": 34962}, {"buffer": 0, "byteOffset": 1568, "byteLength": 960, "target": 34963}], "buffers": [{"byteLength": 2528, "uri": "lod2.bin"}], "images": [{"mimeType": "image/jpeg", "name": "planter_pot_clay_nor_gl", "uri": "planter_pot_clay_nor_gl_1k.jpg"}, {"mimeType": "image/jpeg", "name": "planter_pot_clay_diff", "uri": "planter_pot_clay_diff_1k.jpg"}, {"mimeType": "image/jpeg", "name": "planter_pot_clay_rough", "uri": "planter_pot_clay_arm_1k.jpg"}], "samplers": [{"magFilter": 9729, "minFilter": 9987}], "textures": [{"sampler": 0, "source": 0}, {"sampler": 0, "source": 1}, {"sampler": 0, "source": 2}], "materials": [{"doubleSided": true, "name": "planter_pot_clay", "normalTexture": {"index": 0}, "pbrMetallicRoughness": {"baseColorTexture": {"index": 1}, "metallicFactor": 0, "metallicRoughnessTexture": {"index": 2}}}]}