{"asset": {"version": "2.0", "generator": "EMERGENT tools/make_lods.py"}, "scene": 0, "scenes": [{"name": "Scene", "nodes": [0]}], "nodes": [{"mesh": 0, "name": "ceramic_pot"}], "meshes": [{"primitives": [{"attributes": {"POSITION": 0, "NORMAL": 1, "TEXCOORD_0": 2}, "indices": 3, "mode": 4, "material": 0}]}], "accessors": [{"bufferView": 0, "componentType": 5126, "count": 2075, "type": "VEC3", "min": [-0.3281251788139343, -0.0008817671332508326, -0.2505183219909668], "max": [0.32812511920928955, 0.3707836866378784, 0.2512340545654297]}, {"bufferView": 1, "componentType": 5126, "count": 2075, "type": "VEC3", "min": null, "max": null}, {"bufferView": 2, "componentType": 5126, "count": 2075, "type": "VEC2", "min": null, "max": null}, {"bufferView": 3, "componentType": 5123, "count": 10776, "type": "SCALAR"}], "bufferViews": [{"buffer": 0, "byteOffset": 0, "byteLength": 24900, "target": 34962}, {"buffer": 0, "byteOffset": 24900, "byteLength": 24900, "target": 34962}, {"buffer": 0, "byteOffset": 49800, "byteLength": 16600, "target": 34962}, {"buffer": 0, "byteOffset": 66400, "byteLength": 21552, "target": 34963}], "buffers": [{"byteLength": 87952, "uri": "lod0.bin"}], "images": [{"mimeType": "image/jpeg", "name": "ceramic_pot_nor_gl", "uri": "ceramic_pot_nor_gl_1k.jpg"}, {"mimeType": "image/jpeg", "name": "ceramic_pot_diff", "uri": "ceramic_pot_diff_1k.jpg"}, {"mimeType": "image/jpeg", "name": "ceramic_pot_metal-ceramic_pot_rough", "uri": "ceramic_pot_arm_1k.jpg"}], "samplers": [{"magFilter": 9729, "minFilter": 9987}], "textures": [{"sampler": 0, "source": 0}, {"sampler": 0, "source": 1}, {"sampler": 0, "source": 2}], "materials": [{"doubleSided": true, "extensions": {"KHR_materials_specular": {"specularColorFactor": [2, 2, 2]}}, "name": "ceramic_pot", "normalTexture": {"index": 0}, "pbrMetallicRoughness": {"baseColorTexture": {"index": 1}, "metallicRoughnessTexture": {"index": 2}}}]}