{"asset": {"version": "2.0", "generator": "EMERGENT tools/make_lods.py"}, "scene": 0, "scenes": [{"name": "Scene", "nodes": [0]}], "nodes": [{"mesh": 0, "name": "ceramic_pot"}], "meshes": [{"primitives": [{"attributes": {"POSITION": 0, "NORMAL": 1, "TEXCOORD_0": 2}, "indices": 3, "mode": 4, "material": 0}]}], "accessors": [{"bufferView": 0, "componentType": 5126, "count": 99, "type": "VEC3", "min": [-0.2819562702377637, 0.0, -0.24823018163442612], "max": [0.32812511920928955, 0.3562414293550477, 0.24894596636295319]}, {"bufferView": 1, "componentType": 5126, "count": 99, "type": "VEC3", "min": null, "max": null}, {"bufferView": 2, "componentType": 5126, "count": 99, "type": "VEC2", "min": null, "max": null}, {"bufferView": 3, "componentType": 5123, "count": 642, "type": "SCALAR"}], "bufferViews": [{"buffer": 0, "byteOffset": 0, "byteLength": 1188, "target": 34962}, {"buffer": 0, "byteOffset": 1188, "byteLength": 1188, "target": 34962}, {"buffer": 0, "byteOffset": 2376, "byteLength": 792, "target": 34962}, {"buffer": 0, "byteOffset": 3168, "byteLength": 1284, "target": 34963}], "buffers": [{"byteLength": 4452, "uri": "lod2.bin"}], "images": [{"mimeType": "image/jpeg", "name": "ceramic_pot_nor_gl", "uri": "ceramic_pot_nor_gl_1k.jpg"}, {"mimeType": "image/jpeg", "name": "ceramic_pot_diff", "uri": "ceramic_pot_diff_1k.jpg"}, {"mimeType": "image/jpeg", "name": "ceramic_pot_metal-ceramic_pot_rough", "uri": "ceramic_pot_arm_1k.jpg"}], "samplers": [{"magFilter": 9729, "minFilter": 9987}], "textures": [{"sampler": 0, "source": 0}, {"sampler": 0, "source": 1}, {"sampler": 0, "source": 2}], "materials": [{"doubleSided": true, "extensions": {"KHR_materials_specular": {"specularColorFactor": [2, 2, 2]}}, "name": "ceramic_pot", "normalTexture": {"index": 0}, "pbrMetallicRoughness": {"baseColorTexture": {"index": 1}, "metallicRoughnessTexture": {"index": 2}}}]}