{"asset": {"version": "2.0", "generator": "EMERGENT tools/make_lods.py"}, "scene": 0, "scenes": [{"name": "Scene", "nodes": [0, 1, 2, 3, 4]}], "nodes": [{"mesh": 0, "name": "treasure_chest_bottom", "translation": [0, 0.016473479568958282, 0]}, {"mesh": 1, "name": "treasure_chest_lid", "translation": [0, 0.4205016791820526, -0.2571077048778534]}, {"mesh": 2, "name": "treasure_chest_handle_left", "translation": [-0.4682048559188843, 0.29400762915611267, 0]}, {"mesh": 3, "name": "treasure_chest_handle_right", "translation": [0.4682046175003052, 0.29400762915611267, 0]}, {"mesh": 4, "name": "treasure_chest_lock", "translation": [0, 0.4223257601261139, 0.25776776671409607]}], "meshes": [{"primitives": [{"attributes": {"POSITION": 0, "NORMAL": 1, "TEXCOORD_0": 2}, "indices": 3, "mode": 4, "material": 0}]}, {"primitives": [{"attributes": {"POSITION": 4, "NORMAL": 5, "TEXCOORD_0": 6}, "indices": 7, "mode": 4, "material": 0}]}, {"primitives": [{"attributes": {"POSITION": 8, "NORMAL": 9, "TEXCOORD_0": 10}, "indices": 11, "mode": 4, "material": 0}]}, {"primitives": [{"attributes": {"POSITION": 12, "NORMAL": 13, "TEXCOORD_0": 14}, "indices": 15, "mode": 4, "material": 0}]}, {"primitives": [{"attributes": {"POSITION": 16, "NORMAL": 17, "TEXCOORD_0": 18}, "indices": 19, "mode": 4, "material": 0}]}], "accessors": [{"bufferView": 0, "componentType": 5126, "count": 3389, "type": "VEC3", "min": [-0.47469131648540497, -0.018156133592128754, -0.256351113319397], "max": [0.47951826453208923, 0.40525566754133807, 0.2553035020828247]}, {"bufferView": 1, "componentType": 5126, "count": 3389, "type": "VEC3", "min": null, "max": null}, {"bufferView": 2, "componentType": 5126, "count": 3389, "type": "VEC2", "min": null, "max": null}, {"bufferView": 3, "componentType": 5123, "count": 18348, "type": "SCALAR"}, {"bufferView": 4, "componentType": 5126, "count": 3444, "type": "VEC3", "min": [-0.44875697791576385, 0.00019095160460310908, 0.00035115024816750266], "max": [0.44903990626335144, 0.1967902034521103, 0.5147914331534813]}, {"bufferView": 5, "componentType": 5126, "count": 3444, "type": "VEC3", "min": null, "max": null}, {"bufferView": 6, "componentType": 5126, "count": 3444, "type": "VEC2", "min": null, "max": null}, {"bufferView": 7, "componentType": 5123, "count": 19050, "type": "SCALAR"}, {"bufferView": 8, "componentType": 5126, "count": 759, "type": "VEC3", "min": [-0.008065789937973022, -0.07133547961711884, -0.0826151967048645], "max": [0.008192896842956543, 0.008065849542617798, 0.0826151967048645]}, {"bufferView": 9, "componentType": 5126, "count": 759, "type": "VEC3", "min": null, "max": null}, {"bufferView": 10, "componentType": 5126, "count": 759, "type": "VEC2", "min": null, "max": null}, {"bufferView": 11, "componentType": 5123, "count": 4500, "type": "SCALAR"}, {"bufferView": 12, "componentType": 5126, "count": 750, "type": "VEC3", "min": [-0.008192658424377441, -0.07133547961711884, -0.0826151967048645], "max": [0.008065789937973022, 0.008065849542617798, 0.0826151967048645]}, {"bufferView": 13, "componentType": 5126, "count": 750, "type": "VEC3", "min": null, "max": null}, {"bufferView": 14, "componentType": 5126, "count": 750, "type": "VEC2", "min": null, "max": null}, {"bufferView": 15, "componentType": 5123, "count": 4476, "type": "SCALAR"}, {"bufferView": 16, "componentType": 5126, "count": 1990, "type": "VEC3", "min": [-0.051419083029031754, -0.17010371387004852, -0.005959689617156982], "max": [0.051419083029031754, 0.0038152188062667847, 0.0038251876831054688]}, {"bufferView": 17, "componentType": 5126, "count": 1990, "type": "VEC3", "min": null, "max": null}, {"bufferView": 18, "componentType": 5126, "count": 1990, "type": "VEC2", "min": null, "max": null}, {"bufferView": 19, "componentType": 5123, "count": 11649, "type": "SCALAR"}], "bufferViews": [{"buffer": 0, "byteOffset": 0, "byteLength": 40668, "target": 34962}, {"buffer": 0, "byteOffset": 40668, "byteLength": 40668, "target": 34962}, {"buffer": 0, "byteOffset": 81336, "byteLength": 27112, "target": 34962}, {"buffer": 0, "byteOffset": 108448, "byteLength": 36696, "target": 34963}, {"buffer": 0, "byteOffset": 145144, "byteLength": 41328, "target": 34962}, {"buffer": 0, "byteOffset": 186472, "byteLength": 41328, "target": 34962}, {"buffer": 0, "byteOffset": 227800, "byteLength": 27552, "target": 34962}, {"buffer": 0, "byteOffset": 255352, "byteLength": 38100, "target": 34963}, {"buffer": 0, "byteOffset": 293452, "byteLength": 9108, "target": 34962}, {"buffer": 0, "byteOffset": 302560, "byteLength": 9108, "target": 34962}, {"buffer": 0, "byteOffset": 311668, "byteLength": 6072, "target": 34962}, {"buffer": 0, "byteOffset": 317740, "byteLength": 9000, "target": 34963}, {"buffer": 0, "byteOffset": 326740, "byteLength": 9000, "target": 34962}, {"buffer": 0, "byteOffset": 335740, "byteLength": 9000, "target": 34962}, {"buffer": 0, "byteOffset": 344740, "byteLength": 6000, "target": 34962}, {"buffer": 0, "byteOffset": 350740, "byteLength": 8952, "target": 34963}, {"buffer": 0, "byteOffset": 359692, "byteLength": 23880, "target": 34962}, {"buffer": 0, "byteOffset": 383572, "byteLength": 23880, "target": 34962}, {"buffer": 0, "byteOffset": 407452, "byteLength": 15920, "target": 34962}, {"buffer": 0, "byteOffset": 423372, "byteLength": 23298, "target": 34963}], "buffers": [{"byteLength": 446670, "uri": "lod0.bin"}], "images": [{"mimeType": "image/jpeg", "name": "treasure_chest_nor_gl", "uri": "treasure_chest_nor_gl_1k.jpg"}, {"mimeType": "image/jpeg", "name": "treasure_chest_diff", "uri": "treasure_chest_diff_1k.jpg"}, {"mimeType": "image/jpeg", "name": "treasure_chest_metal-treasure_chest_rough", "uri": "treasure_chest_arm_1k.jpg"}], "samplers": [{"magFilter": 9729, "minFilter": 9987}], "textures": [{"sampler": 0, "source": 0}, {"sampler": 0, "source": 1}, {"sampler": 0, "source": 2}], "materials": [{"doubleSided": true, "name": "treasure_chest", "normalTexture": {"index": 0}, "pbrMetallicRoughness": {"baseColorTexture": {"index": 1}, "metallicRoughnessTexture": {"index": 2}}}]}