{"asset": {"version": "2.0", "generator": "EMERGENT tools/make_lods.py"}, "scene": 0, "scenes": [{"name": "Scene", "nodes": [0, 1, 2, 3, 4]}], "nodes": [{"mesh": 0, "name": "treasure_chest_bottom", "translation": [0, 0.016473479568958282, 0]}, {"mesh": 1, "name": "treasure_chest_lid", "translation": [0, 0.4205016791820526, -0.2571077048778534]}, {"mesh": 2, "name": "treasure_chest_handle_left", "translation": [-0.4682048559188843, 0.29400762915611267, 0]}, {"mesh": 3, "name": "treasure_chest_handle_right", "translation": [0.4682046175003052, 0.29400762915611267, 0]}, {"mesh": 4, "name": "treasure_chest_lock", "translation": [0, 0.4223257601261139, 0.25776776671409607]}], "meshes": [{"primitives": [{"attributes": {"POSITION": 0, "NORMAL": 1, "TEXCOORD_0": 2}, "indices": 3, "mode": 4, "material": 0}]}, {"primitives": [{"attributes": {"POSITION": 4, "NORMAL": 5, "TEXCOORD_0": 6}, "indices": 7, "mode": 4, "material": 0}]}, {"primitives": [{"attributes": {"POSITION": 8, "NORMAL": 9, "TEXCOORD_0": 10}, "indices": 11, "mode": 4, "material": 0}]}, {"primitives": [{"attributes": {"POSITION": 12, "NORMAL": 13, "TEXCOORD_0": 14}, "indices": 15, "mode": 4, "material": 0}]}, {"primitives": [{"attributes": {"POSITION": 16, "NORMAL": 17, "TEXCOORD_0": 18}, "indices": 19, "mode": 4, "material": 0}]}], "accessors": [{"bufferView": 0, "componentType": 5126, "count": 1108, "type": "VEC3", "min": [-0.468394290034221, -0.018156133592128754, -0.25571059849527145], "max": [0.47951826453208923, 0.40317778289318085, 0.2553035020828247]}, {"bufferView": 1, "componentType": 5126, "count": 1108, "type": "VEC3", "min": null, "max": null}, {"bufferView": 2, "componentType": 5126, "count": 1108, "type": "VEC2", "min": null, "max": null}, {"bufferView": 3, "componentType": 5123, "count": 5547, "type": "SCALAR"}, {"bufferView": 4, "componentType": 5126, "count": 1169, "type": "VEC3", "min": [-0.44856465607881546, 0.0015604951226332454, 0.0011410431574349236], "max": [0.44903990626335144, 0.19612156599760056, 0.514574983926438]}, {"bufferView": 5, "componentType": 5126, "count": 1169, "type": "VEC3", "min": null, "max": null}, {"bufferView": 6, "componentType": 5126, "count": 1169, "type": "VEC2", "min": null, "max": null}, {"bufferView": 7, "componentType": 5123, "count": 6048, "type": "SCALAR"}, {"bufferView": 8, "componentType": 5126, "count": 525, "type": "VEC3", "min": [-0.007604385415712992, -0.07094742357730865, -0.08223889023065567], "max": [0.008192896842956543, 0.007808879017829895, 0.0826151967048645]}, {"bufferView": 9, "componentType": 5126, "count": 525, "type": "VEC3", "min": null, "max": null}, {"bufferView": 10, "componentType": 5126, "count": 525, "type": "VEC2", "min": null, "max": null}, {"bufferView": 11, "componentType": 5123, "count": 3204, "type": "SCALAR"}, {"bufferView": 12, "componentType": 5126, "count": 521, "type": "VEC3", "min": [-0.008192658424377441, -0.07133547961711884, -0.0822425577789545], "max": [0.007692502604590521, 0.007808879017829895, 0.0826151967048645]}, {"bufferView": 13, "componentType": 5126, "count": 521, "type": "VEC3", "min": null, "max": null}, {"bufferView": 14, "componentType": 5126, "count": 521, "type": "VEC2", "min": null, "max": null}, {"bufferView": 15, "componentType": 5123, "count": 3174, "type": "SCALAR"}, {"bufferView": 16, "componentType": 5126, "count": 1297, "type": "VEC3", "min": [-0.050954388454556465, -0.1690603643655777, -0.005959689617156982], "max": [0.050954388454556465, 0.0038152188062667847, 0.002492666244506836]}, {"bufferView": 17, "componentType": 5126, "count": 1297, "type": "VEC3", "min": null, "max": null}, {"bufferView": 18, "componentType": 5126, "count": 1297, "type": "VEC2", "min": null, "max": null}, {"bufferView": 19, "componentType": 5123, "count": 8112, "type": "SCALAR"}], "bufferViews": [{"buffer": 0, "byteOffset": 0, "byteLength": 13296, "target": 34962}, {"buffer": 0, "byteOffset": 13296, "byteLength": 13296, "target": 34962}, {"buffer": 0, "byteOffset": 26592, "byteLength": 8864, "target": 34962}, {"buffer": 0, "byteOffset": 35456, "byteLength": 11094, "target": 34963}, {"buffer": 0, "byteOffset": 46552, "byteLength": 14028, "target": 34962}, {"buffer": 0, "byteOffset": 60580, "byteLength": 14028, "target": 34962}, {"buffer": 0, "byteOffset": 74608, "byteLength": 9352, "target": 34962}, {"buffer": 0, "byteOffset": 83960, "byteLength": 12096, "target": 34963}, {"buffer": 0, "byteOffset": 96056, "byteLength": 6300, "target": 34962}, {"buffer": 0, "byteOffset": 102356, "byteLength": 6300, "target": 34962}, {"buffer": 0, "byteOffset": 108656, "byteLength": 4200, "target": 34962}, {"buffer": 0, "byteOffset": 112856, "byteLength": 6408, "target": 34963}, {"buffer": 0, "byteOffset": 119264, "byteLength": 6252, "target": 34962}, {"buffer": 0, "byteOffset": 125516, "byteLength": 6252, "target": 34962}, {"buffer": 0, "byteOffset": 131768, "byteLength": 4168, "target": 34962}, {"buffer": 0, "byteOffset": 135936, "byteLength": 6348, "target": 34963}, {"buffer": 0, "byteOffset": 142284, "byteLength": 15564, "target": 34962}, {"buffer": 0, "byteOffset": 157848, "byteLength": 15564, "target": 34962}, {"buffer": 0, "byteOffset": 173412, "byteLength": 10376, "target": 34962}, {"buffer": 0, "byteOffset": 183788, "byteLength": 16224, "target": 34963}], "buffers": [{"byteLength": 200012, "uri": "lod1.bin"}], "images": [{"mimeType": "image/jpeg", "name": "treasure_chest_nor_gl", "uri": "treasure_chest_nor_gl_1k.jpg"}, {"mimeType": "image/jpeg", "name": "treasure_chest_diff", "uri": "treasure_chest_diff_1k.jpg"}, {"mimeType": "image/jpeg", "name": "treasure_chest_metal-treasure_chest_rough", "uri": "treasure_chest_arm_1k.jpg"}], "samplers": [{"magFilter": 9729, "minFilter": 9987}], "textures": [{"sampler": 0, "source": 0}, {"sampler": 0, "source": 1}, {"sampler": 0, "source": 2}], "materials": [{"doubleSided": true, "name": "treasure_chest", "normalTexture": {"index": 0}, "pbrMetallicRoughness": {"baseColorTexture": {"index": 1}, "metallicRoughnessTexture": {"index": 2}}}]}