{"asset": {"version": "2.0", "generator": "EMERGENT tools/make_lods.py"}, "scene": 0, "scenes": [{"name": "Scene", "nodes": [0, 1, 2, 3, 4]}], "nodes": [{"mesh": 0, "name": "treasure_chest_bottom", "translation": [0, 0.016473479568958282, 0]}, {"mesh": 1, "name": "treasure_chest_lid", "translation": [0, 0.4205016791820526, -0.2571077048778534]}, {"mesh": 2, "name": "treasure_chest_handle_left", "translation": [-0.4682048559188843, 0.29400762915611267, 0]}, {"mesh": 3, "name": "treasure_chest_handle_right", "translation": [0.4682046175003052, 0.29400762915611267, 0]}, {"mesh": 4, "name": "treasure_chest_lock", "translation": [0, 0.4223257601261139, 0.25776776671409607]}], "meshes": [{"primitives": [{"attributes": {"POSITION": 0, "NORMAL": 1, "TEXCOORD_0": 2}, "indices": 3, "mode": 4, "material": 0}]}, {"primitives": [{"attributes": {"POSITION": 4, "NORMAL": 5, "TEXCOORD_0": 6}, "indices": 7, "mode": 4, "material": 0}]}, {"primitives": [{"attributes": {"POSITION": 8, "NORMAL": 9, "TEXCOORD_0": 10}, "indices": 11, "mode": 4, "material": 0}]}, {"primitives": [{"attributes": {"POSITION": 12, "NORMAL": 13, "TEXCOORD_0": 14}, "indices": 15, "mode": 4, "material": 0}]}, {"primitives": [{"attributes": {"POSITION": 16, "NORMAL": 17, "TEXCOORD_0": 18}, "indices": 19, "mode": 4, "material": 0}]}], "accessors": [{"bufferView": 0, "componentType": 5126, "count": 198, "type": "VEC3", "min": [-0.45058283971014196, -0.017538860433786697, -0.25444879243584917], "max": [0.45267592386930994, 0.4018273572954867, 0.2544313850421665]}, {"bufferView": 1, "componentType": 5126, "count": 198, "type": "VEC3", "min": null, "max": null}, {"bufferView": 2, "componentType": 5126, "count": 198, "type": "VEC2", "min": null, "max": null}, {"bufferView": 3, "componentType": 5123, "count": 558, "type": "SCALAR"}, {"bufferView": 4, "componentType": 5126, "count": 168, "type": "VEC3", "min": [-0.4433446890059985, 0.0026663536167082684, 0.0017736452444092456], "max": [0.44903990626335144, 0.19456633656514613, 0.5125692694255376]}, {"bufferView": 5, "componentType": 5126, "count": 168, "type": "VEC3", "min": null, "max": null}, {"bufferView": 6, "componentType": 5126, "count": 168, "type": "VEC2", "min": null, "max": null}, {"bufferView": 7, "componentType": 5123, "count": 888, "type": "SCALAR"}, {"bufferView": 8, "componentType": 5126, "count": 85, "type": "VEC3", "min": [-0.004193640417522854, -0.06619741581380367, -0.0783634885912761], "max": [0.0060609985481609, 0.007808879017829895, 0.0826151967048645]}, {"bufferView": 9, "componentType": 5126, "count": 85, "type": "VEC3", "min": null, "max": null}, {"bufferView": 10, "componentType": 5126, "count": 85, "type": "VEC2", "min": null, "max": null}, {"bufferView": 11, "componentType": 5123, "count": 510, "type": "SCALAR"}, {"bufferView": 12, "componentType": 5126, "count": 87, "type": "VEC3", "min": [-0.004070699214935303, -0.06605876982212067, -0.07864163413289048], "max": [0.005521669983863831, 0.007748991250991821, 0.0826151967048645]}, {"bufferView": 13, "componentType": 5126, "count": 87, "type": "VEC3", "min": null, "max": null}, {"bufferView": 14, "componentType": 5126, "count": 87, "type": "VEC2", "min": null, "max": null}, {"bufferView": 15, "componentType": 5123, "count": 486, "type": "SCALAR"}, {"bufferView": 16, "componentType": 5126, "count": 118, "type": "VEC3", "min": [-0.04699005885049701, -0.16508925126658544, -0.004406794905662537], "max": [0.048456425312906504, -0.0011868406009549893, -0.0010808706283569336]}, {"bufferView": 17, "componentType": 5126, "count": 118, "type": "VEC3", "min": null, "max": null}, {"bufferView": 18, "componentType": 5126, "count": 118, "type": "VEC2", "min": null, "max": null}, {"bufferView": 19, "componentType": 5123, "count": 1173, "type": "SCALAR"}], "bufferViews": [{"buffer": 0, "byteOffset": 0, "byteLength": 2376, "target": 34962}, {"buffer": 0, "byteOffset": 2376, "byteLength": 2376, "target": 34962}, {"buffer": 0, "byteOffset": 4752, "byteLength": 1584, "target": 34962}, {"buffer": 0, "byteOffset": 6336, "byteLength": 1116, "target": 34963}, {"buffer": 0, "byteOffset": 7452, "byteLength": 2016, "target": 34962}, {"buffer": 0, "byteOffset": 9468, "byteLength": 2016, "target": 34962}, {"buffer": 0, "byteOffset": 11484, "byteLength": 1344, "target": 34962}, {"buffer": 0, "byteOffset": 12828, "byteLength": 1776, "target": 34963}, {"buffer": 0, "byteOffset": 14604, "byteLength": 1020, "target": 34962}, {"buffer": 0, "byteOffset": 15624, "byteLength": 1020, "target": 34962}, {"buffer": 0, "byteOffset": 16644, "byteLength": 680, "target": 34962}, {"buffer": 0, "byteOffset": 17324, "byteLength": 1020, "target": 34963}, {"buffer": 0, "byteOffset": 18344, "byteLength": 1044, "target": 34962}, {"buffer": 0, "byteOffset": 19388, "byteLength": 1044, "target": 34962}, {"buffer": 0, "byteOffset": 20432, "byteLength": 696, "target": 34962}, {"buffer": 0, "byteOffset": 21128, "byteLength": 972, "target": 34963}, {"buffer": 0, "byteOffset": 22100, "byteLength": 1416, "target": 34962}, {"buffer": 0, "byteOffset": 23516, "byteLength": 1416, "target": 34962}, {"buffer": 0, "byteOffset": 24932, "byteLength": 944, "target": 34962}, {"buffer": 0, "byteOffset": 25876, "byteLength": 2346, "target": 34963}], "buffers": [{"byteLength": 28222, "uri": "lod2.bin"}], "images": [{"mimeType": "image/jpeg", "name": "treasure_chest_nor_gl", "uri": "treasure_chest_nor_gl_1k.jpg"}, {"mimeType": "image/jpeg", "name": "treasure_chest_diff", "uri": "treasure_chest_diff_1k.jpg"}, {"mimeType": "image/jpeg", "name": "treasure_chest_metal-treasure_chest_rough", "uri": "treasure_chest_arm_1k.jpg"}], "samplers": [{"magFilter": 9729, "minFilter": 9987}], "textures": [{"sampler": 0, "source": 0}, {"sampler": 0, "source": 1}, {"sampler": 0, "source": 2}], "materials": [{"doubleSided": true, "name": "treasure_chest", "normalTexture": {"index": 0}, "pbrMetallicRoughness": {"baseColorTexture": {"index": 1}, "metallicRoughnessTexture": {"index": 2}}}]}