{"asset": {"version": "2.0", "generator": "EMERGENT tools/make_lods.py"}, "scene": 0, "scenes": [{"name": "Scene", "nodes": [0, 1, 2, 3, 4, 5, 6, 7, 8, 9, 10, 11, 12, 13, 14, 15, 16, 17, 18]}], "nodes": [{"mesh": 0, "name": "wooden_barrels_01_barrel01", "translation": [1.4757410287857056, 0, -1.5609110593795776]}, {"mesh": 1, "name": "wooden_barrels_01_barrel02", "translation": [-0.9395365715026855, 0, -1.561103105545044]}, {"mesh": 2, "name": "wooden_barrels_01_piece01", "translation": [-0.7384631037712097, 0.00014982791617512703, -0.007336203008890152]}, {"mesh": 3, "name": "wooden_barrels_01_piece02", "translation": [-2.0364601612091064, 0.005278892815113068, 0.012689612805843353]}, {"mesh": 4, "name": "wooden_barrels_01_piece03", "translation": [0.3734534978866577, 0.0514339953660965, 0]}, {"mesh": 5, "name": "wooden_barrels_01_piece04", "translation": [1.4656085968017578, 0.05622940510511398, 0]}, {"mesh": 6, "name": "wooden_barrels_01_piece05", "translation": [1.7590234279632568, 0.05271507054567337, 0]}, {"mesh": 7, "name": "wooden_barrels_01_piece06", "translation": [2.0726592540740967, 0.05146663263440132, 0]}, {"mesh": 8, "name": "wooden_barrels_01_piece07", "translation": [1.19318425655365, 0.023160487413406372, -0.3302585482597351]}, {"mesh": 9, "name": "wooden_barrels_01_piece08", "translation": [0.7410027980804443, 0, 1.0145642757415771]}, {"mesh": 10, "name": "wooden_barrels_01_piece09", "translation": [0.7410027980804443, 0, 1.1257257461547852]}, {"mesh": 11, "name": "wooden_barrels_01_piece10", "translation": [-0.4424811899662018, 0.035073280334472656, 0.6908835172653198]}, {"mesh": 12, "name": "wooden_barrels_01_piece11", "translation": [-0.44373074173927307, 0.03521842136979103, 1.0922564268112183]}, {"mesh": 13, "name": "wooden_barrels_01_piece12", "translation": [-0.45125794410705566, 0.035253286361694336, 1.3418182134628296]}, {"mesh": 14, "name": "wooden_barrels_01_piece13", "translation": [-1.4105602502822876, 0.0373339019715786, 0.6418328285217285]}, {"mesh": 15, "name": "wooden_barrels_01_piece14", "translation": [-1.3832567930221558, 0.037144776433706284, 0.9451810717582703]}, {"mesh": 16, "name": "wooden_barrels_01_piece15", "translation": [1.2678496837615967, -0.009527119807898998, 1.0757354497909546]}, {"mesh": 17, "name": "wooden_barrels_01_piece16", "translation": [1.4984959363937378, -0.009517165832221508, 1.0710526704788208]}, {"mesh": 18, "name": "wooden_barrels_01_piece17", "translation": [1.6882061958312988, -0.013236337341368198, 1.060125470161438]}], "meshes": [{"primitives": [{"attributes": {"POSITION": 0, "NORMAL": 1, "TEXCOORD_0": 2}, "indices": 3, "mode": 4, "material": 0}]}, {"primitives": [{"attributes": {"POSITION": 4, "NORMAL": 5, "TEXCOORD_0": 6}, "indices": 7, "mode": 4, "material": 1}]}, {"primitives": [{"attributes": {"POSITION": 8, "NORMAL": 9, "TEXCOORD_0": 10}, "indices": 11, "mode": 4, "material": 2}]}, {"primitives": [{"attributes": {"POSITION": 12, "NORMAL": 13, "TEXCOORD_0": 14}, "indices": 15, "mode": 4, "material": 2}]}, {"primitives": [{"attributes": {"POSITION": 16, "NORMAL": 17, "TEXCOORD_0": 18}, "indices": 19, "mode": 4, "material": 2}]}, {"primitives": [{"attributes": {"POSITION": 20, "NORMAL": 21, "TEXCOORD_0": 22}, "indices": 23, "mode": 4, "material": 2}]}, {"primitives": [{"attributes": {"POSITION": 24, "NORMAL": 25, "TEXCOORD_0": 26}, "indices": 27, "mode": 4, "material": 2}]}, {"primitives": [{"attributes": {"POSITION": 28, "NORMAL": 29, "TEXCOORD_0": 30}, "indices": 31, "mode": 4, "material": 2}]}, {"primitives": [{"attributes": {"POSITION": 32, "NORMAL": 33, "TEXCOORD_0": 34}, "indices": 35, "mode": 4, "material": 2}]}, {"primitives": [{"attributes": {"POSITION": 36, "NORMAL": 37, "TEXCOORD_0": 38}, "indices": 39, "mode": 4, "material": 2}]}, {"primitives": [{"attributes": {"POSITION": 40, "NORMAL": 41, "TEXCOORD_0": 42}, "indices": 43, "mode": 4, "material": 2}]}, {"primitives": [{"attributes": {"POSITION": 44, "NORMAL": 45, "TEXCOORD_0": 46}, "indices": 47, "mode": 4, "material": 2}]}, {"primitives": [{"attributes": {"POSITION": 48, "NORMAL": 49, "TEXCOORD_0": 50}, "indices": 51, "mode": 4, "material": 2}]}, {"primitives": [{"attributes": {"POSITION": 52, "NORMAL": 53, "TEXCOORD_0": 54}, "indices": 55, "mode": 4, "material": 2}]}, {"primitives": [{"attributes": {"POSITION": 56, "NORMAL": 57, "TEXCOORD_0": 58}, "indices": 59, "mode": 4, "material": 2}]}, {"primitives": [{"attributes": {"POSITION": 60, "NORMAL": 61, "TEXCOORD_0": 62}, "indices": 63, "mode": 4, "material": 2}]}, {"primitives": [{"attributes": {"POSITION": 64, "NORMAL": 65, "TEXCOORD_0": 66}, "indices": 67, "mode": 4, "material": 2}]}, {"primitives": [{"attributes": {"POSITION": 68, "NORMAL": 69, "TEXCOORD_0": 70}, "indices": 71, "mode": 4, "material": 2}]}, {"primitives": [{"attributes": {"POSITION": 72, "NORMAL": 73, "TEXCOORD_0": 74}, "indices": 75, "mode": 4, "material": 2}]}], "accessors": [{"bufferView": 0, "componentType": 5126, "count": 1933, "type": "VEC3", "min": [-0.3714761435985565, 2.1108424334670417e-05, -0.371477410197258], "max": [0.3714786767959595, 0.916801929473877, 0.3714747875928879]}, {"bufferView": 1, "componentType": 5126, "count": 1933, "type": "VEC3", "min": null, "max": null}, {"bufferView": 2, "componentType": 5126, "count": 1933, "type": "VEC2", "min": null, "max": null}, {"bufferView": 3, "componentType": 5123, "count": 19062, "type": "SCALAR"}, {"bufferView": 4, "componentType": 5126, "count": 2051, "type": "VEC3", "min": [-0.3704593628644943, -0.0010306591866537929, -0.371477410197258], "max": [0.3715013563632965, 0.916801929473877, 0.3714520335197449]}, {"bufferView": 5, "componentType": 5126, "count": 2051, "type": "VEC3", "min": null, "max": null}, {"bufferView": 6, "componentType": 5126, "count": 2051, "type": "VEC2", "min": null, "max": null}, {"bufferView": 7, "componentType": 5123, "count": 19314, "type": "SCALAR"}, {"bufferView": 8, "componentType": 5126, "count": 972, "type": "VEC3", "min": [-0.3790649175643921, -0.002651842776685953, -0.44112464785575867], "max": [0.3608821779489517, 0.351090669631958, 0.43460237979888916]}, {"bufferView": 9, "componentType": 5126, "count": 972, "type": "VEC3", "min": null, "max": null}, {"bufferView": 10, "componentType": 5126, "count": 972, "type": "VEC2", "min": null, "max": null}, {"bufferView": 11, "componentType": 5123, "count": 7584, "type": "SCALAR"}, {"bufferView": 12, "componentType": 5126, "count": 529, "type": "VEC3", "min": [-0.29578864574432373, -0.003726837574504316, -0.4466520369052887], "max": [0.2628611922264099, 0.18044540782769522, 0.42580506205558777]}, {"bufferView": 13, "componentType": 5126, "count": 529, "type": "VEC3", "min": null, "max": null}, {"bufferView": 14, "componentType": 5126, "count": 529, "type": "VEC2", "min": null, "max": null}, {"bufferView": 15, "componentType": 5123, "count": 4086, "type": "SCALAR"}, {"bufferView": 16, "componentType": 5126, "count": 523, "type": "VEC3", "min": [-0.2947169244289398, -0.044696107506752014, -0.43443846702575684], "max": [0.2810148596763611, 0.14448201656341553, 0.4369439482688904]}, {"bufferView": 17, "componentType": 5126, "count": 523, "type": "VEC3", "min": null, "max": null}, {"bufferView": 18, "componentType": 5126, "count": 523, "type": "VEC2", "min": null, "max": null}, {"bufferView": 19, "componentType": 5123, "count": 4086, "type": "SCALAR"}, {"bufferView": 20, "componentType": 5126, "count": 53, "type": "VEC3", "min": [-0.03468964993953705, -0.045458536595106125, -0.4337182343006134], "max": [0.04124797135591507, 0.047235190868377686, 0.4356316030025482]}, {"bufferView": 21, "componentType": 5126, "count": 53, "type": "VEC3", "min": null, "max": null}, {"bufferView": 22, "componentType": 5126, "count": 53, "type": "VEC2", "min": null, "max": null}, {"bufferView": 23, "componentType": 5123, "count": 306, "type": "SCALAR"}, {"bufferView": 24, "componentType": 5126, "count": 61, "type": "VEC3", "min": [-0.028566371649503708, -0.05198570899665356, -0.4345225542783737], "max": [0.033806417137384415, 0.051122430711984634, 0.4354666471481323]}, {"bufferView": 25, "componentType": 5126, "count": 61, "type": "VEC3", "min": null, "max": null}, {"bufferView": 26, "componentType": 5126, "count": 61, "type": "VEC2", "min": null, "max": null}, {"bufferView": 27, "componentType": 5123, "count": 360, "type": "SCALAR"}, {"bufferView": 28, "componentType": 5126, "count": 66, "type": "VEC3", "min": [-0.04705093801021576, -0.044711132533848286, -0.2540423981845379], "max": [0.03552420809864998, 0.048722051084041595, 0.43508097529411316]}, {"bufferView": 29, "componentType": 5126, "count": 66, "type": "VEC3", "min": null, "max": null}, {"bufferView": 30, "componentType": 5126, "count": 66, "type": "VEC2", "min": null, "max": null}, {"bufferView": 31, "componentType": 5123, "count": 384, "type": "SCALAR"}, {"bufferView": 32, "componentType": 5126, "count": 56, "type": "VEC3", "min": [-0.04145592451095581, -0.022720600478351116, -0.14466030895709991], "max": [0.032450444996356964, 0.062093526124954224, 0.16667121648788452]}, {"bufferView": 33, "componentType": 5126, "count": 56, "type": "VEC3", "min": null, "max": null}, {"bufferView": 34, "componentType": 5126, "count": 56, "type": "VEC2", "min": null, "max": null}, {"bufferView": 35, "componentType": 5123, "count": 324, "type": "SCALAR"}, {"bufferView": 36, "componentType": 5126, "count": 218, "type": "VEC3", "min": [-0.28357988595962524, -0.039903994649648666, -0.19833868741989136], "max": [0.2860945165157318, 0.017775879241526127, 0.20118476450443268]}, {"bufferView": 37, "componentType": 5126, "count": 218, "type": "VEC3", "min": null, "max": null}, {"bufferView": 38, "componentType": 5126, "count": 218, "type": "VEC2", "min": null, "max": null}, {"bufferView": 39, "componentType": 5123, "count": 1284, "type": "SCALAR"}, {"bufferView": 40, "componentType": 5126, "count": 38, "type": "VEC3", "min": [-0.18931577106316885, -0.019264204427599907, 0.20166130363941193], "max": [0.19261592626571655, -0.003978594671934843, 0.2835797965526581]}, {"bufferView": 41, "componentType": 5126, "count": 38, "type": "VEC3", "min": null, "max": null}, {"bufferView": 42, "componentType": 5126, "count": 38, "type": "VEC2", "min": null, "max": null}, {"bufferView": 43, "componentType": 5123, "count": 222, "type": "SCALAR"}, {"bufferView": 44, "componentType": 5126, "count": 31, "type": "VEC3", "min": [-0.20486654341220856, -0.005090017337352037, -0.04155808687210083], "max": [0.2045317441225052, 0.02069515362381935, 0.04486092925071716]}, {"bufferView": 45, "componentType": 5126, "count": 31, "type": "VEC3", "min": null, "max": null}, {"bufferView": 46, "componentType": 5126, "count": 31, "type": "VEC2", "min": null, "max": null}, {"bufferView": 47, "componentType": 5123, "count": 174, "type": "SCALAR"}, {"bufferView": 48, "componentType": 5126, "count": 15, "type": "VEC3", "min": [-0.2836823910474777, 1.4452108189288992e-05, -0.044336460530757904], "max": [0.28717660903930664, 0.015299979597330093, 0.05486355349421501]}, {"bufferView": 49, "componentType": 5126, "count": 15, "type": "VEC3", "min": null, "max": null}, {"bufferView": 50, "componentType": 5126, "count": 15, "type": "VEC2", "min": null, "max": null}, {"bufferView": 51, "componentType": 5123, "count": 90, "type": "SCALAR"}, {"bufferView": 52, "componentType": 5126, "count": 30, "type": "VEC3", "min": [-0.19386708736419678, -2.0548714019241743e-05, -0.041231315582990646], "max": [0.18759697675704956, 0.015265117399394512, 0.04331442341208458]}, {"bufferView": 53, "componentType": 5126, "count": 30, "type": "VEC3", "min": null, "max": null}, {"bufferView": 54, "componentType": 5126, "count": 30, "type": "VEC2", "min": null, "max": null}, {"bufferView": 55, "componentType": 5123, "count": 168, "type": "SCALAR"}, {"bufferView": 56, "componentType": 5126, "count": 13, "type": "VEC3", "min": [-0.23794997334480286, 0.007648336227475738, -0.06736547872424126], "max": [0.2886374928057194, 0.015291119925677776, 0.03183450177311897]}, {"bufferView": 57, "componentType": 5126, "count": 13, "type": "VEC3", "min": null, "max": null}, {"bufferView": 58, "componentType": 5126, "count": 13, "type": "VEC2", "min": null, "max": null}, {"bufferView": 59, "componentType": 5123, "count": 78, "type": "SCALAR"}, {"bufferView": 60, "componentType": 5126, "count": 13, "type": "VEC3", "min": [-0.28663739562034607, -0.0023832889273762703, -0.046589065343141556], "max": [0.28566011786460876, 0.018058516085147858, 0.053273484110832214]}, {"bufferView": 61, "componentType": 5126, "count": 13, "type": "VEC3", "min": null, "max": null}, {"bufferView": 62, "componentType": 5126, "count": 13, "type": "VEC2", "min": null, "max": null}, {"bufferView": 63, "componentType": 5123, "count": 78, "type": "SCALAR"}, {"bufferView": 64, "componentType": 5126, "count": 34, "type": "VEC3", "min": [-0.041693612933158875, -0.004667269065976143, -0.1396159827709198], "max": [0.008478492498397827, 0.02348969504237175, 0.13057276606559753]}, {"bufferView": 65, "componentType": 5126, "count": 34, "type": "VEC3", "min": null, "max": null}, {"bufferView": 66, "componentType": 5126, "count": 34, "type": "VEC2", "min": null, "max": null}, {"bufferView": 67, "componentType": 5123, "count": 192, "type": "SCALAR"}, {"bufferView": 68, "componentType": 5126, "count": 40, "type": "VEC3", "min": [-0.08413490653038025, -0.005162266083061695, -0.1916642189025879], "max": [0.009001374244689941, 0.02450171485543251, 0.19863057136535645]}, {"bufferView": 69, "componentType": 5126, "count": 40, "type": "VEC3", "min": null, "max": null}, {"bufferView": 70, "componentType": 5126, "count": 40, "type": "VEC2", "min": null, "max": null}, {"bufferView": 71, "componentType": 5123, "count": 228, "type": "SCALAR"}, {"bufferView": 72, "componentType": 5126, "count": 43, "type": "VEC3", "min": [-0.12956631183624268, -0.0019555678591132164, -0.23727142810821533], "max": [0.005768598057329655, 0.02840309850871563, 0.25643983483314514]}, {"bufferView": 73, "componentType": 5126, "count": 43, "type": "VEC3", "min": null, "max": null}, {"bufferView": 74, "componentType": 5126, "count": 43, "type": "VEC2", "min": null, "max": null}, {"bufferView": 75, "componentType": 5123, "count": 246, "type": "SCALAR"}], "bufferViews": [{"buffer": 0, "byteOffset": 0, "byteLength": 23196, "target": 34962}, {"buffer": 0, "byteOffset": 23196, "byteLength": 23196, "target": 34962}, {"buffer": 0, "byteOffset": 46392, "byteLength": 15464, "target": 34962}, {"buffer": 0, "byteOffset": 61856, "byteLength": 38124, "target": 34963}, {"buffer": 0, "byteOffset": 99980, "byteLength": 24612, "target": 34962}, {"buffer": 0, "byteOffset": 124592, "byteLength": 24612, "target": 34962}, {"buffer": 0, "byteOffset": 149204, "byteLength": 16408, "target": 34962}, {"buffer": 0, "byteOffset": 165612, "byteLength": 38628, "target": 34963}, {"buffer": 0, "byteOffset": 204240, "byteLength": 11664, "target": 34962}, {"buffer": 0, "byteOffset": 215904, "byteLength": 11664, "target": 34962}, {"buffer": 0, "byteOffset": 227568, "byteLength": 7776, "target": 34962}, {"buffer": 0, "byteOffset": 235344, "byteLength": 15168, "target": 34963}, {"buffer": 0, "byteOffset": 250512, "byteLength": 6348, "target": 34962}, {"buffer": 0, "byteOffset": 256860, "byteLength": 6348, "target": 34962}, {"buffer": 0, "byteOffset": 263208, "byteLength": 4232, "target": 34962}, {"buffer": 0, "byteOffset": 267440, "byteLength": 8172, "target": 34963}, {"buffer": 0, "byteOffset": 275612, "byteLength": 6276, "target": 34962}, {"buffer": 0, "byteOffset": 281888, "byteLength": 6276, "target": 34962}, {"buffer": 0, "byteOffset": 288164, "byteLength": 4184, "target": 34962}, {"buffer": 0, "byteOffset": 292348, "byteLength": 8172, "target": 34963}, {"buffer": 0, "byteOffset": 300520, "byteLength": 636, "target": 34962}, {"buffer": 0, "byteOffset": 301156, "byteLength": 636, "target": 34962}, {"buffer": 0, "byteOffset": 301792, "byteLength": 424, "target": 34962}, {"buffer": 0, "byteOffset": 302216, "byteLength": 612, "target": 34963}, {"buffer": 0, "byteOffset": 302828, "byteLength": 732, "target": 34962}, {"buffer": 0, "byteOffset": 303560, "byteLength": 732, "target": 34962}, {"buffer": 0, "byteOffset": 304292, "byteLength": 488, "target": 34962}, {"buffer": 0, "byteOffset": 304780, "byteLength": 720, "target": 34963}, {"buffer": 0, "byteOffset": 305500, "byteLength": 792, "target": 34962}, {"buffer": 0, "byteOffset": 306292, "byteLength": 792, "target": 34962}, {"buffer": 0, "byteOffset": 307084, "byteLength": 528, "target": 34962}, {"buffer": 0, "byteOffset": 307612, "byteLength": 768, "target": 34963}, {"buffer": 0, "byteOffset": 308380, "byteLength": 672, "target": 34962}, {"buffer": 0, "byteOffset": 309052, "byteLength": 672, "target": 34962}, {"buffer": 0, "byteOffset": 309724, "byteLength": 448, "target": 34962}, {"buffer": 0, "byteOffset": 310172, "byteLength": 648, "target": 34963}, {"buffer": 0, "byteOffset": 310820, "byteLength": 2616, "target": 34962}, {"buffer": 0, "byteOffset": 313436, "byteLength": 2616, "target": 34962}, {"buffer": 0, "byteOffset": 316052, "byteLength": 1744, "target": 34962}, {"buffer": 0, "byteOffset": 317796, "byteLength": 2568, "target": 34963}, {"buffer": 0, "byteOffset": 320364, "byteLength": 456, "target": 34962}, {"buffer": 0, "byteOffset": 320820, "byteLength": 456, "target": 34962}, {"buffer": 0, "byteOffset": 321276, "byteLength": 304, "target": 34962}, {"buffer": 0, "byteOffset": 321580, "byteLength": 444, "target": 34963}, {"buffer": 0, "byteOffset": 322024, "byteLength": 372, "target": 34962}, {"buffer": 0, "byteOffset": 322396, "byteLength": 372, "target": 34962}, {"buffer": 0, "byteOffset": 322768, "byteLength": 248, "target": 34962}, {"buffer": 0, "byteOffset": 323016, "byteLength": 348, "target": 34963}, {"buffer": 0, "byteOffset": 323364, "byteLength": 180, "target": 34962}, {"buffer": 0, "byteOffset": 323544, "byteLength": 180, "target": 34962}, {"buffer": 0, "byteOffset": 323724, "byteLength": 120, "target": 34962}, {"buffer": 0, "byteOffset": 323844, "byteLength": 180, "target": 34963}, {"buffer": 0, "byteOffset": 324024, "byteLength": 360, "target": 34962}, {"buffer": 0, "byteOffset": 324384, "byteLength": 360, "target": 34962}, {"buffer": 0, "byteOffset": 324744, "byteLength": 240, "target": 34962}, {"buffer": 0, "byteOffset": 324984, "byteLength": 336, "target": 34963}, {"buffer": 0, "byteOffset": 325320, "byteLength": 156, "target": 34962}, {"buffer": 0, "byteOffset": 325476, "byteLength": 156, "target": 34962}, {"buffer": 0, "byteOffset": 325632, "byteLength": 104, "target": 34962}, {"buffer": 0, "byteOffset": 325736, "byteLength": 156, "target": 34963}, {"buffer": 0, "byteOffset": 325892, "byteLength": 156, "target": 34962}, {"buffer": 0, "byteOffset": 326048, "byteLength": 156, "target": 34962}, {"buffer": 0, "byteOffset": 326204, "byteLength": 104, "target": 34962}, {"buffer": 0, "byteOffset": 326308, "byteLength": 156, "target": 34963}, {"buffer": 0, "byteOffset": 326464, "byteLength": 408, "target": 34962}, {"buffer": 0, "byteOffset": 326872, "byteLength": 408, "target": 34962}, {"buffer": 0, "byteOffset": 327280, "byteLength": 272, "target": 34962}, {"buffer": 0, "byteOffset": 327552, "byteLength": 384, "target": 34963}, {"buffer": 0, "byteOffset": 327936, "byteLength": 480, "target": 34962}, {"buffer": 0, "byteOffset": 328416, "byteLength": 480, "target": 34962}, {"buffer": 0, "byteOffset": 328896, "byteLength": 320, "target": 34962}, {"buffer": 0, "byteOffset": 329216, "byteLength": 456, "target": 34963}, {"buffer": 0, "byteOffset": 329672, "byteLength": 516, "target": 34962}, {"buffer": 0, "byteOffset": 330188, "byteLength": 516, "target": 34962}, {"buffer": 0, "byteOffset": 330704, "byteLength": 344, "target": 34962}, {"buffer": 0, "byteOffset": 331048, "byteLength": 492, "target": 34963}], "buffers": [{"byteLength": 331540, "uri": "lod0.bin"}], "images": [{"mimeType": "image/jpeg", "name": "wooden_barrels_01_barrel01_nor_gl", "uri": "wooden_barrels_01_barrel01_nor_gl_1k.jpg"}, {"mimeType": "image/jpeg", "name": "wooden_barrels_01_barrel01_diff", "uri": "wooden_barrels_01_barrel01_diff_1k.jpg"}, {"mimeType": "image/jpeg", "name": "wooden_barrels_01_barrel01_metal-wooden_barrels_01_barrel01_rough", "uri": "wooden_barrels_01_barrel01_arm_1k.jpg"}, {"mimeType": "image/jpeg", "name": "wooden_barrels_01_barrel02_nor_gl", "uri": "wooden_barrels_01_barrel02_nor_gl_1k.jpg"}, {"mimeType": "image/jpeg", "name": "wooden_barrels_01_barrel02_diff", "uri": "wooden_barrels_01_barrel02_diff_1k.jpg"}, {"mimeType": "image/jpeg", "name": "wooden_barrels_01_barrel02_metal-wooden_barrels_01_barrel02_rough", "uri": "wooden_barrels_01_barrel02_arm_1k.jpg"}, {"mimeType": "image/jpeg", "name": "wooden_barrels_01_pieces_nor_gl", "uri": "wooden_barrels_01_pieces_nor_gl_1k.jpg"}, {"mimeType": "image/jpeg", "name": "wooden_barrels_01_pieces_diff", "uri": "wooden_barrels_01_pieces_diff_1k.jpg"}, {"mimeType": "image/jpeg", "name": "wooden_barrels_01_pieces_metal-wooden_barrels_01_pieces_rough", "uri": "wooden_barrels_01_pieces_arm_1k.jpg"}], "samplers": [{"magFilter": 9729, "minFilter": 9987}], "textures": [{"sampler": 0, "source": 0}, {"sampler": 0, "source": 1}, {"sampler": 0, "source": 2}, {"sampler": 0, "source": 3}, {"sampler": 0, "source": 4}, {"sampler": 0, "source": 5}, {"sampler": 0, "source": 6}, {"sampler": 0, "source": 7}, {"sampler": 0, "source": 8}], "materials": [{"doubleSided": true, "name": "wooden_barrels_01_barrel01", "normalTexture": {"index": 0}, "pbrMetallicRoughness": {"baseColorTexture": {"index": 1}, "metallicRoughnessTexture": {"index": 2}}}, {"doubleSided": true, "name": "wooden_barrels_01_barrel02", "normalTexture": {"index": 3}, "pbrMetallicRoughness": {"baseColorTexture": {"index": 4}, "metallicRoughnessTexture": {"index": 5}}}, {"doubleSided": true, "name": "wooden_barrels_01_pieces", "normalTexture": {"index": 6}, "pbrMetallicRoughness": {"baseColorTexture": {"index": 7}, "metallicRoughnessTexture": {"index": 8}}}]}