{"asset": {"version": "2.0", "generator": "EMERGENT tools/make_lods.py"}, "scene": 0, "scenes": [{"name": "Scene", "nodes": [0, 1, 2, 3, 4, 5, 6, 7, 8, 9, 10, 11, 12, 13, 14, 15, 16, 17, 18]}], "nodes": [{"mesh": 0, "name": "wooden_barrels_01_barrel01", "translation": [1.4757410287857056, 0, -1.5609110593795776]}, {"mesh": 1, "name": "wooden_barrels_01_barrel02", "translation": [-0.9395365715026855, 0, -1.561103105545044]}, {"mesh": 2, "name": "wooden_barrels_01_piece01", "translation": [-0.7384631037712097, 0.00014982791617512703, -0.007336203008890152]}, {"mesh": 3, "name": "wooden_barrels_01_piece02", "translation": [-2.0364601612091064, 0.005278892815113068, 0.012689612805843353]}, {"mesh": 4, "name": "wooden_barrels_01_piece03", "translation": [0.3734534978866577, 0.0514339953660965, 0]}, {"mesh": 5, "name": "wooden_barrels_01_piece04", "translation": [1.4656085968017578, 0.05622940510511398, 0]}, {"mesh": 6, "name": "wooden_barrels_01_piece05", "translation": [1.7590234279632568, 0.05271507054567337, 0]}, {"mesh": 7, "name": "wooden_barrels_01_piece06", "translation": [2.0726592540740967, 0.05146663263440132, 0]}, {"mesh": 8, "name": "wooden_barrels_01_piece07", "translation": [1.19318425655365, 0.023160487413406372, -0.3302585482597351]}, {"mesh": 9, "name": "wooden_barrels_01_piece08", "translation": [0.7410027980804443, 0, 1.0145642757415771]}, {"mesh": 10, "name": "wooden_barrels_01_piece09", "translation": [0.7410027980804443, 0, 1.1257257461547852]}, {"mesh": 11, "name": "wooden_barrels_01_piece10", "translation": [-0.4424811899662018, 0.035073280334472656, 0.6908835172653198]}, {"mesh": 12, "name": "wooden_barrels_01_piece11", "translation": [-0.44373074173927307, 0.03521842136979103, 1.0922564268112183]}, {"mesh": 13, "name": "wooden_barrels_01_piece12", "translation": [-0.45125794410705566, 0.035253286361694336, 1.3418182134628296]}, {"mesh": 14, "name": "wooden_barrels_01_piece13", "translation": [-1.4105602502822876, 0.0373339019715786, 0.6418328285217285]}, {"mesh": 15, "name": "wooden_barrels_01_piece14", "translation": [-1.3832567930221558, 0.037144776433706284, 0.9451810717582703]}, {"mesh": 16, "name": "wooden_barrels_01_piece15", "translation": [1.2678496837615967, -0.009527119807898998, 1.0757354497909546]}, {"mesh": 17, "name": "wooden_barrels_01_piece16", "translation": [1.4984959363937378, -0.009517165832221508, 1.0710526704788208]}, {"mesh": 18, "name": "wooden_barrels_01_piece17", "translation": [1.6882061958312988, -0.013236337341368198, 1.060125470161438]}], "meshes": [{"primitives": [{"attributes": {"POSITION": 0, "NORMAL": 1, "TEXCOORD_0": 2}, "indices": 3, "mode": 4, "material": 0}]}, {"primitives": [{"attributes": {"POSITION": 4, "NORMAL": 5, "TEXCOORD_0": 6}, "indices": 7, "mode": 4, "material": 1}]}, {"primitives": [{"attributes": {"POSITION": 8, "NORMAL": 9, "TEXCOORD_0": 10}, "indices": 11, "mode": 4, "material": 2}]}, {"primitives": [{"attributes": {"POSITION": 12, "NORMAL": 13, "TEXCOORD_0": 14}, "indices": 15, "mode": 4, "material": 2}]}, {"primitives": [{"attributes": {"POSITION": 16, "NORMAL": 17, "TEXCOORD_0": 18}, "indices": 19, "mode": 4, "material": 2}]}, {"primitives": [{"attributes": {"POSITION": 20, "NORMAL": 21, "TEXCOORD_0": 22}, "indices": 23, "mode": 4, "material": 2}]}, {"primitives": [{"attributes": {"POSITION": 24, "NORMAL": 25, "TEXCOORD_0": 26}, "indices": 27, "mode": 4, "material": 2}]}, {"primitives": [{"attributes": {"POSITION": 28, "NORMAL": 29, "TEXCOORD_0": 30}, "indices": 31, "mode": 4, "material": 2}]}, {"primitives": [{"attributes": {"POSITION": 32, "NORMAL": 33, "TEXCOORD_0": 34}, "indices": 35, "mode": 4, "material": 2}]}, {"primitives": [{"attributes": {"POSITION": 36, "NORMAL": 37, "TEXCOORD_0": 38}, "indices": 39, "mode": 4, "material": 2}]}, {"primitives": [{"attributes": {"POSITION": 40, "NORMAL": 41, "TEXCOORD_0": 42}, "indices": 43, "mode": 4, "material": 2}]}, {"primitives": [{"attributes": {"POSITION": 44, "NORMAL": 45, "TEXCOORD_0": 46}, "indices": 47, "mode": 4, "material": 2}]}, {"primitives": [{"attributes": {"POSITION": 48, "NORMAL": 49, "TEXCOORD_0": 50}, "indices": 51, "mode": 4, "material": 2}]}, {"primitives": [{"attributes": {"POSITION": 52, "NORMAL": 53, "TEXCOORD_0": 54}, "indices": 55, "mode": 4, "material": 2}]}, {"primitives": [{"attributes": {"POSITION": 56, "NORMAL": 57, "TEXCOORD_0": 58}, "indices": 59, "mode": 4, "material": 2}]}, {"primitives": [{"attributes": {"POSITION": 60, "NORMAL": 61, "TEXCOORD_0": 62}, "indices": 63, "mode": 4, "material": 2}]}, {"primitives": [{"attributes": {"POSITION": 64, "NORMAL": 65, "TEXCOORD_0": 66}, "indices": 67, "mode": 4, "material": 2}]}, {"primitives": [{"attributes": {"POSITION": 68, "NORMAL": 69, "TEXCOORD_0": 70}, "indices": 71, "mode": 4, "material": 2}]}, {"primitives": [{"attributes": {"POSITION": 72, "NORMAL": 73, "TEXCOORD_0": 74}, "indices": 75, "mode": 4, "material": 2}]}], "accessors": [{"bufferView": 0, "componentType": 5126, "count": 563, "type": "VEC3", "min": [-0.3516627922654152, 0.0076640024772132165, -0.35167249150219415], "max": [0.3714786767959595, 0.916801929473877, 0.3714747875928879]}, {"bufferView": 1, "componentType": 5126, "count": 563, "type": "VEC3", "min": null, "max": null}, {"bufferView": 2, "componentType": 5126, "count": 563, "type": "VEC2", "min": null, "max": null}, {"bufferView": 3, "componentType": 5123, "count": 7314, "type": "SCALAR"}, {"bufferView": 4, "componentType": 5126, "count": 557, "type": "VEC3", "min": [-0.3507002517580986, -0.0010305967880412936, -0.3521506665274501], "max": [0.3695591241121292, 0.916801929473877, 0.3695550262928009]}, {"bufferView": 5, "componentType": 5126, "count": 557, "type": "VEC3", "min": null, "max": null}, {"bufferView": 6, "componentType": 5126, "count": 557, "type": "VEC2", "min": null, "max": null}, {"bufferView": 7, "componentType": 5123, "count": 7236, "type": "SCALAR"}, {"bufferView": 8, "componentType": 5126, "count": 306, "type": "VEC3", "min": [-0.3790649175643921, 0.016037588011992437, -0.43138978630304337], "max": [0.3505590905745824, 0.3508557975292206, 0.43460237979888916]}, {"bufferView": 9, "componentType": 5126, "count": 306, "type": "VEC3", "min": null, "max": null}, {"bufferView": 10, "componentType": 5126, "count": 306, "type": "VEC2", "min": null, "max": null}, {"bufferView": 11, "componentType": 5123, "count": 3204, "type": "SCALAR"}, {"bufferView": 12, "componentType": 5126, "count": 163, "type": "VEC3", "min": [-0.27673227588335675, 0.0038087524008005857, -0.4305301253297176], "max": [0.25895363092422485, 0.16657671332359314, 0.42580506205558777]}, {"bufferView": 13, "componentType": 5126, "count": 163, "type": "VEC3", "min": null, "max": null}, {"bufferView": 14, "componentType": 5126, "count": 163, "type": "VEC2", "min": null, "max": null}, {"bufferView": 15, "componentType": 5123, "count": 1488, "type": "SCALAR"}, {"bufferView": 16, "componentType": 5126, "count": 187, "type": "VEC3", "min": [-0.28369224071502686, -0.02957494556903839, -0.41673266887664795], "max": [0.2606054838746786, 0.12727004677057266, 0.4369439482688904]}, {"bufferView": 17, "componentType": 5126, "count": 187, "type": "VEC3", "min": null, "max": null}, {"bufferView": 18, "componentType": 5126, "count": 187, "type": "VEC2", "min": null, "max": null}, {"bufferView": 19, "componentType": 5123, "count": 1764, "type": "SCALAR"}, {"bufferView": 20, "componentType": 5126, "count": 36, "type": "VEC3", "min": [-0.03468964993953705, -0.04498664848506451, -0.41867613130145603], "max": [0.04124797135591507, 0.047235190868377686, 0.42802723538544446]}, {"bufferView": 21, "componentType": 5126, "count": 36, "type": "VEC3", "min": null, "max": null}, {"bufferView": 22, "componentType": 5126, "count": 36, "type": "VEC2", "min": null, "max": null}, {"bufferView": 23, "componentType": 5123, "count": 204, "type": "SCALAR"}, {"bufferView": 24, "componentType": 5126, "count": 20, "type": "VEC3", "min": [0.0035726698115468025, -0.038124945790817336, -0.4160202046235403], "max": [0.02919742278754711, 0.04877470682064692, 0.4354666471481323]}, {"bufferView": 25, "componentType": 5126, "count": 20, "type": "VEC3", "min": null, "max": null}, {"bufferView": 26, "componentType": 5126, "count": 20, "type": "VEC2", "min": null, "max": null}, {"bufferView": 27, "componentType": 5123, "count": 90, "type": "SCALAR"}, {"bufferView": 28, "componentType": 5126, "count": 38, "type": "VEC3", "min": [-0.04698920622467995, -0.03740238165482879, -0.24629669450223446], "max": [0.03521054610610008, 0.04711293242871761, 0.43508097529411316]}, {"bufferView": 29, "componentType": 5126, "count": 38, "type": "VEC3", "min": null, "max": null}, {"bufferView": 30, "componentType": 5126, "count": 38, "type": "VEC2", "min": null, "max": null}, {"bufferView": 31, "componentType": 5123, "count": 222, "type": "SCALAR"}, {"bufferView": 32, "componentType": 5126, "count": 37, "type": "VEC3", "min": [-0.04145592451095581, -0.016109159371505182, -0.14343811571598053], "max": [0.032450444996356964, 0.062093526124954224, 0.16667121648788452]}, {"bufferView": 33, "componentType": 5126, "count": 37, "type": "VEC3", "min": null, "max": null}, {"bufferView": 34, "componentType": 5126, "count": 37, "type": "VEC2", "min": null, "max": null}, {"bufferView": 35, "componentType": 5123, "count": 216, "type": "SCALAR"}, {"bufferView": 36, "componentType": 5126, "count": 86, "type": "VEC3", "min": [-0.2781400183836619, -0.039903994649648666, -0.19727408472034666], "max": [0.2860945165157318, 0.01701382640749216, 0.20042228202025095]}, {"bufferView": 37, "componentType": 5126, "count": 86, "type": "VEC3", "min": null, "max": null}, {"bufferView": 38, "componentType": 5126, "count": 86, "type": "VEC2", "min": null, "max": null}, {"bufferView": 39, "componentType": 5123, "count": 528, "type": "SCALAR"}, {"bufferView": 40, "componentType": 5126, "count": 14, "type": "VEC3", "min": [-0.17927248113685187, -0.019264204427599907, 0.21038390696048737], "max": [0.19261592626571655, -0.007708398366553915, 0.2806216312779321]}, {"bufferView": 41, "componentType": 5126, "count": 14, "type": "VEC3", "min": null, "max": null}, {"bufferView": 42, "componentType": 5126, "count": 14, "type": "VEC2", "min": null, "max": null}, {"bufferView": 43, "componentType": 5123, "count": 78, "type": "SCALAR"}, {"bufferView": 44, "componentType": 5126, "count": 18, "type": "VEC3", "min": [-0.20302065461874008, -0.0023347402457147837, -0.041169846430420876], "max": [0.2045317441225052, 0.018568900413811207, 0.04486092925071716]}, {"bufferView": 45, "componentType": 5126, "count": 18, "type": "VEC3", "min": null, "max": null}, {"bufferView": 46, "componentType": 5126, "count": 18, "type": "VEC2", "min": null, "max": null}, {"bufferView": 47, "componentType": 5123, "count": 96, "type": "SCALAR"}, {"bufferView": 48, "componentType": 5126, "count": 8, "type": "VEC3", "min": [-0.2823330173889796, 1.4467654636973748e-05, -0.044336460530757904], "max": [0.28717660903930664, 0.011478599601332462, 0.05486355349421501]}, {"bufferView": 49, "componentType": 5126, "count": 8, "type": "VEC3", "min": null, "max": null}, {"bufferView": 50, "componentType": 5126, "count": 8, "type": "VEC2", "min": null, "max": null}, {"bufferView": 51, "componentType": 5123, "count": 42, "type": "SCALAR"}, {"bufferView": 52, "componentType": 5126, "count": 16, "type": "VEC3", "min": [-0.18320969740549722, -2.0532364942482673e-05, -0.0412313137203455], "max": [0.18759697675704956, 0.015265029855072498, 0.041984617710113525]}, {"bufferView": 53, "componentType": 5126, "count": 16, "type": "VEC3", "min": null, "max": null}, {"bufferView": 54, "componentType": 5126, "count": 16, "type": "VEC2", "min": null, "max": null}, {"bufferView": 55, "componentType": 5123, "count": 84, "type": "SCALAR"}, {"bufferView": 56, "componentType": 5126, "count": 11, "type": "VEC3", "min": [-0.23794997334480286, 0.007648397150433084, -0.06736547872424126], "max": [0.2886374928057194, 0.015291118994355202, 0.03183450177311897]}, {"bufferView": 57, "componentType": 5126, "count": 11, "type": "VEC3", "min": null, "max": null}, {"bufferView": 58, "componentType": 5126, "count": 11, "type": "VEC2", "min": null, "max": null}, {"bufferView": 59, "componentType": 5123, "count": 66, "type": "SCALAR"}, {"bufferView": 60, "componentType": 5126, "count": 8, "type": "VEC3", "min": [-0.28530746698379517, 0.0027940948493778706, -0.04619019478559494], "max": [0.28566011786460876, 0.01513085188344121, 0.05327346920967102]}, {"bufferView": 61, "componentType": 5126, "count": 8, "type": "VEC3", "min": null, "max": null}, {"bufferView": 62, "componentType": 5126, "count": 8, "type": "VEC2", "min": null, "max": null}, {"bufferView": 63, "componentType": 5123, "count": 42, "type": "SCALAR"}, {"bufferView": 64, "componentType": 5126, "count": 22, "type": "VEC3", "min": [-0.039094507694244385, -0.004414168186485767, -0.1396159827709198], "max": [0.00553518533706665, 0.02257731929421425, 0.13057276606559753]}, {"bufferView": 65, "componentType": 5126, "count": 22, "type": "VEC3", "min": null, "max": null}, {"bufferView": 66, "componentType": 5126, "count": 22, "type": "VEC2", "min": null, "max": null}, {"bufferView": 67, "componentType": 5123, "count": 120, "type": "SCALAR"}, {"bufferView": 68, "componentType": 5126, "count": 17, "type": "VEC3", "min": [-0.07934865355491638, 0.0036256639286875725, -0.18707682026757133], "max": [0.009001374244689941, 0.023944828659296036, 0.19863057136535645]}, {"bufferView": 69, "componentType": 5126, "count": 17, "type": "VEC3", "min": null, "max": null}, {"bufferView": 70, "componentType": 5126, "count": 17, "type": "VEC2", "min": null, "max": null}, {"bufferView": 71, "componentType": 5123, "count": 66, "type": "SCALAR"}, {"bufferView": 72, "componentType": 5126, "count": 16, "type": "VEC3", "min": [-0.12956631183624268, -0.0014705425128340721, -0.23040619492530823], "max": [0.0035784996580332518, 0.0186784321649207, 0.25643983483314514]}, {"bufferView": 73, "componentType": 5126, "count": 16, "type": "VEC3", "min": null, "max": null}, {"bufferView": 74, "componentType": 5126, "count": 16, "type": "VEC2", "min": null, "max": null}, {"bufferView": 75, "componentType": 5123, "count": 18, "type": "SCALAR"}], "bufferViews": [{"buffer": 0, "byteOffset": 0, "byteLength": 6756, "target": 34962}, {"buffer": 0, "byteOffset": 6756, "byteLength": 6756, "target": 34962}, {"buffer": 0, "byteOffset": 13512, "byteLength": 4504, "target": 34962}, {"buffer": 0, "byteOffset": 18016, "byteLength": 14628, "target": 34963}, {"buffer": 0, "byteOffset": 32644, "byteLength": 6684, "target": 34962}, {"buffer": 0, "byteOffset": 39328, "byteLength": 6684, "target": 34962}, {"buffer": 0, "byteOffset": 46012, "byteLength": 4456, "target": 34962}, {"buffer": 0, "byteOffset": 50468, "byteLength": 14472, "target": 34963}, {"buffer": 0, "byteOffset": 64940, "byteLength": 3672, "target": 34962}, {"buffer": 0, "byteOffset": 68612, "byteLength": 3672, "target": 34962}, {"buffer": 0, "byteOffset": 72284, "byteLength": 2448, "target": 34962}, {"buffer": 0, "byteOffset": 74732, "byteLength": 6408, "target": 34963}, {"buffer": 0, "byteOffset": 81140, "byteLength": 1956, "target": 34962}, {"buffer": 0, "byteOffset": 83096, "byteLength": 1956, "target": 34962}, {"buffer": 0, "byteOffset": 85052, "byteLength": 1304, "target": 34962}, {"buffer": 0, "byteOffset": 86356, "byteLength": 2976, "target": 34963}, {"buffer": 0, "byteOffset": 89332, "byteLength": 2244, "target": 34962}, {"buffer": 0, "byteOffset": 91576, "byteLength": 2244, "target": 34962}, {"buffer": 0, "byteOffset": 93820, "byteLength": 1496, "target": 34962}, {"buffer": 0, "byteOffset": 95316, "byteLength": 3528, "target": 34963}, {"buffer": 0, "byteOffset": 98844, "byteLength": 432, "target": 34962}, {"buffer": 0, "byteOffset": 99276, "byteLength": 432, "target": 34962}, {"buffer": 0, "byteOffset": 99708, "byteLength": 288, "target": 34962}, {"buffer": 0, "byteOffset": 99996, "byteLength": 408, "target": 34963}, {"buffer": 0, "byteOffset": 100404, "byteLength": 240, "target": 34962}, {"buffer": 0, "byteOffset": 100644, "byteLength": 240, "target": 34962}, {"buffer": 0, "byteOffset": 100884, "byteLength": 160, "target": 34962}, {"buffer": 0, "byteOffset": 101044, "byteLength": 180, "target": 34963}, {"buffer": 0, "byteOffset": 101224, "byteLength": 456, "target": 34962}, {"buffer": 0, "byteOffset": 101680, "byteLength": 456, "target": 34962}, {"buffer": 0, "byteOffset": 102136, "byteLength": 304, "target": 34962}, {"buffer": 0, "byteOffset": 102440, "byteLength": 444, "target": 34963}, {"buffer": 0, "byteOffset": 102884, "byteLength": 444, "target": 34962}, {"buffer": 0, "byteOffset": 103328, "byteLength": 444, "target": 34962}, {"buffer": 0, "byteOffset": 103772, "byteLength": 296, "target": 34962}, {"buffer": 0, "byteOffset": 104068, "byteLength": 432, "target": 34963}, {"buffer": 0, "byteOffset": 104500, "byteLength": 1032, "target": 34962}, {"buffer": 0, "byteOffset": 105532, "byteLength": 1032, "target": 34962}, {"buffer": 0, "byteOffset": 106564, "byteLength": 688, "target": 34962}, {"buffer": 0, "byteOffset": 107252, "byteLength": 1056, "target": 34963}, {"buffer": 0, "byteOffset": 108308, "byteLength": 168, "target": 34962}, {"buffer": 0, "byteOffset": 108476, "byteLength": 168, "target": 34962}, {"buffer": 0, "byteOffset": 108644, "byteLength": 112, "target": 34962}, {"buffer": 0, "byteOffset": 108756, "byteLength": 156, "target": 34963}, {"buffer": 0, "byteOffset": 108912, "byteLength": 216, "target": 34962}, {"buffer": 0, "byteOffset": 109128, "byteLength": 216, "target": 34962}, {"buffer": 0, "byteOffset": 109344, "byteLength": 144, "target": 34962}, {"buffer": 0, "byteOffset": 109488, "byteLength": 192, "target": 34963}, {"buffer": 0, "byteOffset": 109680, "byteLength": 96, "target": 34962}, {"buffer": 0, "byteOffset": 109776, "byteLength": 96, "target": 34962}, {"buffer": 0, "byteOffset": 109872, "byteLength": 64, "target": 34962}, {"buffer": 0, "byteOffset": 109936, "byteLength": 84, "target": 34963}, {"buffer": 0, "byteOffset": 110020, "byteLength": 192, "target": 34962}, {"buffer": 0, "byteOffset": 110212, "byteLength": 192, "target": 34962}, {"buffer": 0, "byteOffset": 110404, "byteLength": 128, "target": 34962}, {"buffer": 0, "byteOffset": 110532, "byteLength": 168, "target": 34963}, {"buffer": 0, "byteOffset": 110700, "byteLength": 132, "target": 34962}, {"buffer": 0, "byteOffset": 110832, "byteLength": 132, "target": 34962}, {"buffer": 0, "byteOffset": 110964, "byteLength": 88, "target": 34962}, {"buffer": 0, "byteOffset": 111052, "byteLength": 132, "target": 34963}, {"buffer": 0, "byteOffset": 111184, "byteLength": 96, "target": 34962}, {"buffer": 0, "byteOffset": 111280, "byteLength": 96, "target": 34962}, {"buffer": 0, "byteOffset": 111376, "byteLength": 64, "target": 34962}, {"buffer": 0, "byteOffset": 111440, "byteLength": 84, "target": 34963}, {"buffer": 0, "byteOffset": 111524, "byteLength": 264, "target": 34962}, {"buffer": 0, "byteOffset": 111788, "byteLength": 264, "target": 34962}, {"buffer": 0, "byteOffset": 112052, "byteLength": 176, "target": 34962}, {"buffer": 0, "byteOffset": 112228, "byteLength": 240, "target": 34963}, {"buffer": 0, "byteOffset": 112468, "byteLength": 204, "target": 34962}, {"buffer": 0, "byteOffset": 112672, "byteLength": 204, "target": 34962}, {"buffer": 0, "byteOffset": 112876, "byteLength": 136, "target": 34962}, {"buffer": 0, "byteOffset": 113012, "byteLength": 132, "target": 34963}, {"buffer": 0, "byteOffset": 113144, "byteLength": 192, "target": 34962}, {"buffer": 0, "byteOffset": 113336, "byteLength": 192, "target": 34962}, {"buffer": 0, "byteOffset": 113528, "byteLength": 128, "target": 34962}, {"buffer": 0, "byteOffset": 113656, "byteLength": 36, "target": 34963}], "buffers": [{"byteLength": 113692, "uri": "lod1.bin"}], "images": [{"mimeType": "image/jpeg", "name": "wooden_barrels_01_barrel01_nor_gl", "uri": "wooden_barrels_01_barrel01_nor_gl_1k.jpg"}, {"mimeType": "image/jpeg", "name": "wooden_barrels_01_barrel01_diff", "uri": "wooden_barrels_01_barrel01_diff_1k.jpg"}, {"mimeType": "image/jpeg", "name": "wooden_barrels_01_barrel01_metal-wooden_barrels_01_barrel01_rough", "uri": "wooden_barrels_01_barrel01_arm_1k.jpg"}, {"mimeType": "image/jpeg", "name": "wooden_barrels_01_barrel02_nor_gl", "uri": "wooden_barrels_01_barrel02_nor_gl_1k.jpg"}, {"mimeType": "image/jpeg", "name": "wooden_barrels_01_barrel02_diff", "uri": "wooden_barrels_01_barrel02_diff_1k.jpg"}, {"mimeType": "image/jpeg", "name": "wooden_barrels_01_barrel02_metal-wooden_barrels_01_barrel02_rough", "uri": "wooden_barrels_01_barrel02_arm_1k.jpg"}, {"mimeType": "image/jpeg", "name": "wooden_barrels_01_pieces_nor_gl", "uri": "wooden_barrels_01_pieces_nor_gl_1k.jpg"}, {"mimeType": "image/jpeg", "name": "wooden_barrels_01_pieces_diff", "uri": "wooden_barrels_01_pieces_diff_1k.jpg"}, {"mimeType": "image/jpeg", "name": "wooden_barrels_01_pieces_metal-wooden_barrels_01_pieces_rough", "uri": "wooden_barrels_01_pieces_arm_1k.jpg"}], "samplers": [{"magFilter": 9729, "minFilter": 9987}], "textures": [{"sampler": 0, "source": 0}, {"sampler": 0, "source": 1}, {"sampler": 0, "source": 2}, {"sampler": 0, "source": 3}, {"sampler": 0, "source": 4}, {"sampler": 0, "source": 5}, {"sampler": 0, "source": 6}, {"sampler": 0, "source": 7}, {"sampler": 0, "source": 8}], "materials": [{"doubleSided": true, "name": "wooden_barrels_01_barrel01", "normalTexture": {"index": 0}, "pbrMetallicRoughness": {"baseColorTexture": {"index": 1}, "metallicRoughnessTexture": {"index": 2}}}, {"doubleSided": true, "name": "wooden_barrels_01_barrel02", "normalTexture": {"index": 3}, "pbrMetallicRoughness": {"baseColorTexture": {"index": 4}, "metallicRoughnessTexture": {"index": 5}}}, {"doubleSided": true, "name": "wooden_barrels_01_pieces", "normalTexture": {"index": 6}, "pbrMetallicRoughness": {"baseColorTexture": {"index": 7}, "metallicRoughnessTexture": {"index": 8}}}]}