{"asset": {"version": "2.0", "generator": "EMERGENT tools/make_lods.py"}, "scene": 0, "scenes": [{"name": "Scene", "nodes": [0, 1, 2, 3, 4, 5, 6, 7, 8, 9, 10, 11, 12, 13, 14, 15, 16, 17, 18]}], "nodes": [{"mesh": 0, "name": "wooden_barrels_01_barrel01", "translation": [1.4757410287857056, 0, -1.5609110593795776]}, {"mesh": 1, "name": "wooden_barrels_01_barrel02", "translation": [-0.9395365715026855, 0, -1.561103105545044]}, {"mesh": 2, "name": "wooden_barrels_01_piece01", "translation": [-0.7384631037712097, 0.00014982791617512703, -0.007336203008890152]}, {"mesh": 3, "name": "wooden_barrels_01_piece02", "translation": [-2.0364601612091064, 0.005278892815113068, 0.012689612805843353]}, {"mesh": 4, "name": "wooden_barrels_01_piece03", "translation": [0.3734534978866577, 0.0514339953660965, 0]}, {"mesh": 5, "name": "wooden_barrels_01_piece04", "translation": [1.4656085968017578, 0.05622940510511398, 0]}, {"mesh": 6, "name": "wooden_barrels_01_piece05", "translation": [1.7590234279632568, 0.05271507054567337, 0]}, {"mesh": 7, "name": "wooden_barrels_01_piece06", "translation": [2.0726592540740967, 0.05146663263440132, 0]}, {"mesh": 8, "name": "wooden_barrels_01_piece07", "translation": [1.19318425655365, 0.023160487413406372, -0.3302585482597351]}, {"mesh": 9, "name": "wooden_barrels_01_piece08", "translation": [0.7410027980804443, 0, 1.0145642757415771]}, {"mesh": 10, "name": "wooden_barrels_01_piece09", "translation": [0.7410027980804443, 0, 1.1257257461547852]}, {"mesh": 11, "name": "wooden_barrels_01_piece10", "translation": [-0.4424811899662018, 0.035073280334472656, 0.6908835172653198]}, {"mesh": 12, "name": "wooden_barrels_01_piece11", "translation": [-0.44373074173927307, 0.03521842136979103, 1.0922564268112183]}, {"name": "wooden_barrels_01_piece12", "translation": [-0.45125794410705566, 0.035253286361694336, 1.3418182134628296]}, {"name": "wooden_barrels_01_piece13", "translation": [-1.4105602502822876, 0.0373339019715786, 0.6418328285217285]}, {"name": "wooden_barrels_01_piece14", "translation": [-1.3832567930221558, 0.037144776433706284, 0.9451810717582703]}, {"name": "wooden_barrels_01_piece15", "translation": [1.2678496837615967, -0.009527119807898998, 1.0757354497909546]}, {"name": "wooden_barrels_01_piece16", "translation": [1.4984959363937378, -0.009517165832221508, 1.0710526704788208]}, {"name": "wooden_barrels_01_piece17", "translation": [1.6882061958312988, -0.013236337341368198, 1.060125470161438]}], "meshes": [{"primitives": [{"attributes": {"POSITION": 0, "NORMAL": 1, "TEXCOORD_0": 2}, "indices": 3, "mode": 4, "material": 0}]}, {"primitives": [{"attributes": {"POSITION": 4, "NORMAL": 5, "TEXCOORD_0": 6}, "indices": 7, "mode": 4, "material": 1}]}, {"primitives": [{"attributes": {"POSITION": 8, "NORMAL": 9, "TEXCOORD_0": 10}, "indices": 11, "mode": 4, "material": 2}]}, {"primitives": [{"attributes": {"POSITION": 12, "NORMAL": 13, "TEXCOORD_0": 14}, "indices": 15, "mode": 4, "material": 2}]}, {"primitives": [{"attributes": {"POSITION": 16, "NORMAL": 17, "TEXCOORD_0": 18}, "indices": 19, "mode": 4, "material": 2}]}, {"primitives": [{"attributes": {"POSITION": 20, "NORMAL": 21, "TEXCOORD_0": 22}, "indices": 23, "mode": 4, "material": 2}]}, {"primitives": [{"attributes": {"POSITION": 24, "NORMAL": 25, "TEXCOORD_0": 26}, "indices": 27, "mode": 4, "material": 2}]}, {"primitives": [{"attributes": {"POSITION": 28, "NORMAL": 29, "TEXCOORD_0": 30}, "indices": 31, "mode": 4, "material": 2}]}, {"primitives": [{"attributes": {"POSITION": 32, "NORMAL": 33, "TEXCOORD_0": 34}, "indices": 35, "mode": 4, "material": 2}]}, {"primitives": [{"attributes": {"POSITION": 36, "NORMAL": 37, "TEXCOORD_0": 38}, "indices": 39, "mode": 4, "material": 2}]}, {"primitives": [{"attributes": {"POSITION": 40, "NORMAL": 41, "TEXCOORD_0": 42}, "indices": 43, "mode": 4, "material": 2}]}, {"primitives": [{"attributes": {"POSITION": 44, "NORMAL": 45, "TEXCOORD_0": 46}, "indices": 47, "mode": 4, "material": 2}]}, {"primitives": [{"attributes": {"POSITION": 48, "NORMAL": 49, "TEXCOORD_0": 50}, "indices": 51, "mode": 4, "material": 2}]}], "accessors": [{"bufferView": 0, "componentType": 5126, "count": 65, "type": "VEC3", "min": [-0.3289168078113686, 0.09118907194362151, -0.34078658454948], "max": [0.3407837173177136, 0.916801929473877, 0.33599988882448156]}, {"bufferView": 1, "componentType": 5126, "count": 65, "type": "VEC3", "min": null, "max": null}, {"bufferView": 2, "componentType": 5126, "count": 65, "type": "VEC2", "min": null, "max": null}, {"bufferView": 3, "componentType": 5123, "count": 984, "type": "SCALAR"}, {"bufferView": 4, "componentType": 5126, "count": 67, "type": "VEC3", "min": [-0.3271763537530646, -0.0010305967880412936, -0.34078658454948], "max": [0.34018273941344684, 0.916801929473877, 0.3353852952520053]}, {"bufferView": 5, "componentType": 5126, "count": 67, "type": "VEC3", "min": null, "max": null}, {"bufferView": 6, "componentType": 5126, "count": 67, "type": "VEC2", "min": null, "max": null}, {"bufferView": 7, "componentType": 5123, "count": 1002, "type": "SCALAR"}, {"bufferView": 8, "componentType": 5126, "count": 35, "type": "VEC3", "min": [-0.3570295001207679, 0.029449883133540626, -0.34551145962380164], "max": [0.3377863339803837, 0.28210189945422154, 0.43460237979888916]}, {"bufferView": 9, "componentType": 5126, "count": 35, "type": "VEC3", "min": null, "max": null}, {"bufferView": 10, "componentType": 5126, "count": 35, "type": "VEC2", "min": null, "max": null}, {"bufferView": 11, "componentType": 5123, "count": 378, "type": "SCALAR"}, {"bufferView": 12, "componentType": 5126, "count": 18, "type": "VEC3", "min": [-0.1874525632878596, 0.024557187261858154, -0.35056324219897667], "max": [0.25895363092422485, 0.1594137866050005, 0.42580506205558777]}, {"bufferView": 13, "componentType": 5126, "count": 18, "type": "VEC3", "min": null, "max": null}, {"bufferView": 14, "componentType": 5126, "count": 18, "type": "VEC2", "min": null, "max": null}, {"bufferView": 15, "componentType": 5123, "count": 84, "type": "SCALAR"}, {"bufferView": 16, "componentType": 5126, "count": 22, "type": "VEC3", "min": [-0.2005199137022765, -0.028091955464333296, -0.3345049824610435], "max": [0.2555175942403299, 0.11968540710707505, 0.4369439482688904]}, {"bufferView": 17, "componentType": 5126, "count": 22, "type": "VEC3", "min": null, "max": null}, {"bufferView": 18, "componentType": 5126, "count": 22, "type": "VEC2", "min": null, "max": null}, {"bufferView": 19, "componentType": 5123, "count": 108, "type": "SCALAR"}, {"bufferView": 20, "componentType": 5126, "count": 9, "type": "VEC3", "min": [-0.040725789964199066, -0.009231900330632925, -0.12137609844406445], "max": [0.030630994588136673, 0.0577248390763998, 0.16667121648788452]}, {"bufferView": 21, "componentType": 5126, "count": 9, "type": "VEC3", "min": null, "max": null}, {"bufferView": 22, "componentType": 5126, "count": 9, "type": "VEC2", "min": null, "max": null}, {"bufferView": 23, "componentType": 5123, "count": 54, "type": "SCALAR"}, {"bufferView": 24, "componentType": 5126, "count": 20, "type": "VEC3", "min": [-0.24254436749551034, -0.022866306826472282, -0.19495292007923126], "max": [0.2860945165157318, -0.0030021491984371096, 0.1804890347023805]}, {"bufferView": 25, "componentType": 5126, "count": 20, "type": "VEC3", "min": null, "max": null}, {"bufferView": 26, "componentType": 5126, "count": 20, "type": "VEC2", "min": null, "max": null}, {"bufferView": 27, "componentType": 5123, "count": 108, "type": "SCALAR"}, {"bufferView": 28, "componentType": 5126, "count": 6, "type": "VEC3", "min": [-0.14288605197712229, -0.019263995811343193, 0.21038390696048737], "max": [0.19261592626571655, -0.010575351072475314, 0.2777875926759508]}, {"bufferView": 29, "componentType": 5126, "count": 6, "type": "VEC3", "min": null, "max": null}, {"bufferView": 30, "componentType": 5126, "count": 6, "type": "VEC2", "min": null, "max": null}, {"bufferView": 31, "componentType": 5123, "count": 18, "type": "SCALAR"}, {"bufferView": 32, "componentType": 5126, "count": 8, "type": "VEC3", "min": [-0.1758636899292469, 0.004691384014828751, -0.022884622526665527], "max": [0.2045317441225052, 0.018568900413811207, 0.04486092925071716]}, {"bufferView": 33, "componentType": 5126, "count": 8, "type": "VEC3", "min": null, "max": null}, {"bufferView": 34, "componentType": 5126, "count": 8, "type": "VEC2", "min": null, "max": null}, {"bufferView": 35, "componentType": 5123, "count": 42, "type": "SCALAR"}, {"bufferView": 36, "componentType": 5126, "count": 4, "type": "VEC3", "min": [-0.27344997011952926, 1.4467654636973748e-05, -0.044336460530757904], "max": [0.28717660903930664, 0.009467399333369838, 0.02209358610626724]}, {"bufferView": 37, "componentType": 5126, "count": 4, "type": "VEC3", "min": null, "max": null}, {"bufferView": 38, "componentType": 5126, "count": 4, "type": "VEC2", "min": null, "max": null}, {"bufferView": 39, "componentType": 5123, "count": 12, "type": "SCALAR"}, {"bufferView": 40, "componentType": 5126, "count": 7, "type": "VEC3", "min": [-0.154280303666989, 0.003110899116109067, -0.0412313137203455], "max": [0.18759697675704956, 0.01271742675241209, 0.040676020085811615]}, {"bufferView": 41, "componentType": 5126, "count": 7, "type": "VEC3", "min": null, "max": null}, {"bufferView": 42, "componentType": 5126, "count": 7, "type": "VEC2", "min": null, "max": null}, {"bufferView": 43, "componentType": 5123, "count": 36, "type": "SCALAR"}, {"bufferView": 44, "componentType": 5126, "count": 5, "type": "VEC3", "min": [-0.20765742436051368, 0.0077237710049189445, -0.026347476989030838], "max": [0.2886374928057194, 0.015291118994355202, 0.0261836606853952]}, {"bufferView": 45, "componentType": 5126, "count": 5, "type": "VEC3", "min": null, "max": null}, {"bufferView": 46, "componentType": 5126, "count": 5, "type": "VEC2", "min": null, "max": null}, {"bufferView": 47, "componentType": 5123, "count": 24, "type": "SCALAR"}, {"bufferView": 48, "componentType": 5126, "count": 3, "type": "VEC3", "min": [-0.27928512295087177, 0.0027940948493778706, -0.00249185724533163], "max": [0.28566011786460876, 0.009668632999819238, 0.05327346920967102]}, {"bufferView": 49, "componentType": 5126, "count": 3, "type": "VEC3", "min": null, "max": null}, {"bufferView": 50, "componentType": 5126, "count": 3, "type": "VEC2", "min": null, "max": null}, {"bufferView": 51, "componentType": 5123, "count": 6, "type": "SCALAR"}], "bufferViews": [{"buffer": 0, "byteOffset": 0, "byteLength": 780, "target": 34962}, {"buffer": 0, "byteOffset": 780, "byteLength": 780, "target": 34962}, {"buffer": 0, "byteOffset": 1560, "byteLength": 520, "target": 34962}, {"buffer": 0, "byteOffset": 2080, "byteLength": 1968, "target": 34963}, {"buffer": 0, "byteOffset": 4048, "byteLength": 804, "target": 34962}, {"buffer": 0, "byteOffset": 4852, "byteLength": 804, "target": 34962}, {"buffer": 0, "byteOffset": 5656, "byteLength": 536, "target": 34962}, {"buffer": 0, "byteOffset": 6192, "byteLength": 2004, "target": 34963}, {"buffer": 0, "byteOffset": 8196, "byteLength": 420, "target": 34962}, {"buffer": 0, "byteOffset": 8616, "byteLength": 420, "target": 34962}, {"buffer": 0, "byteOffset": 9036, "byteLength": 280, "target": 34962}, {"buffer": 0, "byteOffset": 9316, "byteLength": 756, "target": 34963}, {"buffer": 0, "byteOffset": 10072, "byteLength": 216, "target": 34962}, {"buffer": 0, "byteOffset": 10288, "byteLength": 216, "target": 34962}, {"buffer": 0, "byteOffset": 10504, "byteLength": 144, "target": 34962}, {"buffer": 0, "byteOffset": 10648, "byteLength": 168, "target": 34963}, {"buffer": 0, "byteOffset": 10816, "byteLength": 264, "target": 34962}, {"buffer": 0, "byteOffset": 11080, "byteLength": 264, "target": 34962}, {"buffer": 0, "byteOffset": 11344, "byteLength": 176, "target": 34962}, {"buffer": 0, "byteOffset": 11520, "byteLength": 216, "target": 34963}, {"buffer": 0, "byteOffset": 11736, "byteLength": 108, "target": 34962}, {"buffer": 0, "byteOffset": 11844, "byteLength": 108, "target": 34962}, {"buffer": 0, "byteOffset": 11952, "byteLength": 72, "target": 34962}, {"buffer": 0, "byteOffset": 12024, "byteLength": 108, "target": 34963}, {"buffer": 0, "byteOffset": 12132, "byteLength": 240, "target": 34962}, {"buffer": 0, "byteOffset": 12372, "byteLength": 240, "target": 34962}, {"buffer": 0, "byteOffset": 12612, "byteLength": 160, "target": 34962}, {"buffer": 0, "byteOffset": 12772, "byteLength": 216, "target": 34963}, {"buffer": 0, "byteOffset": 12988, "byteLength": 72, "target": 34962}, {"buffer": 0, "byteOffset": 13060, "byteLength": 72, "target": 34962}, {"buffer": 0, "byteOffset": 13132, "byteLength": 48, "target": 34962}, {"buffer": 0, "byteOffset": 13180, "byteLength": 36, "target": 34963}, {"buffer": 0, "byteOffset": 13216, "byteLength": 96, "target": 34962}, {"buffer": 0, "byteOffset": 13312, "byteLength": 96, "target": 34962}, {"buffer": 0, "byteOffset": 13408, "byteLength": 64, "target": 34962}, {"buffer": 0, "byteOffset": 13472, "byteLength": 84, "target": 34963}, {"buffer": 0, "byteOffset": 13556, "byteLength": 48, "target": 34962}, {"buffer": 0, "byteOffset": 13604, "byteLength": 48, "target": 34962}, {"buffer": 0, "byteOffset": 13652, "byteLength": 32, "target": 34962}, {"buffer": 0, "byteOffset": 13684, "byteLength": 24, "target": 34963}, {"buffer": 0, "byteOffset": 13708, "byteLength": 84, "target": 34962}, {"buffer": 0, "byteOffset": 13792, "byteLength": 84, "target": 34962}, {"buffer": 0, "byteOffset": 13876, "byteLength": 56, "target": 34962}, {"buffer": 0, "byteOffset": 13932, "byteLength": 72, "target": 34963}, {"buffer": 0, "byteOffset": 14004, "byteLength": 60, "target": 34962}, {"buffer": 0, "byteOffset": 14064, "byteLength": 60, "target": 34962}, {"buffer": 0, "byteOffset": 14124, "byteLength": 40, "target": 34962}, {"buffer": 0, "byteOffset": 14164, "byteLength": 48, "target": 34963}, {"buffer": 0, "byteOffset": 14212, "byteLength": 36, "target": 34962}, {"buffer": 0, "byteOffset": 14248, "byteLength": 36, "target": 34962}, {"buffer": 0, "byteOffset": 14284, "byteLength": 24, "target": 34962}, {"buffer": 0, "byteOffset": 14308, "byteLength": 12, "target": 34963}], "buffers": [{"byteLength": 14320, "uri": "lod2.bin"}], "images": [{"mimeType": "image/jpeg", "name": "wooden_barrels_01_barrel01_nor_gl", "uri": "wooden_barrels_01_barrel01_nor_gl_1k.jpg"}, {"mimeType": "image/jpeg", "name": "wooden_barrels_01_barrel01_diff", "uri": "wooden_barrels_01_barrel01_diff_1k.jpg"}, {"mimeType": "image/jpeg", "name": "wooden_barrels_01_barrel01_metal-wooden_barrels_01_barrel01_rough", "uri": "wooden_barrels_01_barrel01_arm_1k.jpg"}, {"mimeType": "image/jpeg", "name": "wooden_barrels_01_barrel02_nor_gl", "uri": "wooden_barrels_01_barrel02_nor_gl_1k.jpg"}, {"mimeType": "image/jpeg", "name": "wooden_barrels_01_barrel02_diff", "uri": "wooden_barrels_01_barrel02_diff_1k.jpg"}, {"mimeType": "image/jpeg", "name": "wooden_barrels_01_barrel02_metal-wooden_barrels_01_barrel02_rough", "uri": "wooden_barrels_01_barrel02_arm_1k.jpg"}, {"mimeType": "image/jpeg", "name": "wooden_barrels_01_pieces_nor_gl", "uri": "wooden_barrels_01_pieces_nor_gl_1k.jpg"}, {"mimeType": "image/jpeg", "name": "wooden_barrels_01_pieces_diff", "uri": "wooden_barrels_01_pieces_diff_1k.jpg"}, {"mimeType": "image/jpeg", "name": "wooden_barrels_01_pieces_metal-wooden_barrels_01_pieces_rough", "uri": "wooden_barrels_01_pieces_arm_1k.jpg"}], "samplers": [{"magFilter": 9729, "minFilter": 9987}], "textures": [{"sampler": 0, "source": 0}, {"sampler": 0, "source": 1}, {"sampler": 0, "source": 2}, {"sampler": 0, "source": 3}, {"sampler": 0, "source": 4}, {"sampler": 0, "source": 5}, {"sampler": 0, "source": 6}, {"sampler": 0, "source": 7}, {"sampler": 0, "source": 8}], "materials": [{"doubleSided": true, "name": "wooden_barrels_01_barrel01", "normalTexture": {"index": 0}, "pbrMetallicRoughness": {"baseColorTexture": {"index": 1}, "metallicRoughnessTexture": {"index": 2}}}, {"doubleSided": true, "name": "wooden_barrels_01_barrel02", "normalTexture": {"index": 3}, "pbrMetallicRoughness": {"baseColorTexture": {"index": 4}, "metallicRoughnessTexture": {"index": 5}}}, {"doubleSided": true, "name": "wooden_barrels_01_pieces", "normalTexture": {"index": 6}, "pbrMetallicRoughness": {"baseColorTexture": {"index": 7}, "metallicRoughnessTexture": {"index": 8}}}]}