{"asset": {"version": "2.0", "generator": "EMERGENT tools/make_lods.py"}, "scene": 0, "scenes": [{"name": "Scene", "nodes": [0, 1]}], "nodes": [{"mesh": 0, "name": "wooden_crate_02_crate"}, {"mesh": 1, "name": "wooden_crate_02_lid", "translation": [0.00018336623907089233, 0.4205015301704407, -0.00017756223678588867]}], "meshes": [{"primitives": [{"attributes": {"POSITION": 0, "NORMAL": 1, "TEXCOORD_0": 2}, "indices": 3, "mode": 4, "material": 0}]}, {"primitives": [{"attributes": {"POSITION": 4, "NORMAL": 5, "TEXCOORD_0": 6}, "indices": 7, "mode": 4, "material": 0}]}], "accessors": [{"bufferView": 0, "componentType": 5126, "count": 3155, "type": "VEC3", "min": [-0.26455047726631165, -0.009823650121688843, -0.5833403468132019], "max": [0.26455047726631165, 0.43545737862586975, 0.5829854607582092]}, {"bufferView": 1, "componentType": 5126, "count": 3155, "type": "VEC3", "min": null, "max": null}, {"bufferView": 2, "componentType": 5126, "count": 3155, "type": "VEC2", "min": null, "max": null}, {"bufferView": 3, "componentType": 5123, "count": 13476, "type": "SCALAR"}, {"bufferView": 4, "componentType": 5126, "count": 564, "type": "VEC3", "min": [-0.2393137514591217, -0.03362937271595001, -0.5199965238571167], "max": [0.2393137514591217, 0.03362937271595001, 0.5199965834617615]}, {"bufferView": 5, "componentType": 5126, "count": 564, "type": "VEC3", "min": null, "max": null}, {"bufferView": 6, "componentType": 5126, "count": 564, "type": "VEC2", "min": null, "max": null}, {"bufferView": 7, "componentType": 5123, "count": 2052, "type": "SCALAR"}], "bufferViews": [{"buffer": 0, "byteOffset": 0, "byteLength": 37860, "target": 34962}, {"buffer": 0, "byteOffset": 37860, "byteLength": 37860, "target": 34962}, {"buffer": 0, "byteOffset": 75720, "byteLength": 25240, "target": 34962}, {"buffer": 0, "byteOffset": 100960, "byteLength": 26952, "target": 34963}, {"buffer": 0, "byteOffset": 127912, "byteLength": 6768, "target": 34962}, {"buffer": 0, "byteOffset": 134680, "byteLength": 6768, "target": 34962}, {"buffer": 0, "byteOffset": 141448, "byteLength": 4512, "target": 34962}, {"buffer": 0, "byteOffset": 145960, "byteLength": 4104, "target": 34963}], "buffers": [{"byteLength": 150064, "uri": "lod0.bin"}], "images": [{"mimeType": "image/jpeg", "name": "wooden_crate_02_nor_gl", "uri": "wooden_crate_02_nor_gl_1k.jpg"}, {"mimeType": "image/jpeg", "name": "wooden_crate_02_diff", "uri": "wooden_crate_02_diff_1k.jpg"}, {"mimeType": "image/jpeg", "name": "wooden_crate_02_metal-wooden_crate_02_rough", "uri": "wooden_crate_02_arm_1k.jpg"}], "samplers": [{"magFilter": 9729, "minFilter": 9987}], "textures": [{"sampler": 0, "source": 0}, {"sampler": 0, "source": 1}, {"sampler": 0, "source": 2}], "materials": [{"doubleSided": true, "name": "wooden_crate_02", "normalTexture": {"index": 0}, "pbrMetallicRoughness": {"baseColorTexture": {"index": 1}, "metallicRoughnessTexture": {"index": 2}}}]}