{"asset": {"version": "2.0", "generator": "EMERGENT tools/make_lods.py"}, "scene": 0, "scenes": [{"name": "Scene", "nodes": [0, 1]}], "nodes": [{"mesh": 0, "name": "wooden_crate_02_crate"}, {"mesh": 1, "name": "wooden_crate_02_lid", "translation": [0.00018336623907089233, 0.4205015301704407, -0.00017756223678588867]}], "meshes": [{"primitives": [{"attributes": {"POSITION": 0, "NORMAL": 1, "TEXCOORD_0": 2}, "indices": 3, "mode": 4, "material": 0}]}, {"primitives": [{"attributes": {"POSITION": 4, "NORMAL": 5, "TEXCOORD_0": 6}, "indices": 7, "mode": 4, "material": 0}]}], "accessors": [{"bufferView": 0, "componentType": 5126, "count": 1007, "type": "VEC3", "min": [-0.26345404982566833, -0.009823638014495373, -0.5815649231274923], "max": [0.26345404982566833, 0.43545737862586975, 0.5829854607582092]}, {"bufferView": 1, "componentType": 5126, "count": 1007, "type": "VEC3", "min": null, "max": null}, {"bufferView": 2, "componentType": 5126, "count": 1007, "type": "VEC2", "min": null, "max": null}, {"bufferView": 3, "componentType": 5123, "count": 6252, "type": "SCALAR"}, {"bufferView": 4, "componentType": 5126, "count": 86, "type": "VEC3", "min": [-0.23904635814520028, -0.033228665590286255, -0.5198300600051879], "max": [0.23867963139827436, 0.03362937271595001, 0.5199965834617615]}, {"bufferView": 5, "componentType": 5126, "count": 86, "type": "VEC3", "min": null, "max": null}, {"bufferView": 6, "componentType": 5126, "count": 86, "type": "VEC2", "min": null, "max": null}, {"bufferView": 7, "componentType": 5123, "count": 522, "type": "SCALAR"}], "bufferViews": [{"buffer": 0, "byteOffset": 0, "byteLength": 12084, "target": 34962}, {"buffer": 0, "byteOffset": 12084, "byteLength": 12084, "target": 34962}, {"buffer": 0, "byteOffset": 24168, "byteLength": 8056, "target": 34962}, {"buffer": 0, "byteOffset": 32224, "byteLength": 12504, "target": 34963}, {"buffer": 0, "byteOffset": 44728, "byteLength": 1032, "target": 34962}, {"buffer": 0, "byteOffset": 45760, "byteLength": 1032, "target": 34962}, {"buffer": 0, "byteOffset": 46792, "byteLength": 688, "target": 34962}, {"buffer": 0, "byteOffset": 47480, "byteLength": 1044, "target": 34963}], "buffers": [{"byteLength": 48524, "uri": "lod1.bin"}], "images": [{"mimeType": "image/jpeg", "name": "wooden_crate_02_nor_gl", "uri": "wooden_crate_02_nor_gl_1k.jpg"}, {"mimeType": "image/jpeg", "name": "wooden_crate_02_diff", "uri": "wooden_crate_02_diff_1k.jpg"}, {"mimeType": "image/jpeg", "name": "wooden_crate_02_metal-wooden_crate_02_rough", "uri": "wooden_crate_02_arm_1k.jpg"}], "samplers": [{"magFilter": 9729, "minFilter": 9987}], "textures": [{"sampler": 0, "source": 0}, {"sampler": 0, "source": 1}, {"sampler": 0, "source": 2}], "materials": [{"doubleSided": true, "name": "wooden_crate_02", "normalTexture": {"index": 0}, "pbrMetallicRoughness": {"baseColorTexture": {"index": 1}, "metallicRoughnessTexture": {"index": 2}}}]}