{"asset": {"version": "2.0", "generator": "EMERGENT tools/make_lods.py"}, "scene": 0, "scenes": [{"name": "Scene", "nodes": [0, 1]}], "nodes": [{"mesh": 0, "name": "wooden_crate_02_crate"}, {"mesh": 1, "name": "wooden_crate_02_lid", "translation": [0.00018336623907089233, 0.4205015301704407, -0.00017756223678588867]}], "meshes": [{"primitives": [{"attributes": {"POSITION": 0, "NORMAL": 1, "TEXCOORD_0": 2}, "indices": 3, "mode": 4, "material": 0}]}, {"primitives": [{"attributes": {"POSITION": 4, "NORMAL": 5, "TEXCOORD_0": 6}, "indices": 7, "mode": 4, "material": 0}]}], "accessors": [{"bufferView": 0, "componentType": 5126, "count": 169, "type": "VEC3", "min": [-0.258853695458836, -0.00048098677006058553, -0.5563562300581447], "max": [0.2592142108413908, 0.43522509187459946, 0.5829854607582092]}, {"bufferView": 1, "componentType": 5126, "count": 169, "type": "VEC3", "min": null, "max": null}, {"bufferView": 2, "componentType": 5126, "count": 169, "type": "VEC2", "min": null, "max": null}, {"bufferView": 3, "componentType": 5123, "count": 825, "type": "SCALAR"}, {"bufferView": 4, "componentType": 5126, "count": 22, "type": "VEC3", "min": [-0.2342942158381144, -0.032647422204415, -0.5126575082540512], "max": [0.23839504611797824, 0.024744422867672627, 0.5199965834617615]}, {"bufferView": 5, "componentType": 5126, "count": 22, "type": "VEC3", "min": null, "max": null}, {"bufferView": 6, "componentType": 5126, "count": 22, "type": "VEC2", "min": null, "max": null}, {"bufferView": 7, "componentType": 5123, "count": 186, "type": "SCALAR"}], "bufferViews": [{"buffer": 0, "byteOffset": 0, "byteLength": 2028, "target": 34962}, {"buffer": 0, "byteOffset": 2028, "byteLength": 2028, "target": 34962}, {"buffer": 0, "byteOffset": 4056, "byteLength": 1352, "target": 34962}, {"buffer": 0, "byteOffset": 5408, "byteLength": 1650, "target": 34963}, {"buffer": 0, "byteOffset": 7060, "byteLength": 264, "target": 34962}, {"buffer": 0, "byteOffset": 7324, "byteLength": 264, "target": 34962}, {"buffer": 0, "byteOffset": 7588, "byteLength": 176, "target": 34962}, {"buffer": 0, "byteOffset": 7764, "byteLength": 372, "target": 34963}], "buffers": [{"byteLength": 8136, "uri": "lod2.bin"}], "images": [{"mimeType": "image/jpeg", "name": "wooden_crate_02_nor_gl", "uri": "wooden_crate_02_nor_gl_1k.jpg"}, {"mimeType": "image/jpeg", "name": "wooden_crate_02_diff", "uri": "wooden_crate_02_diff_1k.jpg"}, {"mimeType": "image/jpeg", "name": "wooden_crate_02_metal-wooden_crate_02_rough", "uri": "wooden_crate_02_arm_1k.jpg"}], "samplers": [{"magFilter": 9729, "minFilter": 9987}], "textures": [{"sampler": 0, "source": 0}, {"sampler": 0, "source": 1}, {"sampler": 0, "source": 2}], "materials": [{"doubleSided": true, "name": "wooden_crate_02", "normalTexture": {"index": 0}, "pbrMetallicRoughness": {"baseColorTexture": {"index": 1}, "metallicRoughnessTexture": {"index": 2}}}]}