{"asset": {"version": "2.0", "generator": "EMERGENT tools/make_lods.py"}, "scene": 0, "scenes": [{"name": "Scene", "nodes": [0, 1, 2, 3, 4, 5, 6, 7, 8, 9]}], "nodes": [{"mesh": 0, "name": "old_military_crate_lid_a", "translation": [-0.35402026772499084, 0.2509384751319885, -0.22201603651046753]}, {"mesh": 1, "name": "old_military_crate_loop_a", "translation": [-0.5, 0.20923833549022675, 0.22309820353984833]}, {"mesh": 2, "name": "old_military_crate_latch_a", "translation": [-0.5, 0.2271214872598648, 0.22715239226818085]}, {"mesh": 3, "name": "old_military_crate_cloth_a", "translation": [-0.5, 0.02412991225719452, 0]}, {"mesh": 4, "name": "old_military_crate_a", "translation": [-0.5, 0, 0]}, {"mesh": 0, "name": "old_military_crate_lid_b", "rotation": [0.9955394864082336, 0, 0, 0.09434600174427032], "translation": [0.6459797620773315, 0.2509384751319885, -0.22201603651046753]}, {"mesh": 1, "name": "old_military_crate_loop_b", "rotation": [0.9830907583236694, 0, 0, 0.183118999004364], "translation": [0.5, 0.20923833549022675, 0.22309820353984833]}, {"mesh": 2, "name": "old_military_crate_latch_b", "translation": [0.5, 0.2271214872598648, 0.22715239226818085]}, {"mesh": 3, "name": "old_military_crate_cloth_b", "translation": [0.5, 0.02412991225719452, 0]}, {"mesh": 4, "name": "old_military_crate_b", "translation": [0.5, 0, 0]}], "meshes": [{"primitives": [{"attributes": {"POSITION": 0, "NORMAL": 1, "TEXCOORD_0": 2}, "indices": 3, "mode": 4, "material": 0}]}, {"primitives": [{"attributes": {"POSITION": 4, "NORMAL": 5, "TEXCOORD_0": 6}, "indices": 7, "mode": 4, "material": 0}]}, {"primitives": [{"attributes": {"POSITION": 8, "NORMAL": 9, "TEXCOORD_0": 10}, "indices": 11, "mode": 4, "material": 0}]}, {"primitives": [{"attributes": {"POSITION": 12, "NORMAL": 13, "TEXCOORD_0": 14}, "indices": 15, "mode": 4, "material": 0}]}, {"primitives": [{"attributes": {"POSITION": 16, "NORMAL": 17, "TEXCOORD_0": 18}, "indices": 19, "mode": 4, "material": 0}]}], "accessors": [{"bufferView": 0, "componentType": 5126, "count": 1905, "type": "VEC3", "min": [-0.5309795141220093, -0.006987437605857849, -0.006987273693084717], "max": [0.23902001976966858, 0.04998007416725159, 0.45525094866752625]}, {"bufferView": 1, "componentType": 5126, "count": 1905, "type": "VEC3", "min": null, "max": null}, {"bufferView": 2, "componentType": 5126, "count": 1905, "type": "VEC2", "min": null, "max": null}, {"bufferView": 3, "componentType": 5123, "count": 6531, "type": "SCALAR"}, {"bufferView": 4, "componentType": 5126, "count": 396, "type": "VEC3", "min": [-0.2180439531803131, -0.00280921533703804, -0.003393358550965786], "max": [0.2180439531803131, 0.059892021119594574, 0.0026321765035390854]}, {"bufferView": 5, "componentType": 5126, "count": 396, "type": "VEC3", "min": null, "max": null}, {"bufferView": 6, "componentType": 5126, "count": 396, "type": "VEC2", "min": null, "max": null}, {"bufferView": 7, "componentType": 5123, "count": 1980, "type": "SCALAR"}, {"bufferView": 8, "componentType": 5126, "count": 1096, "type": "VEC3", "min": [-0.2077636569738388, -0.10190777480602264, -0.008944803848862648], "max": [0.2077636420726776, 0.008554084226489067, 0.010558091104030609]}, {"bufferView": 9, "componentType": 5126, "count": 1096, "type": "VEC3", "min": null, "max": null}, {"bufferView": 10, "componentType": 5126, "count": 1096, "type": "VEC2", "min": null, "max": null}, {"bufferView": 11, "componentType": 5123, "count": 3384, "type": "SCALAR"}, {"bufferView": 12, "componentType": 5126, "count": 1038, "type": "VEC3", "min": [-0.41303572058677673, 0.022089749574661255, -0.1881302297115326], "max": [0.3041503429412842, 0.23409703373908997, 0.30862098932266235]}, {"bufferView": 13, "componentType": 5126, "count": 1038, "type": "VEC3", "min": null, "max": null}, {"bufferView": 14, "componentType": 5126, "count": 1038, "type": "VEC2", "min": null, "max": null}, {"bufferView": 15, "componentType": 5123, "count": 5418, "type": "SCALAR"}, {"bufferView": 16, "componentType": 5126, "count": 3882, "type": "VEC3", "min": [-0.40234997868537903, -1.4290213584899902e-05, -0.2290036678314209], "max": [0.40234997868537903, 0.25792616605758667, 0.21899999678134918]}, {"bufferView": 17, "componentType": 5126, "count": 3882, "type": "VEC3", "min": null, "max": null}, {"bufferView": 18, "componentType": 5126, "count": 3882, "type": "VEC2", "min": null, "max": null}, {"bufferView": 19, "componentType": 5123, "count": 14115, "type": "SCALAR"}], "bufferViews": [{"buffer": 0, "byteOffset": 0, "byteLength": 22860, "target": 34962}, {"buffer": 0, "byteOffset": 22860, "byteLength": 22860, "target": 34962}, {"buffer": 0, "byteOffset": 45720, "byteLength": 15240, "target": 34962}, {"buffer": 0, "byteOffset": 60960, "byteLength": 13062, "target": 34963}, {"buffer": 0, "byteOffset": 74024, "byteLength": 4752, "target": 34962}, {"buffer": 0, "byteOffset": 78776, "byteLength": 4752, "target": 34962}, {"buffer": 0, "byteOffset": 83528, "byteLength": 3168, "target": 34962}, {"buffer": 0, "byteOffset": 86696, "byteLength": 3960, "target": 34963}, {"buffer": 0, "byteOffset": 90656, "byteLength": 13152, "target": 34962}, {"buffer": 0, "byteOffset": 103808, "byteLength": 13152, "target": 34962}, {"buffer": 0, "byteOffset": 116960, "byteLength": 8768, "target": 34962}, {"buffer": 0, "byteOffset": 125728, "byteLength": 6768, "target": 34963}, {"buffer": 0, "byteOffset": 132496, "byteLength": 12456, "target": 34962}, {"buffer": 0, "byteOffset": 144952, "byteLength": 12456, "target": 34962}, {"buffer": 0, "byteOffset": 157408, "byteLength": 8304, "target": 34962}, {"buffer": 0, "byteOffset": 165712, "byteLength": 10836, "target": 34963}, {"buffer": 0, "byteOffset": 176548, "byteLength": 46584, "target": 34962}, {"buffer": 0, "byteOffset": 223132, "byteLength": 46584, "target": 34962}, {"buffer": 0, "byteOffset": 269716, "byteLength": 31056, "target": 34962}, {"buffer": 0, "byteOffset": 300772, "byteLength": 28230, "target": 34963}], "buffers": [{"byteLength": 329002, "uri": "lod0.bin"}], "images": [{"mimeType": "image/jpeg", "name": "old_military_crate_nor_gl", "uri": "old_military_crate_nor_gl_1k.jpg"}, {"mimeType": "image/jpeg", "name": "old_military_crate_diff", "uri": "old_military_crate_diff_1k.jpg"}, {"mimeType": "image/jpeg", "name": "old_military_crate_metal-old_military_crate_rough", "uri": "old_military_crate_arm_1k.jpg"}], "samplers": [{"magFilter": 9729, "minFilter": 9987}], "textures": [{"sampler": 0, "source": 0}, {"sampler": 0, "source": 1}, {"sampler": 0, "source": 2}], "materials": [{"doubleSided": true, "name": "military_crate_m_01", "normalTexture": {"index": 0}, "pbrMetallicRoughness": {"baseColorTexture": {"index": 1}, "metallicRoughnessTexture": {"index": 2}}}]}