{"asset": {"version": "2.0", "generator": "EMERGENT tools/make_lods.py"}, "scene": 0, "scenes": [{"name": "Scene", "nodes": [0, 1, 2, 3, 4, 5, 6, 7, 8, 9]}], "nodes": [{"mesh": 0, "name": "old_military_crate_lid_a", "translation": [-0.35402026772499084, 0.2509384751319885, -0.22201603651046753]}, {"mesh": 1, "name": "old_military_crate_loop_a", "translation": [-0.5, 0.20923833549022675, 0.22309820353984833]}, {"mesh": 2, "name": "old_military_crate_latch_a", "translation": [-0.5, 0.2271214872598648, 0.22715239226818085]}, {"mesh": 3, "name": "old_military_crate_cloth_a", "translation": [-0.5, 0.02412991225719452, 0]}, {"mesh": 4, "name": "old_military_crate_a", "translation": [-0.5, 0, 0]}, {"mesh": 0, "name": "old_military_crate_lid_b", "rotation": [0.9955394864082336, 0, 0, 0.09434600174427032], "translation": [0.6459797620773315, 0.2509384751319885, -0.22201603651046753]}, {"mesh": 1, "name": "old_military_crate_loop_b", "rotation": [0.9830907583236694, 0, 0, 0.183118999004364], "translation": [0.5, 0.20923833549022675, 0.22309820353984833]}, {"mesh": 2, "name": "old_military_crate_latch_b", "translation": [0.5, 0.2271214872598648, 0.22715239226818085]}, {"mesh": 3, "name": "old_military_crate_cloth_b", "translation": [0.5, 0.02412991225719452, 0]}, {"mesh": 4, "name": "old_military_crate_b", "translation": [0.5, 0, 0]}], "meshes": [{"primitives": [{"attributes": {"POSITION": 0, "NORMAL": 1, "TEXCOORD_0": 2}, "indices": 3, "mode": 4, "material": 0}]}, {"primitives": [{"attributes": {"POSITION": 4, "NORMAL": 5, "TEXCOORD_0": 6}, "indices": 7, "mode": 4, "material": 0}]}, {"primitives": [{"attributes": {"POSITION": 8, "NORMAL": 9, "TEXCOORD_0": 10}, "indices": 11, "mode": 4, "material": 0}]}, {"primitives": [{"attributes": {"POSITION": 12, "NORMAL": 13, "TEXCOORD_0": 14}, "indices": 15, "mode": 4, "material": 0}]}, {"primitives": [{"attributes": {"POSITION": 16, "NORMAL": 17, "TEXCOORD_0": 18}, "indices": 19, "mode": 4, "material": 0}]}], "accessors": [{"bufferView": 0, "componentType": 5126, "count": 397, "type": "VEC3", "min": [-0.5309795141220093, -0.003828583285212517, -0.004366619512438774], "max": [0.23902001976966858, 0.0499800443649292, 0.4543474167585373]}, {"bufferView": 1, "componentType": 5126, "count": 397, "type": "VEC3", "min": null, "max": null}, {"bufferView": 2, "componentType": 5126, "count": 397, "type": "VEC2", "min": null, "max": null}, {"bufferView": 3, "componentType": 5123, "count": 2334, "type": "SCALAR"}, {"bufferView": 4, "componentType": 5126, "count": 140, "type": "VEC3", "min": [-0.21683238943417868, -0.0015116357244551182, -0.003387050237506628], "max": [0.21683238943417868, 0.05989060737192631, 0.0026321765035390854]}, {"bufferView": 5, "componentType": 5126, "count": 140, "type": "VEC3", "min": null, "max": null}, {"bufferView": 6, "componentType": 5126, "count": 140, "type": "VEC2", "min": null, "max": null}, {"bufferView": 7, "componentType": 5123, "count": 840, "type": "SCALAR"}, {"bufferView": 8, "componentType": 5126, "count": 209, "type": "VEC3", "min": [-0.20776347815990448, -0.10190777480602264, -0.008944803848862648], "max": [0.2077636420726776, 0.008320632701118788, 0.010558091104030609]}, {"bufferView": 9, "componentType": 5126, "count": 209, "type": "VEC3", "min": null, "max": null}, {"bufferView": 10, "componentType": 5126, "count": 209, "type": "VEC2", "min": null, "max": null}, {"bufferView": 11, "componentType": 5123, "count": 1302, "type": "SCALAR"}, {"bufferView": 12, "componentType": 5126, "count": 803, "type": "VEC3", "min": [-0.4110380907853444, 0.022089749574661255, -0.18713118632634482], "max": [0.3041503429412842, 0.23409703373908997, 0.3085816999276479]}, {"bufferView": 13, "componentType": 5126, "count": 803, "type": "VEC3", "min": null, "max": null}, {"bufferView": 14, "componentType": 5126, "count": 803, "type": "VEC2", "min": null, "max": null}, {"bufferView": 15, "componentType": 5123, "count": 4992, "type": "SCALAR"}, {"bufferView": 16, "componentType": 5126, "count": 753, "type": "VEC3", "min": [-0.40174511075019836, -1.4081597328186035e-05, -0.2282024323940277], "max": [0.40234997868537903, 0.2566107213497162, 0.21899999678134918]}, {"bufferView": 17, "componentType": 5126, "count": 753, "type": "VEC3", "min": null, "max": null}, {"bufferView": 18, "componentType": 5126, "count": 753, "type": "VEC2", "min": null, "max": null}, {"bufferView": 19, "componentType": 5123, "count": 4437, "type": "SCALAR"}], "bufferViews": [{"buffer": 0, "byteOffset": 0, "byteLength": 4764, "target": 34962}, {"buffer": 0, "byteOffset": 4764, "byteLength": 4764, "target": 34962}, {"buffer": 0, "byteOffset": 9528, "byteLength": 3176, "target": 34962}, {"buffer": 0, "byteOffset": 12704, "byteLength": 4668, "target": 34963}, {"buffer": 0, "byteOffset": 17372, "byteLength": 1680, "target": 34962}, {"buffer": 0, "byteOffset": 19052, "byteLength": 1680, "target": 34962}, {"buffer": 0, "byteOffset": 20732, "byteLength": 1120, "target": 34962}, {"buffer": 0, "byteOffset": 21852, "byteLength": 1680, "target": 34963}, {"buffer": 0, "byteOffset": 23532, "byteLength": 2508, "target": 34962}, {"buffer": 0, "byteOffset": 26040, "byteLength": 2508, "target": 34962}, {"buffer": 0, "byteOffset": 28548, "byteLength": 1672, "target": 34962}, {"buffer": 0, "byteOffset": 30220, "byteLength": 2604, "target": 34963}, {"buffer": 0, "byteOffset": 32824, "byteLength": 9636, "target": 34962}, {"buffer": 0, "byteOffset": 42460, "byteLength": 9636, "target": 34962}, {"buffer": 0, "byteOffset": 52096, "byteLength": 6424, "target": 34962}, {"buffer": 0, "byteOffset": 58520, "byteLength": 9984, "target": 34963}, {"buffer": 0, "byteOffset": 68504, "byteLength": 9036, "target": 34962}, {"buffer": 0, "byteOffset": 77540, "byteLength": 9036, "target": 34962}, {"buffer": 0, "byteOffset": 86576, "byteLength": 6024, "target": 34962}, {"buffer": 0, "byteOffset": 92600, "byteLength": 8874, "target": 34963}], "buffers": [{"byteLength": 101474, "uri": "lod1.bin"}], "images": [{"mimeType": "image/jpeg", "name": "old_military_crate_nor_gl", "uri": "old_military_crate_nor_gl_1k.jpg"}, {"mimeType": "image/jpeg", "name": "old_military_crate_diff", "uri": "old_military_crate_diff_1k.jpg"}, {"mimeType": "image/jpeg", "name": "old_military_crate_metal-old_military_crate_rough", "uri": "old_military_crate_arm_1k.jpg"}], "samplers": [{"magFilter": 9729, "minFilter": 9987}], "textures": [{"sampler": 0, "source": 0}, {"sampler": 0, "source": 1}, {"sampler": 0, "source": 2}], "materials": [{"doubleSided": true, "name": "military_crate_m_01", "normalTexture": {"index": 0}, "pbrMetallicRoughness": {"baseColorTexture": {"index": 1}, "metallicRoughnessTexture": {"index": 2}}}]}