{"asset": {"version": "2.0", "generator": "EMERGENT tools/make_lods.py"}, "scene": 0, "scenes": [{"name": "Scene", "nodes": [0, 1, 2, 3, 4, 5, 6, 7, 8, 9]}], "nodes": [{"mesh": 0, "name": "old_military_crate_lid_a", "translation": [-0.35402026772499084, 0.2509384751319885, -0.22201603651046753]}, {"mesh": 1, "name": "old_military_crate_loop_a", "translation": [-0.5, 0.20923833549022675, 0.22309820353984833]}, {"mesh": 2, "name": "old_military_crate_latch_a", "translation": [-0.5, 0.2271214872598648, 0.22715239226818085]}, {"mesh": 3, "name": "old_military_crate_cloth_a", "translation": [-0.5, 0.02412991225719452, 0]}, {"name": "old_military_crate_a", "translation": [-0.5, 0, 0]}, {"mesh": 0, "name": "old_military_crate_lid_b", "rotation": [0.9955394864082336, 0, 0, 0.09434600174427032], "translation": [0.6459797620773315, 0.2509384751319885, -0.22201603651046753]}, {"mesh": 1, "name": "old_military_crate_loop_b", "rotation": [0.9830907583236694, 0, 0, 0.183118999004364], "translation": [0.5, 0.20923833549022675, 0.22309820353984833]}, {"mesh": 2, "name": "old_military_crate_latch_b", "translation": [0.5, 0.2271214872598648, 0.22715239226818085]}, {"mesh": 3, "name": "old_military_crate_cloth_b", "translation": [0.5, 0.02412991225719452, 0]}, {"name": "old_military_crate_b", "translation": [0.5, 0, 0]}], "meshes": [{"primitives": [{"attributes": {"POSITION": 0, "NORMAL": 1, "TEXCOORD_0": 2}, "indices": 3, "mode": 4, "material": 0}]}, {"primitives": [{"attributes": {"POSITION": 4, "NORMAL": 5, "TEXCOORD_0": 6}, "indices": 7, "mode": 4, "material": 0}]}, {"primitives": [{"attributes": {"POSITION": 8, "NORMAL": 9, "TEXCOORD_0": 10}, "indices": 11, "mode": 4, "material": 0}]}, {"primitives": [{"attributes": {"POSITION": 12, "NORMAL": 13, "TEXCOORD_0": 14}, "indices": 15, "mode": 4, "material": 0}]}], "accessors": [{"bufferView": 0, "componentType": 5126, "count": 53, "type": "VEC3", "min": [-0.5288007663441944, 0.010628107724926433, 0.0022082555554512624], "max": [0.23902001976966858, 0.04932163655757904, 0.4458010085631488]}, {"bufferView": 1, "componentType": 5126, "count": 53, "type": "VEC3", "min": null, "max": null}, {"bufferView": 2, "componentType": 5126, "count": 53, "type": "VEC2", "min": null, "max": null}, {"bufferView": 3, "componentType": 5123, "count": 312, "type": "SCALAR"}, {"bufferView": 4, "componentType": 5126, "count": 17, "type": "VEC3", "min": [-0.20583564322441816, -0.08655311741210796, -0.008944803848862648], "max": [0.2077636420726776, -2.1529979201273617e-05, 0.001975987150742367]}, {"bufferView": 5, "componentType": 5126, "count": 17, "type": "VEC3", "min": null, "max": null}, {"bufferView": 6, "componentType": 5126, "count": 17, "type": "VEC2", "min": null, "max": null}, {"bufferView": 7, "componentType": 5123, "count": 78, "type": "SCALAR"}, {"bufferView": 8, "componentType": 5126, "count": 167, "type": "VEC3", "min": [-0.4110380907853444, 0.025392002322607573, -0.18689682417445716], "max": [0.3041503429412842, 0.23069285750389099, 0.2913734277089437]}, {"bufferView": 9, "componentType": 5126, "count": 167, "type": "VEC3", "min": null, "max": null}, {"bufferView": 10, "componentType": 5126, "count": 167, "type": "VEC2", "min": null, "max": null}, {"bufferView": 11, "componentType": 5123, "count": 1161, "type": "SCALAR"}, {"bufferView": 12, "componentType": 5126, "count": 98, "type": "VEC3", "min": [-0.3942547048634612, 0.0006441026926040649, -0.220652606799489], "max": [0.40234997868537903, 0.24933748202664513, 0.21700000017881393]}, {"bufferView": 13, "componentType": 5126, "count": 98, "type": "VEC3", "min": null, "max": null}, {"bufferView": 14, "componentType": 5126, "count": 98, "type": "VEC2", "min": null, "max": null}, {"bufferView": 15, "componentType": 5123, "count": 408, "type": "SCALAR"}], "bufferViews": [{"buffer": 0, "byteOffset": 0, "byteLength": 636, "target": 34962}, {"buffer": 0, "byteOffset": 636, "byteLength": 636, "target": 34962}, {"buffer": 0, "byteOffset": 1272, "byteLength": 424, "target": 34962}, {"buffer": 0, "byteOffset": 1696, "byteLength": 624, "target": 34963}, {"buffer": 0, "byteOffset": 2320, "byteLength": 204, "target": 34962}, {"buffer": 0, "byteOffset": 2524, "byteLength": 204, "target": 34962}, {"buffer": 0, "byteOffset": 2728, "byteLength": 136, "target": 34962}, {"buffer": 0, "byteOffset": 2864, "byteLength": 156, "target": 34963}, {"buffer": 0, "byteOffset": 3020, "byteLength": 2004, "target": 34962}, {"buffer": 0, "byteOffset": 5024, "byteLength": 2004, "target": 34962}, {"buffer": 0, "byteOffset": 7028, "byteLength": 1336, "target": 34962}, {"buffer": 0, "byteOffset": 8364, "byteLength": 2322, "target": 34963}, {"buffer": 0, "byteOffset": 10688, "byteLength": 1176, "target": 34962}, {"buffer": 0, "byteOffset": 11864, "byteLength": 1176, "target": 34962}, {"buffer": 0, "byteOffset": 13040, "byteLength": 784, "target": 34962}, {"buffer": 0, "byteOffset": 13824, "byteLength": 816, "target": 34963}], "buffers": [{"byteLength": 14640, "uri": "lod2.bin"}], "images": [{"mimeType": "image/jpeg", "name": "old_military_crate_nor_gl", "uri": "old_military_crate_nor_gl_1k.jpg"}, {"mimeType": "image/jpeg", "name": "old_military_crate_diff", "uri": "old_military_crate_diff_1k.jpg"}, {"mimeType": "image/jpeg", "name": "old_military_crate_metal-old_military_crate_rough", "uri": "old_military_crate_arm_1k.jpg"}], "samplers": [{"magFilter": 9729, "minFilter": 9987}], "textures": [{"sampler": 0, "source": 0}, {"sampler": 0, "source": 1}, {"sampler": 0, "source": 2}], "materials": [{"doubleSided": true, "name": "military_crate_m_01", "normalTexture": {"index": 0}, "pbrMetallicRoughness": {"baseColorTexture": {"index": 1}, "metallicRoughnessTexture": {"index": 2}}}]}