{"asset": {"version": "2.0", "generator": "EMERGENT tools/make_lods.py"}, "scene": 0, "scenes": [{"name": "Scene", "nodes": [0, 1, 2]}], "nodes": [{"mesh": 0, "name": "wooden_lantern_01", "translation": [0, 0.0014258272713050246, 0]}, {"mesh": 1, "name": "wooden_lantern_01_door", "translation": [0.06251434236764908, 0.17132970690727234, 0.08911173045635223]}, {"mesh": 2, "name": "wooden_lantern_01_handle", "translation": [5.633384353131987e-05, 0.3528529107570648, 5.396036431193352e-05]}], "meshes": [{"primitives": [{"attributes": {"POSITION": 0, "NORMAL": 1, "TEXCOORD_0": 2}, "indices": 3, "mode": 4, "material": 0}]}, {"primitives": [{"attributes": {"POSITION": 4, "NORMAL": 5, "TEXCOORD_0": 6}, "indices": 7, "mode": 4, "material": 0}]}, {"primitives": [{"attributes": {"POSITION": 8, "NORMAL": 9, "TEXCOORD_0": 10}, "indices": 11, "mode": 4, "material": 0}]}], "accessors": [{"bufferView": 0, "componentType": 5126, "count": 4652, "type": "VEC3", "min": [-0.11051704734563828, -0.012800931930541992, -0.11054381728172302], "max": [0.1105310469865799, 0.39147621393203735, 0.11048129945993423]}, {"bufferView": 1, "componentType": 5126, "count": 4652, "type": "VEC3", "min": null, "max": null}, {"bufferView": 2, "componentType": 5126, "count": 4652, "type": "VEC2", "min": null, "max": null}, {"bufferView": 3, "componentType": 5123, "count": 16857, "type": "SCALAR"}, {"bufferView": 4, "componentType": 5126, "count": 1742, "type": "VEC3", "min": [-0.13467076420783997, -0.1553288847208023, -0.013177457265555859], "max": [0.009767673909664154, 0.1553288698196411, 0.035068873316049576]}, {"bufferView": 5, "componentType": 5126, "count": 1742, "type": "VEC3", "min": null, "max": null}, {"bufferView": 6, "componentType": 5126, "count": 1742, "type": "VEC2", "min": null, "max": null}, {"bufferView": 7, "componentType": 5123, "count": 6162, "type": "SCALAR"}, {"bufferView": 8, "componentType": 5126, "count": 425, "type": "VEC3", "min": [-0.08734405785799026, -0.0067346468567848206, -0.008794775232672691], "max": [0.09037286043167114, 0.165908545255661, 0.004363165237009525]}, {"bufferView": 9, "componentType": 5126, "count": 425, "type": "VEC3", "min": null, "max": null}, {"bufferView": 10, "componentType": 5126, "count": 425, "type": "VEC2", "min": null, "max": null}, {"bufferView": 11, "componentType": 5123, "count": 1944, "type": "SCALAR"}], "bufferViews": [{"buffer": 0, "byteOffset": 0, "byteLength": 55824, "target": 34962}, {"buffer": 0, "byteOffset": 55824, "byteLength": 55824, "target": 34962}, {"buffer": 0, "byteOffset": 111648, "byteLength": 37216, "target": 34962}, {"buffer": 0, "byteOffset": 148864, "byteLength": 33714, "target": 34963}, {"buffer": 0, "byteOffset": 182580, "byteLength": 20904, "target": 34962}, {"buffer": 0, "byteOffset": 203484, "byteLength": 20904, "target": 34962}, {"buffer": 0, "byteOffset": 224388, "byteLength": 13936, "target": 34962}, {"buffer": 0, "byteOffset": 238324, "byteLength": 12324, "target": 34963}, {"buffer": 0, "byteOffset": 250648, "byteLength": 5100, "target": 34962}, {"buffer": 0, "byteOffset": 255748, "byteLength": 5100, "target": 34962}, {"buffer": 0, "byteOffset": 260848, "byteLength": 3400, "target": 34962}, {"buffer": 0, "byteOffset": 264248, "byteLength": 3888, "target": 34963}], "buffers": [{"byteLength": 268136, "uri": "lod0.bin"}], "images": [{"mimeType": "image/jpeg", "name": "wooden_lantern_01_nor_gl", "uri": "wooden_lantern_01_nor_gl_1k.jpg"}, {"mimeType": "image/jpeg", "name": "wooden_lantern_01_diff", "uri": "wooden_lantern_01_diff_1k.jpg"}, {"mimeType": "image/jpeg", "name": "wooden_lantern_01_metal-wooden_lantern_01_rough", "uri": "wooden_lantern_01_arm_1k.jpg"}, {"mimeType": "image/jpeg", "name": "wooden_lantern_01_glass_nor_gl", "uri": "wooden_lantern_01_glass_nor_gl_1k.jpg"}, {"mimeType": "image/jpeg", "name": "wooden_lantern_01_glass_diff-wooden_lantern_01_glass_opacity", "uri": "wooden_lantern_01_glass_diff_1k.jpg"}, {"mimeType": "image/jpeg", "name": "wooden_lantern_01_glass_metal-wooden_lantern_01_glass_rough", "uri": "wooden_lantern_01_glass_arm_1k.jpg"}], "samplers": [{"magFilter": 9729, "minFilter": 9987}], "textures": [{"sampler": 0, "source": 0}, {"sampler": 0, "source": 1}, {"sampler": 0, "source": 2}, {"sampler": 0, "source": 3}, {"sampler": 0, "source": 4}, {"sampler": 0, "source": 5}], "materials": [{"doubleSided": true, "name": "wooden_lantern_01", "normalTexture": {"index": 0}, "pbrMetallicRoughness": {"baseColorTexture": {"index": 1}, "metallicRoughnessTexture": {"index": 2}}}, {"alphaMode": "BLEND", "doubleSided": true, "name": "wooden_lantern_01_glass", "normalTexture": {"index": 3}, "pbrMetallicRoughness": {"baseColorTexture": {"index": 4}, "metallicRoughnessTexture": {"index": 5}}}]}