{"asset": {"version": "2.0", "generator": "EMERGENT tools/make_lods.py"}, "scene": 0, "scenes": [{"name": "Scene", "nodes": [0, 1, 2]}], "nodes": [{"mesh": 0, "name": "wooden_lantern_01", "translation": [0, 0.0014258272713050246, 0]}, {"mesh": 1, "name": "wooden_lantern_01_door", "translation": [0.06251434236764908, 0.17132970690727234, 0.08911173045635223]}, {"mesh": 2, "name": "wooden_lantern_01_handle", "translation": [5.633384353131987e-05, 0.3528529107570648, 5.396036431193352e-05]}], "meshes": [{"primitives": [{"attributes": {"POSITION": 0, "NORMAL": 1, "TEXCOORD_0": 2}, "indices": 3, "mode": 4, "material": 0}]}, {"primitives": [{"attributes": {"POSITION": 4, "NORMAL": 5, "TEXCOORD_0": 6}, "indices": 7, "mode": 4, "material": 0}]}, {"primitives": [{"attributes": {"POSITION": 8, "NORMAL": 9, "TEXCOORD_0": 10}, "indices": 11, "mode": 4, "material": 0}]}], "accessors": [{"bufferView": 0, "componentType": 5126, "count": 1134, "type": "VEC3", "min": [-0.11051704734563828, -0.01184108853340149, -0.11054381728172302], "max": [0.1105310469865799, 0.39147621393203735, 0.11048129945993423]}, {"bufferView": 1, "componentType": 5126, "count": 1134, "type": "VEC3", "min": null, "max": null}, {"bufferView": 2, "componentType": 5126, "count": 1134, "type": "VEC2", "min": null, "max": null}, {"bufferView": 3, "componentType": 5123, "count": 6993, "type": "SCALAR"}, {"bufferView": 4, "componentType": 5126, "count": 336, "type": "VEC3", "min": [-0.13406996428966522, -0.1553288847208023, -0.012480896539413013], "max": [0.009366855025291443, 0.1553288698196411, 0.032519493252038956]}, {"bufferView": 5, "componentType": 5126, "count": 336, "type": "VEC3", "min": null, "max": null}, {"bufferView": 6, "componentType": 5126, "count": 336, "type": "VEC2", "min": null, "max": null}, {"bufferView": 7, "componentType": 5123, "count": 2226, "type": "SCALAR"}, {"bufferView": 8, "componentType": 5126, "count": 194, "type": "VEC3", "min": [-0.08644983917474747, -0.005619977201734271, -0.0071342514517406625], "max": [0.09037286043167114, 0.165908545255661, 0.004363165237009525]}, {"bufferView": 9, "componentType": 5126, "count": 194, "type": "VEC3", "min": null, "max": null}, {"bufferView": 10, "componentType": 5126, "count": 194, "type": "VEC2", "min": null, "max": null}, {"bufferView": 11, "componentType": 5123, "count": 1170, "type": "SCALAR"}], "bufferViews": [{"buffer": 0, "byteOffset": 0, "byteLength": 13608, "target": 34962}, {"buffer": 0, "byteOffset": 13608, "byteLength": 13608, "target": 34962}, {"buffer": 0, "byteOffset": 27216, "byteLength": 9072, "target": 34962}, {"buffer": 0, "byteOffset": 36288, "byteLength": 13986, "target": 34963}, {"buffer": 0, "byteOffset": 50276, "byteLength": 4032, "target": 34962}, {"buffer": 0, "byteOffset": 54308, "byteLength": 4032, "target": 34962}, {"buffer": 0, "byteOffset": 58340, "byteLength": 2688, "target": 34962}, {"buffer": 0, "byteOffset": 61028, "byteLength": 4452, "target": 34963}, {"buffer": 0, "byteOffset": 65480, "byteLength": 2328, "target": 34962}, {"buffer": 0, "byteOffset": 67808, "byteLength": 2328, "target": 34962}, {"buffer": 0, "byteOffset": 70136, "byteLength": 1552, "target": 34962}, {"buffer": 0, "byteOffset": 71688, "byteLength": 2340, "target": 34963}], "buffers": [{"byteLength": 74028, "uri": "lod1.bin"}], "images": [{"mimeType": "image/jpeg", "name": "wooden_lantern_01_nor_gl", "uri": "wooden_lantern_01_nor_gl_1k.jpg"}, {"mimeType": "image/jpeg", "name": "wooden_lantern_01_diff", "uri": "wooden_lantern_01_diff_1k.jpg"}, {"mimeType": "image/jpeg", "name": "wooden_lantern_01_metal-wooden_lantern_01_rough", "uri": "wooden_lantern_01_arm_1k.jpg"}, {"mimeType": "image/jpeg", "name": "wooden_lantern_01_glass_nor_gl", "uri": "wooden_lantern_01_glass_nor_gl_1k.jpg"}, {"mimeType": "image/jpeg", "name": "wooden_lantern_01_glass_diff-wooden_lantern_01_glass_opacity", "uri": "wooden_lantern_01_glass_diff_1k.jpg"}, {"mimeType": "image/jpeg", "name": "wooden_lantern_01_glass_metal-wooden_lantern_01_glass_rough", "uri": "wooden_lantern_01_glass_arm_1k.jpg"}], "samplers": [{"magFilter": 9729, "minFilter": 9987}], "textures": [{"sampler": 0, "source": 0}, {"sampler": 0, "source": 1}, {"sampler": 0, "source": 2}, {"sampler": 0, "source": 3}, {"sampler": 0, "source": 4}, {"sampler": 0, "source": 5}], "materials": [{"doubleSided": true, "name": "wooden_lantern_01", "normalTexture": {"index": 0}, "pbrMetallicRoughness": {"baseColorTexture": {"index": 1}, "metallicRoughnessTexture": {"index": 2}}}, {"alphaMode": "BLEND", "doubleSided": true, "name": "wooden_lantern_01_glass", "normalTexture": {"index": 3}, "pbrMetallicRoughness": {"baseColorTexture": {"index": 4}, "metallicRoughnessTexture": {"index": 5}}}]}