{"asset": {"version": "2.0", "generator": "EMERGENT tools/make_lods.py"}, "scene": 0, "scenes": [{"name": "Scene", "nodes": [0, 1, 2]}], "nodes": [{"mesh": 0, "name": "wooden_lantern_01", "translation": [0, 0.0014258272713050246, 0]}, {"mesh": 1, "name": "wooden_lantern_01_door", "translation": [0.06251434236764908, 0.17132970690727234, 0.08911173045635223]}, {"mesh": 2, "name": "wooden_lantern_01_handle", "translation": [5.633384353131987e-05, 0.3528529107570648, 5.396036431193352e-05]}], "meshes": [{"primitives": [{"attributes": {"POSITION": 0, "NORMAL": 1, "TEXCOORD_0": 2}, "indices": 3, "mode": 4, "material": 0}]}, {"primitives": [{"attributes": {"POSITION": 4, "NORMAL": 5, "TEXCOORD_0": 6}, "indices": 7, "mode": 4, "material": 0}]}, {"primitives": [{"attributes": {"POSITION": 8, "NORMAL": 9, "TEXCOORD_0": 10}, "indices": 11, "mode": 4, "material": 0}]}], "accessors": [{"bufferView": 0, "componentType": 5126, "count": 115, "type": "VEC3", "min": [-0.09686596505343914, 0.007797750154743115, -0.10824633555279838], "max": [0.1005869020308767, 0.39147621393203735, 0.1083583790394995]}, {"bufferView": 1, "componentType": 5126, "count": 115, "type": "VEC3", "min": null, "max": null}, {"bufferView": 2, "componentType": 5126, "count": 115, "type": "VEC2", "min": null, "max": null}, {"bufferView": 3, "componentType": 5123, "count": 783, "type": "SCALAR"}, {"bufferView": 4, "componentType": 5126, "count": 37, "type": "VEC3", "min": [-0.1183766918561309, -0.14331797324120998, -0.0024465015158057213], "max": [0.008666816730207453, 0.1553288698196411, 0.028560554197624377]}, {"bufferView": 5, "componentType": 5126, "count": 37, "type": "VEC3", "min": null, "max": null}, {"bufferView": 6, "componentType": 5126, "count": 37, "type": "VEC2", "min": null, "max": null}, {"bufferView": 7, "componentType": 5123, "count": 252, "type": "SCALAR"}, {"bufferView": 8, "componentType": 5126, "count": 25, "type": "VEC3", "min": [-0.08039718581665131, 0.0028514809974212623, -0.007006149603209148], "max": [0.09037286043167114, 0.16326082373658815, 0.0030317594549463442]}, {"bufferView": 9, "componentType": 5126, "count": 25, "type": "VEC3", "min": null, "max": null}, {"bufferView": 10, "componentType": 5126, "count": 25, "type": "VEC2", "min": null, "max": null}, {"bufferView": 11, "componentType": 5123, "count": 18, "type": "SCALAR"}], "bufferViews": [{"buffer": 0, "byteOffset": 0, "byteLength": 1380, "target": 34962}, {"buffer": 0, "byteOffset": 1380, "byteLength": 1380, "target": 34962}, {"buffer": 0, "byteOffset": 2760, "byteLength": 920, "target": 34962}, {"buffer": 0, "byteOffset": 3680, "byteLength": 1566, "target": 34963}, {"buffer": 0, "byteOffset": 5248, "byteLength": 444, "target": 34962}, {"buffer": 0, "byteOffset": 5692, "byteLength": 444, "target": 34962}, {"buffer": 0, "byteOffset": 6136, "byteLength": 296, "target": 34962}, {"buffer": 0, "byteOffset": 6432, "byteLength": 504, "target": 34963}, {"buffer": 0, "byteOffset": 6936, "byteLength": 300, "target": 34962}, {"buffer": 0, "byteOffset": 7236, "byteLength": 300, "target": 34962}, {"buffer": 0, "byteOffset": 7536, "byteLength": 200, "target": 34962}, {"buffer": 0, "byteOffset": 7736, "byteLength": 36, "target": 34963}], "buffers": [{"byteLength": 7772, "uri": "lod2.bin"}], "images": [{"mimeType": "image/jpeg", "name": "wooden_lantern_01_nor_gl", "uri": "wooden_lantern_01_nor_gl_1k.jpg"}, {"mimeType": "image/jpeg", "name": "wooden_lantern_01_diff", "uri": "wooden_lantern_01_diff_1k.jpg"}, {"mimeType": "image/jpeg", "name": "wooden_lantern_01_metal-wooden_lantern_01_rough", "uri": "wooden_lantern_01_arm_1k.jpg"}, {"mimeType": "image/jpeg", "name": "wooden_lantern_01_glass_nor_gl", "uri": "wooden_lantern_01_glass_nor_gl_1k.jpg"}, {"mimeType": "image/jpeg", "name": "wooden_lantern_01_glass_diff-wooden_lantern_01_glass_opacity", "uri": "wooden_lantern_01_glass_diff_1k.jpg"}, {"mimeType": "image/jpeg", "name": "wooden_lantern_01_glass_metal-wooden_lantern_01_glass_rough", "uri": "wooden_lantern_01_glass_arm_1k.jpg"}], "samplers": [{"magFilter": 9729, "minFilter": 9987}], "textures": [{"sampler": 0, "source": 0}, {"sampler": 0, "source": 1}, {"sampler": 0, "source": 2}, {"sampler": 0, "source": 3}, {"sampler": 0, "source": 4}, {"sampler": 0, "source": 5}], "materials": [{"doubleSided": true, "name": "wooden_lantern_01", "normalTexture": {"index": 0}, "pbrMetallicRoughness": {"baseColorTexture": {"index": 1}, "metallicRoughnessTexture": {"index": 2}}}, {"alphaMode": "BLEND", "doubleSided": true, "name": "wooden_lantern_01_glass", "normalTexture": {"index": 3}, "pbrMetallicRoughness": {"baseColorTexture": {"index": 4}, "metallicRoughnessTexture": {"index": 5}}}]}