{"asset": {"version": "2.0", "generator": "EMERGENT tools/make_lods.py"}, "scene": 0, "scenes": [{"name": "Scene", "nodes": [0]}], "nodes": [{"mesh": 0, "name": "street_lamp_01"}], "meshes": [{"primitives": [{"attributes": {"POSITION": 0, "NORMAL": 1, "TEXCOORD_0": 2}, "indices": 3, "mode": 4, "material": 0}]}], "accessors": [{"bufferView": 0, "componentType": 5126, "count": 3059, "type": "VEC3", "min": [-0.34947769645424115, 0.0, -0.1922439049397196], "max": [0.3503613295181403, 3.8705554008483887, 0.19224392835583004]}, {"bufferView": 1, "componentType": 5126, "count": 3059, "type": "VEC3", "min": null, "max": null}, {"bufferView": 2, "componentType": 5126, "count": 3059, "type": "VEC2", "min": null, "max": null}, {"bufferView": 3, "componentType": 5123, "count": 18420, "type": "SCALAR"}], "bufferViews": [{"buffer": 0, "byteOffset": 0, "byteLength": 36708, "target": 34962}, {"buffer": 0, "byteOffset": 36708, "byteLength": 36708, "target": 34962}, {"buffer": 0, "byteOffset": 73416, "byteLength": 24472, "target": 34962}, {"buffer": 0, "byteOffset": 97888, "byteLength": 36840, "target": 34963}], "buffers": [{"byteLength": 134728, "uri": "lod1.bin"}], "images": [{"mimeType": "image/jpeg", "name": "street_lamp_01_nor_gl", "uri": "street_lamp_01_nor_gl_1k.jpg"}, {"mimeType": "image/jpeg", "name": "street_lamp_01_diff", "uri": "street_lamp_01_diff_1k.jpg"}, {"mimeType": "image/jpeg", "name": "street_lamp_01_metal-street_lamp_01_rough", "uri": "street_lamp_01_arm_1k.jpg"}, {"mimeType": "image/jpeg", "name": "street_lamp_01_diff-street_lamp_01_opacity", "uri": "street_lamp_01_diff_1k.jpg"}], "samplers": [{"magFilter": 9729, "minFilter": 9987}], "textures": [{"sampler": 0, "source": 0}, {"sampler": 0, "source": 1}, {"sampler": 0, "source": 2}, {"sampler": 0, "source": 0}, {"sampler": 0, "source": 3}, {"sampler": 0, "source": 2}, {"sampler": 0, "source": 0}, {"sampler": 0, "source": 1}, {"sampler": 0, "source": 2}], "materials": [{"doubleSided": true, "name": "street_lamp_01", "normalTexture": {"index": 0}, "pbrMetallicRoughness": {"baseColorTexture": {"index": 1}, "metallicRoughnessTexture": {"index": 2}}}, {"alphaMode": "BLEND", "doubleSided": true, "name": "street_lamp_01_glass", "normalTexture": {"index": 3}, "pbrMetallicRoughness": {"baseColorTexture": {"index": 4}, "metallicRoughnessTexture": {"index": 5}}}, {"doubleSided": true, "name": "street_lamp_01_bulb", "normalTexture": {"index": 6}, "pbrMetallicRoughness": {"baseColorTexture": {"index": 7}, "metallicRoughnessTexture": {"index": 8}}}]}