{"asset": {"version": "2.0", "generator": "EMERGENT tools/make_lods.py"}, "scene": 0, "scenes": [{"name": "Scene", "nodes": [0]}], "nodes": [{"mesh": 0, "name": "painted_wooden_bench"}], "meshes": [{"primitives": [{"attributes": {"POSITION": 0, "NORMAL": 1, "TEXCOORD_0": 2}, "indices": 3, "mode": 4, "material": 0}]}], "accessors": [{"bufferView": 0, "componentType": 5126, "count": 677, "type": "VEC3", "min": [-0.5760610699653625, -0.0004994967021048069, -0.25369879603385925], "max": [0.5888825058937073, 0.8887919783592224, 0.24284429848194122]}, {"bufferView": 1, "componentType": 5126, "count": 677, "type": "VEC3", "min": null, "max": null}, {"bufferView": 2, "componentType": 5126, "count": 677, "type": "VEC2", "min": null, "max": null}, {"bufferView": 3, "componentType": 5123, "count": 1890, "type": "SCALAR"}], "bufferViews": [{"buffer": 0, "byteOffset": 0, "byteLength": 8124, "target": 34962}, {"buffer": 0, "byteOffset": 8124, "byteLength": 8124, "target": 34962}, {"buffer": 0, "byteOffset": 16248, "byteLength": 5416, "target": 34962}, {"buffer": 0, "byteOffset": 21664, "byteLength": 3780, "target": 34963}], "buffers": [{"byteLength": 25444, "uri": "lod0.bin"}], "images": [{"mimeType": "image/jpeg", "name": "painted_wooden_bench_nor_gl", "uri": "painted_wooden_bench_nor_gl_1k.jpg"}, {"mimeType": "image/jpeg", "name": "painted_wooden_bench_diff", "uri": "painted_wooden_bench_diff_1k.jpg"}, {"mimeType": "image/jpeg", "name": "painted_wooden_bench_rough", "uri": "painted_wooden_bench_arm_1k.jpg"}], "samplers": [{"magFilter": 9729, "minFilter": 9987}], "textures": [{"sampler": 0, "source": 0}, {"sampler": 0, "source": 1}, {"sampler": 0, "source": 2}], "materials": [{"doubleSided": true, "name": "painted_wooden_bench", "normalTexture": {"index": 0}, "pbrMetallicRoughness": {"baseColorTexture": {"index": 1}, "metallicFactor": 0, "metallicRoughnessTexture": {"index": 2}}}]}