{"asset": {"version": "2.0", "generator": "EMERGENT tools/make_lods.py"}, "scene": 0, "scenes": [{"name": "Scene", "nodes": [0]}], "nodes": [{"mesh": 0, "name": "painted_wooden_bench"}], "meshes": [{"primitives": [{"attributes": {"POSITION": 0, "NORMAL": 1, "TEXCOORD_0": 2}, "indices": 3, "mode": 4, "material": 0}]}], "accessors": [{"bufferView": 0, "componentType": 5126, "count": 5, "type": "VEC3", "min": [-0.5569578844538622, 0.1385006241820058, -0.0071066023450133305], "max": [0.5888825058937073, 0.7455830720545874, 0.238754004240036]}, {"bufferView": 1, "componentType": 5126, "count": 5, "type": "VEC3", "min": null, "max": null}, {"bufferView": 2, "componentType": 5126, "count": 5, "type": "VEC2", "min": null, "max": null}, {"bufferView": 3, "componentType": 5123, "count": 30, "type": "SCALAR"}], "bufferViews": [{"buffer": 0, "byteOffset": 0, "byteLength": 60, "target": 34962}, {"buffer": 0, "byteOffset": 60, "byteLength": 60, "target": 34962}, {"buffer": 0, "byteOffset": 120, "byteLength": 40, "target": 34962}, {"buffer": 0, "byteOffset": 160, "byteLength": 60, "target": 34963}], "buffers": [{"byteLength": 220, "uri": "lod2.bin"}], "images": [{"mimeType": "image/jpeg", "name": "painted_wooden_bench_nor_gl", "uri": "painted_wooden_bench_nor_gl_1k.jpg"}, {"mimeType": "image/jpeg", "name": "painted_wooden_bench_diff", "uri": "painted_wooden_bench_diff_1k.jpg"}, {"mimeType": "image/jpeg", "name": "painted_wooden_bench_rough", "uri": "painted_wooden_bench_arm_1k.jpg"}], "samplers": [{"magFilter": 9729, "minFilter": 9987}], "textures": [{"sampler": 0, "source": 0}, {"sampler": 0, "source": 1}, {"sampler": 0, "source": 2}], "materials": [{"doubleSided": true, "name": "painted_wooden_bench", "normalTexture": {"index": 0}, "pbrMetallicRoughness": {"baseColorTexture": {"index": 1}, "metallicFactor": 0, "metallicRoughnessTexture": {"index": 2}}}]}